Kablammov0.9-MildBold.ufo
<glyph name="exclam" format="2">
  <advance width="346"/>
  <unicode hex="0021"/>
  <outline>
    <contour>
      <point x="133" y="259" type="line" smooth="yes"/>
      <point x="143" y="219"/>
      <point x="186" y="218"/>
      <point x="198" y="258" type="curve" smooth="yes"/>
      <point x="290" y="570" type="line" smooth="yes"/>
      <point x="346" y="761"/>
      <point x="6" y="762"/>
      <point x="54" y="573" type="curve" smooth="yes"/>
    </contour>
    <contour>
      <point x="168" y="-19" type="curve" smooth="yes"/>
      <point x="213" y="-19"/>
      <point x="250" y="18"/>
      <point x="250" y="65" type="curve" smooth="yes"/>
      <point x="250" y="110"/>
      <point x="213" y="147"/>
      <point x="168" y="147" type="curve" smooth="yes"/>
      <point x="121" y="147"/>
      <point x="84" y="110"/>
      <point x="84" y="65" type="curve" smooth="yes"/>
      <point x="84" y="18"/>
      <point x="121" y="-19"/>
    </contour>
    <contour>
      <point x="91" y="587" type="line" smooth="yes"/>
      <point x="63" y="588"/>
      <point x="62" y="528"/>
      <point x="88" y="527" type="curve" smooth="yes"/>
      <point x="209" y="523" type="line" smooth="yes"/>
      <point x="238" y="522"/>
      <point x="247" y="581"/>
      <point x="213" y="582" type="curve" smooth="yes"/>
    </contour>
    <contour>
      <point x="181" y="475" type="line" smooth="yes"/>
      <point x="150" y="473"/>
      <point x="152" y="416"/>
      <point x="181" y="416" type="curve" smooth="yes"/>
      <point x="214" y="416" type="line" smooth="yes"/>
      <point x="249" y="416"/>
      <point x="247" y="479"/>
      <point x="211" y="477" type="curve" smooth="yes"/>
    </contour>
    <contour>
      <point x="154" y="521" type="line" smooth="yes"/>
      <point x="130" y="518"/>
      <point x="131" y="476"/>
      <point x="153" y="476" type="curve" smooth="yes"/>
      <point x="173" y="476" type="line"/>
      <point x="168" y="523" type="line"/>
    </contour>
    <contour>
      <point x="158" y="388" type="curve" smooth="yes"/>
      <point x="139" y="390" type="line"/>
      <point x="134" y="346" type="line"/>
      <point x="157" y="339" type="line" smooth="yes"/>
      <point x="177" y="333"/>
      <point x="179" y="386"/>
    </contour>
  </outline>
</glyph>
<glyph name="quotedbl" format="2">
  <advance width="393"/>
  <unicode hex="0022"/>
  <outline>
    <contour>
      <point x="59" y="414" type="line" smooth="yes"/>
      <point x="62" y="361"/>
      <point x="146" y="361"/>
      <point x="150" y="414" type="curve" smooth="yes"/>
      <point x="167" y="659" type="line" smooth="yes"/>
      <point x="172" y="733"/>
      <point x="41" y="735"/>
      <point x="45" y="657" type="curve" smooth="yes"/>
    </contour>
    <contour>
      <point x="240" y="414" type="line" smooth="yes"/>
      <point x="243" y="361"/>
      <point x="327" y="361"/>
      <point x="331" y="414" type="curve" smooth="yes"/>
      <point x="348" y="659" type="line" smooth="yes"/>
      <point x="353" y="733"/>
      <point x="222" y="735"/>
      <point x="226" y="657" type="curve" smooth="yes"/>
    </contour>
    <contour>
      <point x="46" y="646" type="line"/>
      <point x="46" y="646" type="line"/>
      <point x="46" y="646"/>
      <point x="50" y="579"/>
      <point x="50" y="579" type="curve"/>
      <point x="50" y="579" type="line"/>
    </contour>
    <contour>
      <point x="227" y="646" type="line"/>
      <point x="227" y="646" type="line"/>
      <point x="227" y="646"/>
      <point x="230" y="585"/>
      <point x="230" y="585" type="curve"/>
      <point x="230" y="585" type="line"/>
    </contour>
    <contour>
      <point x="232" y="550" type="line"/>
      <point x="232" y="550" type="line"/>
      <point x="232" y="550"/>
      <point x="236" y="482"/>
      <point x="236" y="482" type="curve"/>
      <point x="236" y="482" type="line"/>
    </contour>
  </outline>
</glyph>
<glyph name="numbersign" format="2">
  <advance width="743"/>
  <unicode hex="0023"/>
  <outline>
    <contour>
      <point x="299" y="682" type="curve" smooth="yes"/>
      <point x="117" y="25" type="line" smooth="yes"/>
      <point x="103" y="-25"/>
      <point x="171" y="-47"/>
      <point x="184" y="0" type="curve" smooth="yes"/>
      <point x="368" y="662" type="line" smooth="yes"/>
      <point x="380" y="704"/>
      <point x="311" y="725"/>
    </contour>
    <contour>
      <point x="559" y="682" type="curve" smooth="yes"/>
      <point x="377" y="25" type="line" smooth="yes"/>
      <point x="363" y="-25"/>
      <point x="431" y="-47"/>
      <point x="444" y="0" type="curve" smooth="yes"/>
      <point x="628" y="662" type="line" smooth="yes"/>
      <point x="640" y="704"/>
      <point x="571" y="725"/>
    </contour>
    <contour>
      <point x="116" y="505" type="line" smooth="yes"/>
      <point x="62" y="505"/>
      <point x="62" y="432"/>
      <point x="116" y="432" type="curve" smooth="yes"/>
      <point x="695" y="432" type="line" smooth="yes"/>
      <point x="752" y="432"/>
      <point x="753" y="505"/>
      <point x="695" y="505" type="curve" smooth="yes"/>
    </contour>
    <contour>
      <point x="45" y="253" type="line" smooth="yes"/>
      <point x="-9" y="253"/>
      <point x="-9" y="180"/>
      <point x="45" y="180" type="curve" smooth="yes"/>
      <point x="624" y="180" type="line" smooth="yes"/>
      <point x="681" y="180"/>
      <point x="682" y="253"/>
      <point x="624" y="253" type="curve" smooth="yes"/>
    </contour>
  </outline>
</glyph>
<glyph name="dollar" format="2">
  <advance width="461"/>
  <unicode hex="0024"/>
  <outline>
    <contour>
      <point x="223" y="22" type="curve" smooth="yes"/>
      <point x="357" y="22"/>
      <point x="426" y="86"/>
      <point x="426" y="216" type="curve" smooth="yes"/>
      <point x="426" y="310"/>
      <point x="386" y="347"/>
      <point x="278" y="372" type="curve" smooth="yes"/>
      <point x="218" y="386" type="line" smooth="yes"/>
      <point x="142" y="404"/>
      <point x="123" y="423"/>
      <point x="123" y="452" type="curve" smooth="yes"/>
      <point x="123" y="486"/>
      <point x="142" y="503"/>
      <point x="180" y="503" type="curve" smooth="yes"/>
      <point x="250" y="503"/>
      <point x="274" y="463"/>
      <point x="333" y="463" type="curve" smooth="yes"/>
      <point x="390" y="463"/>
      <point x="418" y="493"/>
      <point x="418" y="545" type="curve" smooth="yes"/>
      <point x="418" y="632"/>
      <point x="335" y="678"/>
      <point x="253" y="678" type="curve" smooth="yes"/>
      <point x="125" y="678"/>
      <point x="51" y="598"/>
      <point x="51" y="485" type="curve" smooth="yes"/>
      <point x="51" y="388"/>
      <point x="104" y="352"/>
      <point x="200" y="331" type="curve" smooth="yes"/>
      <point x="264" y="317" type="line" smooth="yes"/>
      <point x="331" y="302"/>
      <point x="358" y="281"/>
      <point x="358" y="253" type="curve" smooth="yes"/>
      <point x="358" y="208"/>
      <point x="327" y="189"/>
      <point x="273" y="189" type="curve" smooth="yes"/>
      <point x="197" y="189"/>
      <point x="162" y="230"/>
      <point x="108" y="230" type="curve" smooth="yes"/>
      <point x="68" y="230"/>
      <point x="40" y="200"/>
      <point x="40" y="151" type="curve" smooth="yes"/>
      <point x="40" y="74"/>
      <point x="129" y="22"/>
    </contour>
    <contour>
      <point x="315" y="621" type="curve" smooth="yes"/>
      <point x="327" y="730" type="line" smooth="yes"/>
      <point x="333" y="777"/>
      <point x="266" y="787"/>
      <point x="260" y="739" type="curve" smooth="yes"/>
      <point x="245" y="629" type="line" smooth="yes"/>
      <point x="238" y="575"/>
      <point x="309" y="567"/>
    </contour>
    <contour>
      <point x="178" y="78" type="curve" smooth="yes"/>
      <point x="164" y="-30" type="line" smooth="yes"/>
      <point x="157" y="-80"/>
      <point x="227" y="-89"/>
      <point x="233" y="-39" type="curve" smooth="yes"/>
      <point x="247" y="70" type="line" smooth="yes"/>
      <point x="254" y="122"/>
      <point x="184" y="130"/>
    </contour>
    <contour>
      <point x="142" y="569" type="curve" smooth="yes"/>
      <point x="142" y="569"/>
      <point x="142" y="569"/>
      <point x="142" y="569" type="curve" smooth="yes"/>
      <point x="142" y="569"/>
      <point x="142" y="569"/>
      <point x="142" y="569" type="curve" smooth="yes"/>
      <point x="142" y="569"/>
      <point x="142" y="569"/>
      <point x="142" y="569" type="curve" smooth="yes"/>
      <point x="142" y="569"/>
      <point x="142" y="569"/>
    </contour>
    <contour>
      <point x="97" y="509" type="curve" smooth="yes"/>
      <point x="97" y="509"/>
      <point x="97" y="509"/>
      <point x="97" y="509" type="curve" smooth="yes"/>
      <point x="97" y="509"/>
      <point x="97" y="509"/>
      <point x="97" y="509" type="curve" smooth="yes"/>
      <point x="97" y="509"/>
      <point x="97" y="509"/>
      <point x="97" y="509" type="curve" smooth="yes"/>
      <point x="97" y="509"/>
      <point x="97" y="509"/>
    </contour>
    <contour>
      <point x="159" y="350" type="line" smooth="yes"/>
      <point x="173" y="327"/>
      <point x="211" y="349"/>
      <point x="200" y="375" type="curve" smooth="yes"/>
      <point x="197" y="382" type="line" smooth="yes"/>
      <point x="186" y="408"/>
      <point x="139" y="383"/>
      <point x="153" y="360" type="curve" smooth="yes"/>
    </contour>
    <contour>
      <point x="88" y="122" type="line" smooth="yes"/>
      <point x="68" y="78"/>
      <point x="113" y="56"/>
      <point x="136" y="98" type="curve" smooth="yes"/>
      <point x="151" y="125" type="line"/>
      <point x="103" y="155" type="line"/>
    </contour>
  </outline>
</glyph>
<glyph name="percent" format="2">
  <advance width="683"/>
  <unicode hex="0025"/>
  <outline>
    <contour>
      <point x="161" y="386" type="curve" smooth="yes"/>
      <point x="246" y="386"/>
      <point x="292" y="440"/>
      <point x="292" y="548" type="curve" smooth="yes"/>
      <point x="292" y="656"/>
      <point x="246" y="710"/>
      <point x="161" y="710" type="curve" smooth="yes"/>
      <point x="76" y="710"/>
      <point x="30" y="656"/>
      <point x="30" y="548" type="curve" smooth="yes"/>
      <point x="30" y="440"/>
      <point x="76" y="386"/>
    </contour>
    <contour>
      <point x="161" y="441" type="curve" smooth="yes"/>
      <point x="111" y="441"/>
      <point x="87" y="471"/>
      <point x="87" y="524" type="curve" smooth="yes"/>
      <point x="87" y="577"/>
      <point x="111" y="607"/>
      <point x="161" y="607" type="curve" smooth="yes"/>
      <point x="211" y="607"/>
      <point x="235" y="577"/>
      <point x="235" y="524" type="curve" smooth="yes"/>
      <point x="235" y="471"/>
      <point x="211" y="441"/>
    </contour>
    <contour>
      <point x="592" y="695" type="curve" smooth="yes"/>
      <point x="52" y="48" type="line" smooth="yes"/>
      <point x="19" y="8"/>
      <point x="68" y="-34"/>
      <point x="101" y="5" type="curve" smooth="yes"/>
      <point x="642" y="652" type="line" smooth="yes"/>
      <point x="677" y="694"/>
      <point x="622" y="731"/>
    </contour>
    <contour>
      <point x="521" y="-10" type="curve" smooth="yes"/>
      <point x="606" y="-10"/>
      <point x="652" y="44"/>
      <point x="652" y="152" type="curve" smooth="yes"/>
      <point x="652" y="260"/>
      <point x="606" y="314"/>
      <point x="521" y="314" type="curve" smooth="yes"/>
      <point x="436" y="314"/>
      <point x="390" y="260"/>
      <point x="390" y="152" type="curve" smooth="yes"/>
      <point x="390" y="44"/>
      <point x="436" y="-10"/>
    </contour>
    <contour>
      <point x="521" y="93" type="curve" smooth="yes"/>
      <point x="471" y="93"/>
      <point x="447" y="123"/>
      <point x="447" y="176" type="curve" smooth="yes"/>
      <point x="447" y="229"/>
      <point x="471" y="259"/>
      <point x="521" y="259" type="curve" smooth="yes"/>
      <point x="571" y="259"/>
      <point x="595" y="229"/>
      <point x="595" y="176" type="curve" smooth="yes"/>
      <point x="595" y="123"/>
      <point x="571" y="93"/>
    </contour>
    <contour>
      <point x="554" y="43" type="line" smooth="yes"/>
      <point x="577" y="5"/>
      <point x="626" y="19"/>
      <point x="608" y="64" type="curve" smooth="yes"/>
      <point x="598" y="89" type="line"/>
      <point x="543" y="61" type="line"/>
    </contour>
    <contour>
      <point x="415" y="101" type="line" smooth="yes"/>
      <point x="402" y="86"/>
      <point x="445" y="39"/>
      <point x="460" y="56" type="curve" smooth="yes"/>
      <point x="470" y="67" type="line"/>
      <point x="427" y="115" type="line"/>
    </contour>
    <contour>
      <point x="167" y="663" type="line" smooth="yes"/>
      <point x="158" y="703"/>
      <point x="76" y="682"/>
      <point x="98" y="641" type="curve" smooth="yes"/>
      <point x="116" y="607" type="line"/>
      <point x="174" y="631" type="line"/>
    </contour>
    <contour>
      <point x="272" y="562" type="line" smooth="yes"/>
      <point x="296" y="577"/>
      <point x="266" y="641"/>
      <point x="239" y="625" type="curve" smooth="yes"/>
      <point x="222" y="615" type="line"/>
      <point x="256" y="552" type="line"/>
    </contour>
    <contour>
      <point x="84" y="446" type="line" smooth="yes"/>
      <point x="65" y="423"/>
      <point x="131" y="378"/>
      <point x="152" y="408" type="curve" smooth="yes"/>
      <point x="159" y="418" type="line"/>
      <point x="94" y="458" type="line"/>
    </contour>
  </outline>
</glyph>
<glyph name="ampersand" format="2">
  <advance width="562"/>
  <unicode hex="0026"/>
  <outline>
    <contour>
      <point x="248" y="-14" type="curve" smooth="yes"/>
      <point x="396" y="-14"/>
      <point x="496" y="38"/>
      <point x="496" y="170" type="curve" smooth="yes"/>
      <point x="496" y="266" type="line" smooth="yes"/>
      <point x="496" y="296"/>
      <point x="503" y="303"/>
      <point x="519" y="303" type="curve" smooth="yes"/>
      <point x="529" y="303" type="line" smooth="yes"/>
      <point x="573" y="303"/>
      <point x="573" y="370"/>
      <point x="529" y="370" type="curve" smooth="yes"/>
      <point x="210" y="370" type="line" smooth="yes"/>
      <point x="156" y="370"/>
      <point x="136" y="396"/>
      <point x="136" y="434" type="curve" smooth="yes"/>
      <point x="136" y="477"/>
      <point x="164" y="499"/>
      <point x="233" y="499" type="curve" smooth="yes"/>
      <point x="300" y="499"/>
      <point x="332" y="486"/>
      <point x="376" y="486" type="curve" smooth="yes"/>
      <point x="432" y="486"/>
      <point x="466" y="541"/>
      <point x="466" y="595" type="curve" smooth="yes"/>
      <point x="466" y="681"/>
      <point x="388" y="712"/>
      <point x="293" y="712" type="curve" smooth="yes"/>
      <point x="168" y="712"/>
      <point x="66" y="634"/>
      <point x="66" y="479" type="curve" smooth="yes"/>
      <point x="66" y="413"/>
      <point x="85" y="369"/>
      <point x="120" y="346" type="curve" smooth="yes"/>
      <point x="132" y="339"/>
      <point x="132" y="325"/>
      <point x="121" y="319" type="curve" smooth="yes"/>
      <point x="67" y="288"/>
      <point x="45" y="231"/>
      <point x="45" y="164" type="curve" smooth="yes"/>
      <point x="45" y="51"/>
      <point x="117" y="-14"/>
    </contour>
    <contour>
      <point x="230" y="54" type="curve" smooth="yes"/>
      <point x="158" y="54"/>
      <point x="115" y="95"/>
      <point x="115" y="166" type="curve" smooth="yes"/>
      <point x="115" y="233"/>
      <point x="152" y="303"/>
      <point x="222" y="303" type="curve" smooth="yes"/>
      <point x="261" y="303" type="line" smooth="yes"/>
      <point x="300" y="303"/>
      <point x="309" y="289"/>
      <point x="309" y="262" type="curve" smooth="yes"/>
      <point x="309" y="163" type="line" smooth="yes"/>
      <point x="309" y="85"/>
      <point x="287" y="54"/>
    </contour>
    <contour>
      <point x="78" y="213" type="curve" smooth="yes"/>
      <point x="78" y="213"/>
      <point x="78" y="213"/>
      <point x="78" y="213" type="curve" smooth="yes"/>
      <point x="78" y="213"/>
      <point x="78" y="213"/>
      <point x="78" y="213" type="curve" smooth="yes"/>
      <point x="78" y="213"/>
      <point x="78" y="213"/>
      <point x="78" y="213" type="curve" smooth="yes"/>
      <point x="78" y="213"/>
      <point x="78" y="213"/>
    </contour>
    <contour>
      <point x="73" y="156" type="curve" smooth="yes"/>
      <point x="73" y="156"/>
      <point x="73" y="156"/>
      <point x="73" y="156" type="curve" smooth="yes"/>
      <point x="73" y="156"/>
      <point x="73" y="156"/>
      <point x="73" y="156" type="curve" smooth="yes"/>
      <point x="73" y="156"/>
      <point x="73" y="156"/>
      <point x="73" y="156" type="curve" smooth="yes"/>
      <point x="73" y="156"/>
      <point x="73" y="156"/>
    </contour>
    <contour>
      <point x="132" y="41" type="curve" smooth="yes"/>
      <point x="132" y="41"/>
      <point x="132" y="41"/>
      <point x="132" y="41" type="curve" smooth="yes"/>
      <point x="132" y="41"/>
      <point x="132" y="41"/>
      <point x="132" y="41" type="curve" smooth="yes"/>
      <point x="132" y="41"/>
      <point x="132" y="41"/>
      <point x="132" y="41" type="curve" smooth="yes"/>
      <point x="132" y="41"/>
      <point x="132" y="41"/>
    </contour>
    <contour>
      <point x="290" y="370" type="curve"/>
      <point x="290" y="370" type="line"/>
      <point x="339" y="370" type="line"/>
      <point x="339" y="370" type="line"/>
      <point x="339" y="370"/>
      <point x="290" y="370"/>
    </contour>
    <contour>
      <point x="387" y="370" type="curve"/>
      <point x="387" y="370" type="line"/>
      <point x="437" y="370" type="line"/>
      <point x="437" y="370" type="line"/>
      <point x="437" y="370"/>
      <point x="387" y="370"/>
    </contour>
  </outline>
</glyph>
<glyph name="quotesingle" format="2">
  <advance width="207"/>
  <unicode hex="0027"/>
  <outline>
    <contour>
      <point x="59" y="414" type="line" smooth="yes"/>
      <point x="62" y="361"/>
      <point x="141" y="361"/>
      <point x="145" y="414" type="curve" smooth="yes"/>
      <point x="162" y="659" type="line" smooth="yes"/>
      <point x="167" y="733"/>
      <point x="41" y="735"/>
      <point x="45" y="657" type="curve" smooth="yes"/>
    </contour>
    <contour>
      <point x="47" y="621" type="line"/>
      <point x="47" y="621" type="line"/>
      <point x="48" y="600"/>
      <point x="50" y="579"/>
      <point x="51" y="558" type="curve"/>
      <point x="51" y="558" type="line"/>
    </contour>
  </outline>
</glyph>
<glyph name="parenleft" format="2">
  <advance width="341"/>
  <unicode hex="0028"/>
  <guideline x="427" y="843" angle="0"/>
  <guideline x="558" y="-160" angle="0"/>
  <outline>
    <contour>
      <point x="50" y="341" type="curve" smooth="yes"/>
      <point x="50" y="50"/>
      <point x="177" y="-114"/>
      <point x="303" y="-166" type="curve" smooth="yes"/>
      <point x="327" y="-177"/>
      <point x="348" y="-154"/>
      <point x="333" y="-131" type="curve" smooth="yes"/>
      <point x="268" y="-25"/>
      <point x="220" y="89"/>
      <point x="220" y="341" type="curve" smooth="yes"/>
      <point x="220" y="593"/>
      <point x="268" y="707"/>
      <point x="333" y="813" type="curve" smooth="yes"/>
      <point x="348" y="837"/>
      <point x="327" y="859"/>
      <point x="303" y="848" type="curve" smooth="yes"/>
      <point x="177" y="796"/>
      <point x="50" y="632"/>
    </contour>
    <contour>
      <point x="134" y="107" type="line" smooth="yes"/>
      <point x="96" y="89"/>
      <point x="128" y="20"/>
      <point x="168" y="38" type="curve" smooth="yes"/>
      <point x="208" y="56" type="line" smooth="yes"/>
      <point x="244" y="72"/>
      <point x="213" y="143"/>
      <point x="171" y="124" type="curve" smooth="yes"/>
    </contour>
  </outline>
</glyph>
<glyph name="parenright" format="2">
  <advance width="341"/>
  <unicode hex="0029"/>
  <outline>
    <contour>
      <point x="291" y="347" type="curve" smooth="yes"/>
      <point x="291" y="638"/>
      <point x="164" y="802"/>
      <point x="38" y="854" type="curve" smooth="yes"/>
      <point x="14" y="865"/>
      <point x="-7" y="842"/>
      <point x="8" y="819" type="curve" smooth="yes"/>
      <point x="73" y="713"/>
      <point x="121" y="599"/>
      <point x="121" y="347" type="curve" smooth="yes"/>
      <point x="121" y="95"/>
      <point x="73" y="-19"/>
      <point x="8" y="-125" type="curve" smooth="yes"/>
      <point x="-7" y="-149"/>
      <point x="14" y="-171"/>
      <point x="38" y="-160" type="curve" smooth="yes"/>
      <point x="164" y="-108"/>
      <point x="291" y="56"/>
    </contour>
    <contour>
      <point x="147" y="553" type="line" smooth="yes"/>
      <point x="108" y="537"/>
      <point x="129" y="460"/>
      <point x="171" y="477" type="curve" smooth="yes"/>
      <point x="217" y="496" type="line" smooth="yes"/>
      <point x="253" y="511"/>
      <point x="232" y="588"/>
      <point x="198" y="574" type="curve" smooth="yes"/>
    </contour>
    <contour>
      <point x="189" y="331" type="line" smooth="yes"/>
      <point x="146" y="337"/>
      <point x="137" y="260"/>
      <point x="182" y="253" type="curve" smooth="yes"/>
      <point x="231" y="245" type="line"/>
      <point x="241" y="324" type="line"/>
    </contour>
  </outline>
</glyph>
<glyph name="asterisk" format="2">
  <advance width="486"/>
  <unicode hex="002A"/>
  <outline>
    <contour>
      <point x="205" y="673" type="curve" smooth="yes"/>
      <point x="211" y="565" type="line" smooth="yes"/>
      <point x="212" y="551"/>
      <point x="201" y="544"/>
      <point x="188" y="549" type="curve" smooth="yes"/>
      <point x="89" y="589" type="line" smooth="yes"/>
      <point x="43" y="608"/>
      <point x="18" y="528"/>
      <point x="66" y="516" type="curve" smooth="yes"/>
      <point x="172" y="489" type="line" smooth="yes"/>
      <point x="185" y="486"/>
      <point x="186" y="472"/>
      <point x="178" y="462" type="curve" smooth="yes"/>
      <point x="109" y="381" type="line" smooth="yes"/>
      <point x="77" y="343"/>
      <point x="146" y="294"/>
      <point x="172" y="336" type="curve" smooth="yes"/>
      <point x="229" y="427" type="line" smooth="yes"/>
      <point x="237" y="440"/>
      <point x="251" y="440"/>
      <point x="258" y="428" type="curve" smooth="yes"/>
      <point x="314" y="336" type="line" smooth="yes"/>
      <point x="339" y="294"/>
      <point x="407" y="343"/>
      <point x="376" y="381" type="curve" smooth="yes"/>
      <point x="306" y="465" type="line" smooth="yes"/>
      <point x="298" y="475"/>
      <point x="302" y="488"/>
      <point x="315" y="491" type="curve" smooth="yes"/>
      <point x="420" y="516" type="line" smooth="yes"/>
      <point x="468" y="527"/>
      <point x="442" y="607"/>
      <point x="397" y="589" type="curve" smooth="yes"/>
      <point x="295" y="549" type="line" smooth="yes"/>
      <point x="282" y="544"/>
      <point x="272" y="551"/>
      <point x="273" y="563" type="curve" smooth="yes"/>
      <point x="281" y="673" type="line" smooth="yes"/>
      <point x="285" y="722"/>
      <point x="202" y="722"/>
    </contour>
  </outline>
</glyph>
<glyph name="comma" format="2">
  <advance width="256"/>
  <unicode hex="002C"/>
  <outline>
    <contour>
      <point x="26" y="-151" type="curve" smooth="yes"/>
      <point x="-4" y="-184"/>
      <point x="44" y="-228"/>
      <point x="79" y="-193" type="curve" smooth="yes"/>
      <point x="143" y="-128"/>
      <point x="216" y="-28"/>
      <point x="216" y="55" type="curve" smooth="yes"/>
      <point x="216" y="110"/>
      <point x="179" y="147"/>
      <point x="134" y="147" type="curve" smooth="yes"/>
      <point x="87" y="147"/>
      <point x="50" y="110"/>
      <point x="50" y="61" type="curve" smooth="yes"/>
      <point x="50" y="33"/>
      <point x="62" y="11"/>
      <point x="86" y="-1" type="curve" smooth="yes"/>
      <point x="102" y="-9"/>
      <point x="110" y="-26"/>
      <point x="101" y="-48" type="curve" smooth="yes"/>
      <point x="88" y="-80"/>
      <point x="58" y="-116"/>
    </contour>
    <contour>
      <point x="124" y="-26" type="line"/>
      <point x="101" y="-79" type="line"/>
      <point x="120" y="-84" type="line" smooth="yes"/>
      <point x="156" y="-94"/>
      <point x="172" y="-44"/>
      <point x="137" y="-31" type="curve" smooth="yes"/>
    </contour>
    <contour>
      <point x="101" y="-102" type="line" smooth="yes"/>
      <point x="72" y="-82"/>
      <point x="37" y="-136"/>
      <point x="63" y="-156" type="curve" smooth="yes"/>
      <point x="75" y="-165" type="line" smooth="yes"/>
      <point x="101" y="-184"/>
      <point x="139" y="-128"/>
      <point x="111" y="-109" type="curve" smooth="yes"/>
    </contour>
    <contour>
      <point x="110" y="-124" type="line" smooth="yes"/>
      <point x="128" y="-132"/>
      <point x="143" y="-99"/>
      <point x="127" y="-91" type="curve" smooth="yes"/>
      <point x="110" y="-83" type="line" smooth="yes"/>
      <point x="94" y="-75"/>
      <point x="75" y="-108"/>
      <point x="95" y="-117" type="curve" smooth="yes"/>
    </contour>
  </outline>
</glyph>
<glyph name="hyphen" format="2">
  <advance width="333"/>
  <unicode hex="002D"/>
  <outline>
    <contour>
      <point x="70" y="376" type="line" smooth="yes"/>
      <point x="16" y="376"/>
      <point x="16" y="286"/>
      <point x="70" y="286" type="curve" smooth="yes"/>
      <point x="260" y="286" type="line" smooth="yes"/>
      <point x="317" y="286"/>
      <point x="318" y="376"/>
      <point x="260" y="376" type="curve" smooth="yes"/>
    </contour>
  </outline>
</glyph>
<glyph name="period" format="2">
  <advance width="266"/>
  <unicode hex="002E"/>
  <outline>
    <contour>
      <point x="134" y="-19" type="curve" smooth="yes"/>
      <point x="179" y="-19"/>
      <point x="216" y="18"/>
      <point x="216" y="65" type="curve" smooth="yes"/>
      <point x="216" y="110"/>
      <point x="179" y="147"/>
      <point x="134" y="147" type="curve" smooth="yes"/>
      <point x="87" y="147"/>
      <point x="50" y="110"/>
      <point x="50" y="65" type="curve" smooth="yes"/>
      <point x="50" y="18"/>
      <point x="87" y="-19"/>
    </contour>
    <contour>
      <point x="136" y="63" type="curve" smooth="yes"/>
      <point x="136" y="63"/>
      <point x="136" y="63"/>
      <point x="136" y="63" type="curve" smooth="yes"/>
      <point x="136" y="63"/>
      <point x="136" y="63"/>
      <point x="136" y="63" type="curve" smooth="yes"/>
      <point x="136" y="63"/>
      <point x="136" y="63"/>
      <point x="136" y="63" type="curve" smooth="yes"/>
      <point x="136" y="63"/>
      <point x="136" y="63"/>
    </contour>
  </outline>
</glyph>
<glyph name="slash" format="2">
  <advance width="408"/>
  <unicode hex="002F"/>
  <outline>
    <contour>
      <point x="330" y="822" type="curve" smooth="yes"/>
      <point x="8" y="-101" type="line" smooth="yes"/>
      <point x="-10" y="-151"/>
      <point x="61" y="-175"/>
      <point x="77" y="-128" type="curve" smooth="yes"/>
      <point x="401" y="800" type="line" smooth="yes"/>
      <point x="416" y="842"/>
      <point x="345" y="865"/>
    </contour>
  </outline>
</glyph>
<glyph name="zero" format="2">
  <advance width="588"/>
  <unicode hex="0030"/>
  <outline>
    <contour>
      <point x="294" y="-14" type="curve" smooth="yes"/>
      <point x="461" y="-14"/>
      <point x="553" y="100"/>
      <point x="553" y="327" type="curve" smooth="yes"/>
      <point x="553" y="596"/>
      <point x="460" y="714"/>
      <point x="294" y="714" type="curve" smooth="yes"/>
      <point x="128" y="714"/>
      <point x="35" y="596"/>
      <point x="35" y="327" type="curve" smooth="yes"/>
      <point x="35" y="100"/>
      <point x="127" y="-14"/>
    </contour>
    <contour>
      <point x="294" y="499" type="curve" smooth="yes"/>
      <point x="418" y="499"/>
      <point x="480" y="404"/>
      <point x="480" y="295" type="curve" smooth="yes"/>
      <point x="480" y="142"/>
      <point x="418" y="56"/>
      <point x="294" y="56" type="curve" smooth="yes"/>
      <point x="170" y="56"/>
      <point x="108" y="142"/>
      <point x="108" y="295" type="curve" smooth="yes"/>
      <point x="108" y="404"/>
      <point x="170" y="499"/>
    </contour>
    <contour>
      <point x="307" y="540" type="curve" smooth="yes"/>
      <point x="329" y="540"/>
      <point x="346" y="557"/>
      <point x="346" y="579" type="curve" smooth="yes"/>
      <point x="346" y="600"/>
      <point x="329" y="618"/>
      <point x="307" y="618" type="curve" smooth="yes"/>
      <point x="286" y="618"/>
      <point x="268" y="600"/>
      <point x="268" y="579" type="curve" smooth="yes"/>
      <point x="268" y="557"/>
      <point x="286" y="540"/>
    </contour>
    <contour>
      <point x="466" y="185" type="curve"/>
      <point x="466" y="185" type="line"/>
      <point x="460" y="163"/>
      <point x="450" y="142"/>
      <point x="436" y="121" type="curve"/>
      <point x="436" y="121" type="line"/>
      <point x="450" y="142"/>
      <point x="460" y="163"/>
    </contour>
    <contour>
      <point x="480" y="290" type="curve"/>
      <point x="480" y="290" type="line"/>
      <point x="480" y="270"/>
      <point x="478" y="250"/>
      <point x="476" y="230" type="curve"/>
      <point x="476" y="230" type="line"/>
      <point x="478" y="250"/>
      <point x="480" y="270"/>
    </contour>
    <contour>
      <point x="528" y="348" type="line" smooth="yes"/>
      <point x="501" y="371"/>
      <point x="473" y="314"/>
      <point x="490" y="300" type="curve" smooth="yes"/>
      <point x="511" y="283" type="line" smooth="yes"/>
      <point x="534" y="264"/>
      <point x="557" y="323"/>
      <point x="540" y="338" type="curve" smooth="yes"/>
    </contour>
    <contour>
      <point x="441" y="505" type="line" smooth="yes"/>
      <point x="403" y="471"/>
      <point x="462" y="420"/>
      <point x="485" y="445" type="curve" smooth="yes"/>
      <point x="506" y="467" type="line" smooth="yes"/>
      <point x="536" y="499"/>
      <point x="491" y="550"/>
      <point x="462" y="524" type="curve" smooth="yes"/>
    </contour>
    <contour>
      <point x="100" y="484" type="line" smooth="yes"/>
      <point x="78" y="495"/>
      <point x="61" y="451"/>
      <point x="81" y="443" type="curve" smooth="yes"/>
      <point x="105" y="433" type="line" smooth="yes"/>
      <point x="127" y="424"/>
      <point x="140" y="465"/>
      <point x="121" y="474" type="curve" smooth="yes"/>
    </contour>
    <contour>
      <point x="437" y="528" type="line" smooth="yes"/>
      <point x="454" y="547"/>
      <point x="423" y="579"/>
      <point x="406" y="559" type="curve" smooth="yes"/>
      <point x="399" y="551" type="line" smooth="yes"/>
      <point x="382" y="532"/>
      <point x="412" y="501"/>
      <point x="425" y="515" type="curve" smooth="yes"/>
    </contour>
    <contour>
      <point x="307" y="578" type="curve" smooth="yes"/>
      <point x="307" y="578"/>
      <point x="307" y="578"/>
      <point x="307" y="578" type="curve" smooth="yes"/>
      <point x="307" y="578"/>
      <point x="307" y="578"/>
      <point x="307" y="578" type="curve" smooth="yes"/>
      <point x="307" y="578"/>
      <point x="307" y="578"/>
      <point x="307" y="578" type="curve" smooth="yes"/>
      <point x="307" y="578"/>
      <point x="307" y="578"/>
    </contour>
    <contour>
      <point x="423" y="106" type="curve"/>
      <point x="423" y="106" type="line"/>
      <point x="413" y="95"/>
      <point x="404" y="88"/>
      <point x="391" y="80" type="curve"/>
      <point x="391" y="80" type="line"/>
      <point x="404" y="88"/>
      <point x="413" y="95"/>
    </contour>
  </outline>
</glyph>
<glyph name="one" format="2">
  <advance width="421"/>
  <unicode hex="0031"/>
  <outline>
    <contour>
      <point x="79" y="449" type="curve" smooth="yes"/>
      <point x="110" y="478" type="line" smooth="yes"/>
      <point x="140" y="506"/>
      <point x="166" y="500"/>
      <point x="166" y="452" type="curve" smooth="yes"/>
      <point x="166" y="69" type="line" smooth="yes"/>
      <point x="166" y="-40"/>
      <point x="361" y="-50"/>
      <point x="361" y="70" type="curve" smooth="yes"/>
      <point x="361" y="610" type="line" smooth="yes"/>
      <point x="361" y="727"/>
      <point x="298" y="747"/>
      <point x="223" y="679" type="curve" smooth="yes"/>
      <point x="35" y="509" type="line" smooth="yes"/>
      <point x="-10" y="469"/>
      <point x="42" y="414"/>
    </contour>
    <contour>
      <point x="361" y="148" type="line"/>
      <point x="361" y="88" type="line"/>
      <point x="361" y="88" type="line"/>
      <point x="361" y="108"/>
      <point x="361" y="128"/>
      <point x="361" y="148" type="curve"/>
    </contour>
    <contour>
      <point x="361" y="254" type="line"/>
      <point x="361" y="204" type="line"/>
      <point x="361" y="204" type="line"/>
      <point x="361" y="221"/>
      <point x="361" y="237"/>
      <point x="361" y="254" type="curve"/>
    </contour>
    <contour>
      <point x="361" y="336" type="line"/>
      <point x="361" y="297" type="line"/>
      <point x="361" y="297" type="line"/>
      <point x="361" y="297"/>
      <point x="361" y="336"/>
      <point x="361" y="336" type="curve"/>
    </contour>
  </outline>
</glyph>
<glyph name="two" format="2">
  <advance width="480"/>
  <unicode hex="0032"/>
  <outline>
    <contour>
      <point x="427" y="500" type="curve" smooth="yes"/>
      <point x="427" y="625"/>
      <point x="376" y="715"/>
      <point x="233" y="715" type="curve" smooth="yes"/>
      <point x="138" y="715"/>
      <point x="40" y="667"/>
      <point x="40" y="574" type="curve" smooth="yes"/>
      <point x="40" y="529"/>
      <point x="61" y="481"/>
      <point x="106" y="481" type="curve" smooth="yes"/>
      <point x="144" y="481"/>
      <point x="180" y="513"/>
      <point x="265" y="513" type="curve" smooth="yes"/>
      <point x="325" y="513"/>
      <point x="357" y="498"/>
      <point x="357" y="469" type="curve" smooth="yes"/>
      <point x="357" y="432"/>
      <point x="324" y="396"/>
      <point x="274" y="356" type="curve" smooth="yes"/>
      <point x="80" y="199" type="line" smooth="yes"/>
      <point x="-8" y="128"/>
      <point x="36" y="0"/>
      <point x="116" y="0" type="curve" smooth="yes"/>
      <point x="387" y="0" type="line" smooth="yes"/>
      <point x="496" y="0"/>
      <point x="494" y="208"/>
      <point x="385" y="208" type="curve" smooth="yes"/>
      <point x="262" y="208" type="line" smooth="yes"/>
      <point x="238" y="208"/>
      <point x="227" y="229"/>
      <point x="249" y="247" type="curve" smooth="yes"/>
      <point x="338" y="321" type="line" smooth="yes"/>
      <point x="400" y="373"/>
      <point x="427" y="410"/>
    </contour>
    <contour>
      <point x="337" y="665" type="curve" smooth="yes"/>
      <point x="337" y="665"/>
      <point x="337" y="665"/>
      <point x="337" y="665" type="curve" smooth="yes"/>
      <point x="337" y="665"/>
      <point x="337" y="665"/>
      <point x="337" y="665" type="curve" smooth="yes"/>
      <point x="337" y="665"/>
      <point x="337" y="665"/>
      <point x="337" y="665" type="curve" smooth="yes"/>
      <point x="337" y="665"/>
      <point x="337" y="665"/>
    </contour>
    <contour>
      <point x="159" y="596" type="curve" smooth="yes"/>
      <point x="159" y="596"/>
      <point x="159" y="596"/>
      <point x="159" y="596" type="curve" smooth="yes"/>
      <point x="159" y="596"/>
      <point x="159" y="596"/>
      <point x="159" y="596" type="curve" smooth="yes"/>
      <point x="159" y="596"/>
      <point x="159" y="596"/>
      <point x="159" y="596" type="curve" smooth="yes"/>
      <point x="159" y="596"/>
      <point x="159" y="596"/>
    </contour>
    <contour>
      <point x="387" y="524" type="curve" smooth="yes"/>
      <point x="387" y="524"/>
      <point x="387" y="524"/>
      <point x="387" y="524" type="curve" smooth="yes"/>
      <point x="387" y="524"/>
      <point x="387" y="524"/>
      <point x="387" y="524" type="curve" smooth="yes"/>
      <point x="387" y="524"/>
      <point x="387" y="524"/>
      <point x="387" y="524" type="curve" smooth="yes"/>
      <point x="387" y="524"/>
      <point x="387" y="524"/>
    </contour>
    <contour>
      <point x="124" y="589" type="line" smooth="yes"/>
      <point x="88" y="637"/>
      <point x="48" y="598"/>
      <point x="71" y="564" type="curve" smooth="yes"/>
      <point x="87" y="540" type="line" smooth="yes"/>
      <point x="111" y="504"/>
      <point x="161" y="539"/>
      <point x="130" y="581" type="curve" smooth="yes"/>
    </contour>
    <contour>
      <point x="225" y="185" type="line" smooth="yes"/>
      <point x="225" y="208"/>
      <point x="159" y="203"/>
      <point x="160" y="181" type="curve" smooth="yes"/>
      <point x="161" y="166" type="line" smooth="yes"/>
      <point x="163" y="139"/>
      <point x="225" y="142"/>
      <point x="225" y="179" type="curve" smooth="yes"/>
    </contour>
    <contour>
      <point x="313" y="128" type="line" smooth="yes"/>
      <point x="309" y="154"/>
      <point x="266" y="146"/>
      <point x="270" y="120" type="curve" smooth="yes"/>
      <point x="278" y="68" type="line" smooth="yes"/>
      <point x="281" y="47"/>
      <point x="325" y="51"/>
      <point x="321" y="76" type="curve" smooth="yes"/>
    </contour>
    <contour>
      <point x="278" y="334" type="line" smooth="yes"/>
      <point x="260" y="343"/>
      <point x="237" y="311"/>
      <point x="256" y="301" type="curve" smooth="yes"/>
      <point x="273" y="292" type="line" smooth="yes"/>
      <point x="288" y="284"/>
      <point x="311" y="317"/>
      <point x="292" y="327" type="curve" smooth="yes"/>
    </contour>
    <contour>
      <point x="345" y="535" type="curve" smooth="yes"/>
      <point x="354" y="535"/>
      <point x="360" y="542"/>
      <point x="360" y="550" type="curve" smooth="yes"/>
      <point x="360" y="559"/>
      <point x="354" y="565"/>
      <point x="345" y="565" type="curve" smooth="yes"/>
      <point x="337" y="565"/>
      <point x="330" y="559"/>
      <point x="330" y="550" type="curve" smooth="yes"/>
      <point x="330" y="542"/>
      <point x="337" y="535"/>
    </contour>
  </outline>
</glyph>
<glyph name="three" format="2">
  <advance width="486"/>
  <unicode hex="0033"/>
  <outline>
    <contour>
      <point x="216" y="-10" type="curve" smooth="yes"/>
      <point x="396" y="-10"/>
      <point x="453" y="85"/>
      <point x="453" y="224" type="curve" smooth="yes"/>
      <point x="453" y="323"/>
      <point x="416" y="396"/>
      <point x="313" y="396" type="curve" smooth="yes"/>
      <point x="293" y="396"/>
      <point x="285" y="408"/>
      <point x="297" y="424" type="curve" smooth="yes"/>
      <point x="424" y="593" type="line" smooth="yes"/>
      <point x="459" y="640"/>
      <point x="441" y="700"/>
      <point x="386" y="700" type="curve" smooth="yes"/>
      <point x="73" y="700" type="line" smooth="yes"/>
      <point x="25" y="700"/>
      <point x="27" y="633"/>
      <point x="75" y="633" type="curve" smooth="yes"/>
      <point x="205" y="633" type="line" smooth="yes"/>
      <point x="230" y="633"/>
      <point x="236" y="610"/>
      <point x="219" y="587" type="curve" smooth="yes"/>
      <point x="106" y="433" type="line" smooth="yes"/>
      <point x="75" y="391"/>
      <point x="99" y="344"/>
      <point x="143" y="344" type="curve" smooth="yes"/>
      <point x="274" y="344" type="line" smooth="yes"/>
      <point x="361" y="344"/>
      <point x="380" y="303"/>
      <point x="380" y="260" type="curve" smooth="yes"/>
      <point x="380" y="192"/>
      <point x="329" y="163"/>
      <point x="255" y="163" type="curve" smooth="yes"/>
      <point x="182" y="163"/>
      <point x="156" y="198"/>
      <point x="106" y="198" type="curve" smooth="yes"/>
      <point x="68" y="198"/>
      <point x="34" y="168"/>
      <point x="34" y="112" type="curve" smooth="yes"/>
      <point x="34" y="25"/>
      <point x="125" y="-10"/>
    </contour>
    <contour>
      <point x="313" y="112" type="curve" smooth="yes"/>
      <point x="313" y="112"/>
      <point x="313" y="112"/>
      <point x="313" y="112" type="curve" smooth="yes"/>
      <point x="313" y="112"/>
      <point x="313" y="112"/>
      <point x="313" y="112" type="curve" smooth="yes"/>
      <point x="313" y="112"/>
      <point x="313" y="112"/>
      <point x="313" y="112" type="curve" smooth="yes"/>
      <point x="313" y="112"/>
      <point x="313" y="112"/>
    </contour>
    <contour>
      <point x="329" y="62" type="curve" smooth="yes"/>
      <point x="329" y="62"/>
      <point x="329" y="62"/>
      <point x="329" y="62" type="curve" smooth="yes"/>
      <point x="329" y="62"/>
      <point x="329" y="62"/>
      <point x="329" y="62" type="curve" smooth="yes"/>
      <point x="329" y="62"/>
      <point x="329" y="62"/>
      <point x="329" y="62" type="curve" smooth="yes"/>
      <point x="329" y="62"/>
      <point x="329" y="62"/>
    </contour>
    <contour>
      <point x="145" y="700" type="line"/>
      <point x="195" y="700" type="line"/>
      <point x="195" y="700" type="line"/>
      <point x="195" y="700"/>
      <point x="145" y="700"/>
      <point x="145" y="700" type="curve"/>
    </contour>
    <contour>
      <point x="234" y="700" type="line"/>
      <point x="284" y="700" type="line"/>
      <point x="284" y="700" type="line"/>
      <point x="284" y="700"/>
      <point x="234" y="700"/>
      <point x="234" y="700" type="curve"/>
    </contour>
    <contour>
      <point x="396" y="107" type="curve" smooth="yes"/>
      <point x="407" y="107"/>
      <point x="416" y="116"/>
      <point x="416" y="127" type="curve" smooth="yes"/>
      <point x="416" y="138"/>
      <point x="407" y="147"/>
      <point x="396" y="147" type="curve" smooth="yes"/>
      <point x="385" y="147"/>
      <point x="376" y="138"/>
      <point x="376" y="127" type="curve" smooth="yes"/>
      <point x="376" y="116"/>
      <point x="385" y="107"/>
    </contour>
    <contour>
      <point x="188" y="156" type="line" smooth="yes"/>
      <point x="180" y="143"/>
      <point x="212" y="128"/>
      <point x="219" y="143" type="curve" smooth="yes"/>
      <point x="221" y="147" type="line" smooth="yes"/>
      <point x="227" y="160"/>
      <point x="198" y="173"/>
      <point x="191" y="161" type="curve" smooth="yes"/>
    </contour>
    <contour>
      <point x="84" y="687" type="line" smooth="yes"/>
      <point x="67" y="697"/>
      <point x="45" y="663"/>
      <point x="64" y="651" type="curve" smooth="yes"/>
      <point x="77" y="643" type="line" smooth="yes"/>
      <point x="91" y="634"/>
      <point x="116" y="668"/>
      <point x="96" y="680" type="curve" smooth="yes"/>
    </contour>
    <contour>
      <point x="375" y="329" type="line" smooth="yes"/>
      <point x="366" y="322"/>
      <point x="385" y="298"/>
      <point x="397" y="307" type="curve" smooth="yes"/>
      <point x="406" y="314" type="line" smooth="yes"/>
      <point x="418" y="323"/>
      <point x="396" y="346"/>
      <point x="381" y="334" type="curve" smooth="yes"/>
    </contour>
    <contour>
      <point x="299" y="603" type="line" smooth="yes"/>
      <point x="281" y="621"/>
      <point x="252" y="595"/>
      <point x="271" y="578" type="curve" smooth="yes"/>
      <point x="286" y="565" type="line" smooth="yes"/>
      <point x="302" y="551"/>
      <point x="326" y="576"/>
      <point x="311" y="591" type="curve" smooth="yes"/>
    </contour>
  </outline>
</glyph>
<glyph name="four" format="2">
  <advance width="562"/>
  <unicode hex="0034"/>
  <outline>
    <contour>
      <point x="119" y="160" type="curve" smooth="yes"/>
      <point x="526" y="160" type="line" smooth="yes"/>
      <point x="568" y="160"/>
      <point x="568" y="224"/>
      <point x="526" y="224" type="curve" smooth="yes"/>
      <point x="274" y="224" type="line" smooth="yes"/>
      <point x="244" y="224"/>
      <point x="230" y="246"/>
      <point x="248" y="280" type="curve" smooth="yes"/>
      <point x="354" y="474" type="line" smooth="yes"/>
      <point x="374" y="511"/>
      <point x="407" y="500"/>
      <point x="407" y="462" type="curve" smooth="yes"/>
      <point x="407" y="23" type="line" smooth="yes"/>
      <point x="407" y="-22"/>
      <point x="474" y="-23"/>
      <point x="474" y="24" type="curve" smooth="yes"/>
      <point x="474" y="600" type="line" smooth="yes"/>
      <point x="474" y="736"/>
      <point x="275" y="759"/>
      <point x="219" y="651" type="curve" smooth="yes"/>
      <point x="42" y="311" type="line" smooth="yes"/>
      <point x="1" y="232"/>
      <point x="38" y="160"/>
    </contour>
    <contour>
      <point x="441" y="181" type="line" smooth="yes"/>
      <point x="479" y="176"/>
      <point x="481" y="250"/>
      <point x="441" y="246" type="curve" smooth="yes"/>
      <point x="432" y="245" type="line" smooth="yes"/>
      <point x="400" y="241"/>
      <point x="400" y="186"/>
      <point x="433" y="182" type="curve" smooth="yes"/>
    </contour>
    <contour>
      <point x="171" y="559" type="line"/>
      <point x="203" y="620" type="line"/>
      <point x="203" y="620" type="line"/>
      <point x="203" y="620"/>
      <point x="171" y="559"/>
      <point x="171" y="559" type="curve"/>
    </contour>
    <contour>
      <point x="98" y="419" type="line"/>
      <point x="132" y="484" type="line"/>
      <point x="132" y="484" type="line"/>
      <point x="132" y="484"/>
      <point x="98" y="419"/>
      <point x="98" y="419" type="curve"/>
    </contour>
    <contour>
      <point x="193" y="266" type="line" smooth="yes"/>
      <point x="218" y="263"/>
      <point x="220" y="299"/>
      <point x="197" y="301" type="curve" smooth="yes"/>
      <point x="186" y="302" type="line" smooth="yes"/>
      <point x="169" y="304"/>
      <point x="164" y="270"/>
      <point x="185" y="267" type="curve" smooth="yes"/>
    </contour>
    <contour>
      <point x="446" y="301" type="line" smooth="yes"/>
      <point x="470" y="301"/>
      <point x="469" y="352"/>
      <point x="446" y="349" type="curve" smooth="yes"/>
      <point x="430" y="347" type="line" smooth="yes"/>
      <point x="410" y="345"/>
      <point x="413" y="301"/>
      <point x="433" y="301" type="curve" smooth="yes"/>
    </contour>
    <contour>
      <point x="445" y="399" type="line" smooth="yes"/>
      <point x="471" y="397"/>
      <point x="475" y="447"/>
      <point x="452" y="447" type="curve" smooth="yes"/>
      <point x="429" y="447" type="line"/>
      <point x="424" y="401" type="line"/>
    </contour>
    <contour>
      <point x="313" y="399" type="line"/>
      <point x="278" y="336" type="line"/>
      <point x="278" y="336" type="line"/>
      <point x="278" y="336"/>
      <point x="313" y="399"/>
      <point x="313" y="399" type="curve"/>
    </contour>
  </outline>
</glyph>
<glyph name="five" format="2">
  <advance width="469"/>
  <unicode hex="0035"/>
  <outline>
    <contour>
      <point x="43" y="371" type="line" smooth="yes"/>
      <point x="38" y="339"/>
      <point x="56" y="321"/>
      <point x="89" y="321" type="curve" smooth="yes"/>
      <point x="260" y="321" type="line" smooth="yes"/>
      <point x="356" y="321"/>
      <point x="371" y="289"/>
      <point x="371" y="245" type="curve" smooth="yes"/>
      <point x="371" y="201"/>
      <point x="313" y="181"/>
      <point x="242" y="181" type="curve" smooth="yes"/>
      <point x="169" y="181"/>
      <point x="139" y="208"/>
      <point x="91" y="208" type="curve" smooth="yes"/>
      <point x="52" y="208"/>
      <point x="18" y="177"/>
      <point x="18" y="115" type="curve" smooth="yes"/>
      <point x="18" y="21"/>
      <point x="105" y="-10"/>
      <point x="209" y="-10" type="curve" smooth="yes"/>
      <point x="388" y="-10"/>
      <point x="452" y="76"/>
      <point x="452" y="212" type="curve" smooth="yes"/>
      <point x="452" y="329"/>
      <point x="409" y="395"/>
      <point x="268" y="395" type="curve" smooth="yes"/>
      <point x="136" y="395" type="line" smooth="yes"/>
      <point x="120" y="395"/>
      <point x="112" y="399"/>
      <point x="114" y="415" type="curve" smooth="yes"/>
      <point x="120" y="459" type="line" smooth="yes"/>
      <point x="123" y="478"/>
      <point x="138" y="490"/>
      <point x="165" y="490" type="curve" smooth="yes"/>
      <point x="342" y="490" type="line" smooth="yes"/>
      <point x="457" y="490"/>
      <point x="459" y="700"/>
      <point x="344" y="700" type="curve" smooth="yes"/>
      <point x="166" y="700" type="line" smooth="yes"/>
      <point x="117" y="700"/>
      <point x="88" y="678"/>
      <point x="80" y="621" type="curve" smooth="yes"/>
    </contour>
    <contour>
      <point x="165" y="597" type="curve" smooth="yes"/>
      <point x="165" y="597"/>
      <point x="165" y="597"/>
      <point x="165" y="597" type="curve" smooth="yes"/>
      <point x="165" y="597"/>
      <point x="165" y="597"/>
      <point x="165" y="597" type="curve" smooth="yes"/>
      <point x="165" y="597"/>
      <point x="165" y="597"/>
      <point x="165" y="597" type="curve" smooth="yes"/>
      <point x="165" y="597"/>
      <point x="165" y="597"/>
    </contour>
    <contour>
      <point x="74" y="363" type="curve" smooth="yes"/>
      <point x="74" y="363"/>
      <point x="74" y="363"/>
      <point x="74" y="363" type="curve" smooth="yes"/>
      <point x="74" y="363"/>
      <point x="74" y="363"/>
      <point x="74" y="363" type="curve" smooth="yes"/>
      <point x="74" y="363"/>
      <point x="74" y="363"/>
      <point x="74" y="363" type="curve" smooth="yes"/>
      <point x="74" y="363"/>
      <point x="74" y="363"/>
    </contour>
    <contour>
      <point x="106" y="332" type="line" smooth="yes"/>
      <point x="136" y="308"/>
      <point x="171" y="350"/>
      <point x="149" y="376" type="curve" smooth="yes"/>
      <point x="142" y="384" type="line" smooth="yes"/>
      <point x="118" y="412"/>
      <point x="68" y="363"/>
      <point x="101" y="336" type="curve" smooth="yes"/>
    </contour>
    <contour>
      <point x="248" y="569" type="line" smooth="yes"/>
      <point x="235" y="513"/>
      <point x="307" y="513"/>
      <point x="314" y="553" type="curve" smooth="yes"/>
      <point x="320" y="588" type="line" smooth="yes"/>
      <point x="327" y="631"/>
      <point x="265" y="644"/>
      <point x="254" y="595" type="curve" smooth="yes"/>
    </contour>
    <contour>
      <point x="164" y="344" type="line" smooth="yes"/>
      <point x="173" y="306"/>
      <point x="245" y="331"/>
      <point x="235" y="365" type="curve" smooth="yes"/>
      <point x="233" y="372" type="line" smooth="yes"/>
      <point x="222" y="411"/>
      <point x="154" y="384"/>
      <point x="163" y="348" type="curve" smooth="yes"/>
    </contour>
    <contour>
      <point x="308" y="661" type="line" smooth="yes"/>
      <point x="312" y="644"/>
      <point x="338" y="652"/>
      <point x="337" y="670" type="curve" smooth="yes"/>
      <point x="336" y="682" type="line" smooth="yes"/>
      <point x="334" y="700"/>
      <point x="302" y="690"/>
      <point x="305" y="675" type="curve" smooth="yes"/>
    </contour>
    <contour>
      <point x="247" y="667" type="line" smooth="yes"/>
      <point x="247" y="649"/>
      <point x="282" y="651"/>
      <point x="282" y="669" type="curve" smooth="yes"/>
      <point x="282" y="679" type="line" smooth="yes"/>
      <point x="282" y="697"/>
      <point x="247" y="695"/>
      <point x="247" y="680" type="curve" smooth="yes"/>
    </contour>
    <contour>
      <point x="309" y="338" type="line"/>
      <point x="338" y="328" type="line"/>
      <point x="345" y="347" type="line" smooth="yes"/>
      <point x="351" y="363"/>
      <point x="325" y="370"/>
      <point x="318" y="356" type="curve" smooth="yes"/>
    </contour>
    <contour>
      <point x="360" y="328" type="line"/>
      <point x="385" y="304" type="line"/>
      <point x="397" y="316" type="line" smooth="yes"/>
      <point x="410" y="329"/>
      <point x="381" y="353"/>
      <point x="370" y="340" type="curve" smooth="yes"/>
    </contour>
    <contour>
      <point x="184" y="661" type="line"/>
      <point x="215" y="664" type="line"/>
      <point x="217" y="679" type="line" smooth="yes"/>
      <point x="219" y="697"/>
      <point x="180" y="692"/>
      <point x="182" y="677" type="curve" smooth="yes"/>
    </contour>
  </outline>
</glyph>
<glyph name="six" format="2">
  <advance width="503"/>
  <unicode hex="0036"/>
  <outline>
    <contour>
      <point x="202" y="54" type="curve" smooth="yes"/>
      <point x="156" y="54"/>
      <point x="96" y="96"/>
      <point x="96" y="203" type="curve" smooth="yes"/>
      <point x="96" y="314"/>
      <point x="156" y="357"/>
      <point x="202" y="357" type="curve" smooth="yes"/>
      <point x="268" y="357"/>
      <point x="302" y="305"/>
      <point x="302" y="203" type="curve" smooth="yes"/>
      <point x="302" y="105"/>
      <point x="268" y="54"/>
    </contour>
    <contour>
      <point x="243" y="-14" type="curve" smooth="yes"/>
      <point x="403" y="-14"/>
      <point x="493" y="55"/>
      <point x="493" y="204" type="curve" smooth="yes"/>
      <point x="493" y="350"/>
      <point x="394" y="418"/>
      <point x="267" y="418" type="curve" smooth="yes"/>
      <point x="251" y="418"/>
      <point x="230" y="416"/>
      <point x="221" y="414" type="curve" smooth="yes"/>
      <point x="203" y="410"/>
      <point x="196" y="424"/>
      <point x="210" y="443" type="curve" smooth="yes"/>
      <point x="361" y="654" type="line" smooth="yes"/>
      <point x="390" y="695"/>
      <point x="329" y="744"/>
      <point x="297" y="698" type="curve" smooth="yes"/>
      <point x="71" y="374" type="line" smooth="yes"/>
      <point x="36" y="323"/>
      <point x="22" y="263"/>
      <point x="22" y="196" type="curve" smooth="yes"/>
      <point x="22" y="60"/>
      <point x="104" y="-14"/>
    </contour>
    <contour>
      <point x="368" y="137" type="curve" smooth="yes"/>
      <point x="368" y="137"/>
      <point x="368" y="137"/>
      <point x="368" y="137" type="curve" smooth="yes"/>
      <point x="368" y="137"/>
      <point x="368" y="137"/>
      <point x="368" y="137" type="curve" smooth="yes"/>
      <point x="368" y="137"/>
      <point x="368" y="137"/>
      <point x="368" y="137" type="curve" smooth="yes"/>
      <point x="368" y="137"/>
      <point x="368" y="137"/>
    </contour>
    <contour>
      <point x="60" y="137" type="curve" smooth="yes"/>
      <point x="60" y="137"/>
      <point x="60" y="137"/>
      <point x="60" y="137" type="curve" smooth="yes"/>
      <point x="60" y="137"/>
      <point x="60" y="137"/>
      <point x="60" y="137" type="curve" smooth="yes"/>
      <point x="60" y="137"/>
      <point x="60" y="137"/>
      <point x="60" y="137" type="curve" smooth="yes"/>
      <point x="60" y="137"/>
      <point x="60" y="137"/>
    </contour>
    <contour>
      <point x="368" y="36" type="curve" smooth="yes"/>
      <point x="368" y="36"/>
      <point x="368" y="36"/>
      <point x="368" y="36" type="curve" smooth="yes"/>
      <point x="368" y="36"/>
      <point x="368" y="36"/>
      <point x="368" y="36" type="curve" smooth="yes"/>
      <point x="368" y="36"/>
      <point x="368" y="36"/>
      <point x="368" y="36" type="curve" smooth="yes"/>
      <point x="368" y="36"/>
      <point x="368" y="36"/>
    </contour>
    <contour>
      <point x="303" y="632" type="line" smooth="yes"/>
      <point x="333" y="611"/>
      <point x="369" y="661"/>
      <point x="341" y="682" type="curve" smooth="yes"/>
      <point x="329" y="691" type="line" smooth="yes"/>
      <point x="309" y="706"/>
      <point x="265" y="658"/>
      <point x="290" y="641" type="curve" smooth="yes"/>
    </contour>
    <contour>
      <point x="241" y="540" type="line" smooth="yes"/>
      <point x="265" y="519"/>
      <point x="303" y="567"/>
      <point x="278" y="586" type="curve" smooth="yes"/>
      <point x="260" y="600" type="line" smooth="yes"/>
      <point x="236" y="619"/>
      <point x="208" y="570"/>
      <point x="230" y="550" type="curve" smooth="yes"/>
    </contour>
    <contour>
      <point x="131" y="357" type="curve" smooth="yes"/>
      <point x="143" y="357"/>
      <point x="154" y="368"/>
      <point x="154" y="381" type="curve" smooth="yes"/>
      <point x="154" y="393"/>
      <point x="143" y="404"/>
      <point x="131" y="404" type="curve" smooth="yes"/>
      <point x="118" y="404"/>
      <point x="107" y="393"/>
      <point x="107" y="381" type="curve" smooth="yes"/>
      <point x="107" y="368"/>
      <point x="118" y="357"/>
    </contour>
    <contour>
      <point x="175" y="461" type="line"/>
      <point x="197" y="482" type="line"/>
      <point x="190" y="491" type="line" smooth="yes"/>
      <point x="179" y="506"/>
      <point x="153" y="483"/>
      <point x="165" y="471" type="curve" smooth="yes"/>
    </contour>
    <contour>
      <point x="278" y="591" type="line"/>
      <point x="301" y="612" type="line"/>
      <point x="288" y="627" type="line" smooth="yes"/>
      <point x="274" y="643"/>
      <point x="247" y="622"/>
      <point x="262" y="607" type="curve" smooth="yes"/>
    </contour>
    <contour>
      <point x="259" y="379" type="line"/>
      <point x="253" y="369" type="line" smooth="yes"/>
      <point x="244" y="354"/>
      <point x="273" y="339"/>
      <point x="280" y="355" type="curve" smooth="yes"/>
      <point x="285" y="366" type="line"/>
    </contour>
    <contour>
      <point x="320" y="322" type="line"/>
      <point x="308" y="319" type="line" smooth="yes"/>
      <point x="294" y="315"/>
      <point x="302" y="282"/>
      <point x="314" y="285" type="curve" smooth="yes"/>
      <point x="327" y="288" type="line"/>
    </contour>
    <contour>
      <point x="68" y="168" type="line"/>
      <point x="80" y="179" type="line" smooth="yes"/>
      <point x="96" y="193"/>
      <point x="66" y="220"/>
      <point x="54" y="207" type="curve" smooth="yes"/>
      <point x="41" y="192" type="line"/>
    </contour>
  </outline>
</glyph>
<glyph name="seven" format="2">
  <advance width="452"/>
  <unicode hex="0037"/>
  <outline>
    <contour>
      <point x="209" y="8" type="curve" smooth="yes"/>
      <point x="426" y="497" type="line" smooth="yes"/>
      <point x="469" y="593"/>
      <point x="430" y="700"/>
      <point x="345" y="700" type="curve" smooth="yes"/>
      <point x="105" y="700" type="line" smooth="yes"/>
      <point x="-16" y="700"/>
      <point x="-14" y="485"/>
      <point x="107" y="485" type="curve" smooth="yes"/>
      <point x="280" y="485" type="line" smooth="yes"/>
      <point x="318" y="485"/>
      <point x="327" y="464"/>
      <point x="315" y="436" type="curve" smooth="yes"/>
      <point x="141" y="39" type="line" smooth="yes"/>
      <point x="117" y="-15"/>
      <point x="188" y="-38"/>
    </contour>
    <contour>
      <point x="239" y="175" type="line" smooth="yes"/>
      <point x="280" y="152"/>
      <point x="305" y="218"/>
      <point x="281" y="235" type="curve" smooth="yes"/>
      <point x="264" y="247" type="line" smooth="yes"/>
      <point x="241" y="263"/>
      <point x="202" y="196"/>
      <point x="230" y="180" type="curve" smooth="yes"/>
    </contour>
    <contour>
      <point x="312" y="303" type="line" smooth="yes"/>
      <point x="346" y="282"/>
      <point x="358" y="365"/>
      <point x="329" y="377" type="curve" smooth="yes"/>
      <point x="319" y="381" type="line" smooth="yes"/>
      <point x="290" y="393"/>
      <point x="263" y="334"/>
      <point x="293" y="315" type="curve" smooth="yes"/>
    </contour>
    <contour>
      <point x="213" y="700" type="line"/>
      <point x="267" y="700" type="line"/>
      <point x="267" y="700" type="line"/>
      <point x="267" y="700"/>
      <point x="213" y="700"/>
      <point x="213" y="700" type="curve"/>
    </contour>
    <contour>
      <point x="124" y="700" type="line"/>
      <point x="189" y="700" type="line"/>
      <point x="189" y="700" type="line"/>
      <point x="189" y="700"/>
      <point x="124" y="700"/>
      <point x="124" y="700" type="curve"/>
    </contour>
    <contour>
      <point x="209" y="78" type="line"/>
      <point x="239" y="133" type="line"/>
      <point x="222" y="137" type="line" smooth="yes"/>
      <point x="193" y="144"/>
      <point x="173" y="94"/>
      <point x="198" y="83" type="curve" smooth="yes"/>
    </contour>
    <contour>
      <point x="349" y="396" type="line" smooth="yes"/>
      <point x="375" y="383"/>
      <point x="398" y="434"/>
      <point x="369" y="442" type="curve" smooth="yes"/>
      <point x="355" y="446" type="line" smooth="yes"/>
      <point x="326" y="454"/>
      <point x="310" y="415"/>
      <point x="339" y="401" type="curve" smooth="yes"/>
    </contour>
    <contour>
      <point x="293" y="700" type="line"/>
      <point x="340" y="700" type="line"/>
      <point x="340" y="700" type="line"/>
      <point x="340" y="700"/>
      <point x="293" y="700"/>
      <point x="293" y="700" type="curve"/>
    </contour>
  </outline>
</glyph>
<glyph name="eight" format="2">
  <advance width="535"/>
  <unicode hex="0038"/>
  <outline>
    <contour>
      <point x="267" y="335" type="curve" smooth="yes"/>
      <point x="387" y="335"/>
      <point x="488" y="382"/>
      <point x="488" y="522" type="curve" smooth="yes"/>
      <point x="488" y="647"/>
      <point x="415" y="711"/>
      <point x="267" y="711" type="curve" smooth="yes"/>
      <point x="122" y="711"/>
      <point x="47" y="647"/>
      <point x="47" y="522" type="curve" smooth="yes"/>
      <point x="47" y="382"/>
      <point x="152" y="335"/>
    </contour>
    <contour>
      <point x="267" y="-12" type="curve" smooth="yes"/>
      <point x="427" y="-12"/>
      <point x="505" y="56"/>
      <point x="505" y="190" type="curve" smooth="yes"/>
      <point x="505" y="339"/>
      <point x="396" y="390"/>
      <point x="267" y="390" type="curve" smooth="yes"/>
      <point x="143" y="390"/>
      <point x="30" y="339"/>
      <point x="30" y="190" type="curve" smooth="yes"/>
      <point x="30" y="56"/>
      <point x="110" y="-12"/>
    </contour>
    <contour>
      <point x="267" y="395" type="curve" smooth="yes"/>
      <point x="183" y="395"/>
      <point x="119" y="423"/>
      <point x="119" y="470" type="curve" smooth="yes"/>
      <point x="119" y="523"/>
      <point x="175" y="544"/>
      <point x="267" y="544" type="curve" smooth="yes"/>
      <point x="365" y="544"/>
      <point x="415" y="523"/>
      <point x="415" y="470" type="curve" smooth="yes"/>
      <point x="415" y="423"/>
      <point x="356" y="395"/>
    </contour>
    <contour>
      <point x="267" y="165" type="curve" smooth="yes"/>
      <point x="166" y="165"/>
      <point x="107" y="185"/>
      <point x="107" y="233" type="curve" smooth="yes"/>
      <point x="107" y="291"/>
      <point x="177" y="326"/>
      <point x="267" y="326" type="curve" smooth="yes"/>
      <point x="361" y="326"/>
      <point x="427" y="291"/>
      <point x="427" y="233" type="curve" smooth="yes"/>
      <point x="427" y="185"/>
      <point x="373" y="165"/>
    </contour>
    <contour>
      <point x="410" y="328" type="line" smooth="yes"/>
      <point x="425" y="363"/>
      <point x="355" y="389"/>
      <point x="344" y="362" type="curve" smooth="yes"/>
      <point x="341" y="355" type="line" smooth="yes"/>
      <point x="328" y="325"/>
      <point x="393" y="288"/>
      <point x="407" y="321" type="curve" smooth="yes"/>
    </contour>
    <contour>
      <point x="227" y="645" type="line" smooth="yes"/>
      <point x="222" y="688"/>
      <point x="160" y="687"/>
      <point x="161" y="645" type="curve" smooth="yes"/>
      <point x="162" y="605" type="line" smooth="yes"/>
      <point x="163" y="561"/>
      <point x="237" y="563"/>
      <point x="231" y="611" type="curve" smooth="yes"/>
    </contour>
    <contour>
      <point x="379" y="136" type="line" smooth="yes"/>
      <point x="361" y="176"/>
      <point x="302" y="153"/>
      <point x="315" y="112" type="curve" smooth="yes"/>
      <point x="323" y="87" type="line" smooth="yes"/>
      <point x="337" y="44"/>
      <point x="410" y="65"/>
      <point x="390" y="111" type="curve" smooth="yes"/>
    </contour>
    <contour>
      <point x="389" y="377" type="curve" smooth="yes"/>
      <point x="389" y="377"/>
      <point x="389" y="377"/>
      <point x="389" y="377" type="curve" smooth="yes"/>
      <point x="389" y="377"/>
      <point x="389" y="377"/>
      <point x="389" y="377" type="curve" smooth="yes"/>
      <point x="389" y="377"/>
      <point x="389" y="377"/>
      <point x="389" y="377" type="curve" smooth="yes"/>
      <point x="389" y="377"/>
      <point x="389" y="377"/>
    </contour>
    <contour>
      <point x="427" y="423" type="curve" smooth="yes"/>
      <point x="427" y="423"/>
      <point x="427" y="423"/>
      <point x="427" y="423" type="curve" smooth="yes"/>
      <point x="427" y="423"/>
      <point x="427" y="423"/>
      <point x="427" y="423" type="curve" smooth="yes"/>
      <point x="427" y="423"/>
      <point x="427" y="423"/>
      <point x="427" y="423" type="curve" smooth="yes"/>
      <point x="427" y="423"/>
      <point x="427" y="423"/>
    </contour>
    <contour>
      <point x="432" y="396" type="curve" smooth="yes"/>
      <point x="432" y="396"/>
      <point x="432" y="396"/>
      <point x="432" y="396" type="curve" smooth="yes"/>
      <point x="432" y="396"/>
      <point x="432" y="396"/>
      <point x="432" y="396" type="curve" smooth="yes"/>
      <point x="432" y="396"/>
      <point x="432" y="396"/>
      <point x="432" y="396" type="curve" smooth="yes"/>
      <point x="432" y="396"/>
      <point x="432" y="396"/>
    </contour>
    <contour>
      <point x="88" y="482" type="curve" smooth="yes"/>
      <point x="98" y="482"/>
      <point x="105" y="490"/>
      <point x="105" y="500" type="curve" smooth="yes"/>
      <point x="105" y="510"/>
      <point x="98" y="517"/>
      <point x="88" y="517" type="curve" smooth="yes"/>
      <point x="78" y="517"/>
      <point x="70" y="510"/>
      <point x="70" y="500" type="curve" smooth="yes"/>
      <point x="70" y="490"/>
      <point x="78" y="482"/>
    </contour>
    <contour>
      <point x="451" y="207" type="line" smooth="yes"/>
      <point x="434" y="213"/>
      <point x="428" y="182"/>
      <point x="444" y="176" type="curve" smooth="yes"/>
      <point x="455" y="172" type="line" smooth="yes"/>
      <point x="473" y="166"/>
      <point x="480" y="197"/>
      <point x="463" y="203" type="curve" smooth="yes"/>
    </contour>
    <contour>
      <point x="74" y="209" type="line"/>
      <point x="81" y="180" type="line"/>
      <point x="96" y="183" type="line" smooth="yes"/>
      <point x="114" y="187"/>
      <point x="105" y="221"/>
      <point x="90" y="215" type="curve" smooth="yes"/>
    </contour>
    <contour>
      <point x="114" y="332" type="line"/>
      <point x="87" y="307" type="line"/>
      <point x="98" y="296" type="line" smooth="yes"/>
      <point x="111" y="283"/>
      <point x="139" y="309"/>
      <point x="126" y="321" type="curve" smooth="yes"/>
    </contour>
    <contour>
      <point x="129" y="567" type="line" smooth="yes"/>
      <point x="116" y="578"/>
      <point x="91" y="555"/>
      <point x="101" y="543" type="curve" smooth="yes"/>
      <point x="109" y="534" type="line" smooth="yes"/>
      <point x="121" y="521"/>
      <point x="151" y="547"/>
      <point x="140" y="557" type="curve" smooth="yes"/>
    </contour>
    <contour>
      <point x="356" y="599" type="line" smooth="yes"/>
      <point x="364" y="613"/>
      <point x="333" y="627"/>
      <point x="327" y="614" type="curve" smooth="yes"/>
      <point x="321" y="601" type="line" smooth="yes"/>
      <point x="314" y="585"/>
      <point x="341" y="573"/>
      <point x="349" y="587" type="curve" smooth="yes"/>
    </contour>
    <contour>
      <point x="411" y="579" type="line" smooth="yes"/>
      <point x="420" y="596"/>
      <point x="394" y="615"/>
      <point x="385" y="599" type="curve" smooth="yes"/>
      <point x="378" y="587" type="line" smooth="yes"/>
      <point x="368" y="570"/>
      <point x="397" y="553"/>
      <point x="405" y="568" type="curve" smooth="yes"/>
    </contour>
    <contour>
      <point x="87" y="423" type="line"/>
      <point x="112" y="396" type="line"/>
      <point x="125" y="410" type="line" smooth="yes"/>
      <point x="136" y="421"/>
      <point x="110" y="445"/>
      <point x="101" y="436" type="curve" smooth="yes"/>
    </contour>
    <contour>
      <point x="449" y="484" type="line"/>
      <point x="435" y="488" type="line" smooth="yes"/>
      <point x="423" y="491"/>
      <point x="413" y="464"/>
      <point x="426" y="458" type="curve" smooth="yes"/>
      <point x="439" y="452" type="line"/>
    </contour>
  </outline>
</glyph>
<glyph name="nine" format="2">
  <advance width="530"/>
  <unicode hex="0039"/>
  <outline>
    <contour>
      <point x="13" y="486" type="curve" smooth="yes"/>
      <point x="13" y="352"/>
      <point x="105" y="294"/>
      <point x="184" y="294" type="curve" smooth="yes"/>
      <point x="193" y="294"/>
      <point x="200" y="293"/>
      <point x="205" y="291" type="curve" smooth="yes"/>
      <point x="210" y="289"/>
      <point x="213" y="285"/>
      <point x="213" y="280" type="curve" smooth="yes"/>
      <point x="213" y="275"/>
      <point x="211" y="269"/>
      <point x="207" y="261" type="curve" smooth="yes"/>
      <point x="137" y="134" type="line" smooth="yes"/>
      <point x="61" y="-3"/>
      <point x="266" y="-80"/>
      <point x="327" y="33" type="curve" smooth="yes"/>
      <point x="469" y="297" type="line" smooth="yes"/>
      <point x="502" y="359"/>
      <point x="519" y="433"/>
      <point x="519" y="495" type="curve" smooth="yes"/>
      <point x="519" y="630"/>
      <point x="422" y="711"/>
      <point x="256" y="711" type="curve" smooth="yes"/>
      <point x="103" y="711"/>
      <point x="13" y="630"/>
    </contour>
    <contour>
      <point x="83" y="487" type="curve" smooth="yes"/>
      <point x="83" y="584"/>
      <point x="138" y="631"/>
      <point x="200" y="631" type="curve" smooth="yes"/>
      <point x="262" y="631"/>
      <point x="309" y="590"/>
      <point x="309" y="489" type="curve" smooth="yes"/>
      <point x="309" y="392"/>
      <point x="260" y="354"/>
      <point x="202" y="354" type="curve" smooth="yes"/>
      <point x="132" y="354"/>
      <point x="83" y="398"/>
    </contour>
    <contour>
      <point x="387" y="144" type="line"/>
      <point x="354" y="83" type="line"/>
      <point x="354" y="83" type="line"/>
      <point x="365" y="103"/>
      <point x="376" y="124"/>
      <point x="387" y="144" type="curve"/>
    </contour>
    <contour>
      <point x="449" y="260" type="line"/>
      <point x="419" y="204" type="line"/>
      <point x="419" y="204" type="line"/>
      <point x="429" y="223"/>
      <point x="439" y="241"/>
      <point x="449" y="260" type="curve"/>
    </contour>
    <contour>
      <point x="321" y="305" type="curve" smooth="yes"/>
      <point x="341" y="305"/>
      <point x="356" y="320"/>
      <point x="356" y="339" type="curve" smooth="yes"/>
      <point x="356" y="359"/>
      <point x="341" y="374"/>
      <point x="321" y="374" type="curve" smooth="yes"/>
      <point x="302" y="374"/>
      <point x="287" y="359"/>
      <point x="287" y="339" type="curve" smooth="yes"/>
      <point x="287" y="320"/>
      <point x="302" y="305"/>
    </contour>
    <contour>
      <point x="163" y="181" type="line"/>
      <point x="181" y="214" type="line"/>
      <point x="181" y="214" type="line"/>
      <point x="181" y="214"/>
      <point x="163" y="181"/>
      <point x="163" y="181" type="curve"/>
    </contour>
    <contour>
      <point x="132" y="652" type="line" smooth="yes"/>
      <point x="124" y="665"/>
      <point x="98" y="654"/>
      <point x="104" y="641" type="curve" smooth="yes"/>
      <point x="109" y="630" type="line" smooth="yes"/>
      <point x="115" y="618"/>
      <point x="145" y="630"/>
      <point x="138" y="642" type="curve" smooth="yes"/>
    </contour>
    <contour>
      <point x="224" y="659" type="line" smooth="yes"/>
      <point x="226" y="676"/>
      <point x="193" y="677"/>
      <point x="193" y="660" type="curve" smooth="yes"/>
      <point x="193" y="652" type="line" smooth="yes"/>
      <point x="193" y="638"/>
      <point x="222" y="639"/>
      <point x="223" y="651" type="curve" smooth="yes"/>
    </contour>
    <contour>
      <point x="53" y="407" type="line" smooth="yes"/>
      <point x="39" y="400"/>
      <point x="52" y="375"/>
      <point x="66" y="381" type="curve" smooth="yes"/>
      <point x="81" y="388" type="line" smooth="yes"/>
      <point x="95" y="394"/>
      <point x="81" y="421"/>
      <point x="69" y="415" type="curve" smooth="yes"/>
    </contour>
    <contour>
      <point x="291" y="620" type="line" smooth="yes"/>
      <point x="282" y="609"/>
      <point x="301" y="589"/>
      <point x="310" y="600" type="curve" smooth="yes"/>
      <point x="324" y="616" type="line" smooth="yes"/>
      <point x="334" y="628"/>
      <point x="314" y="648"/>
      <point x="305" y="637" type="curve" smooth="yes"/>
    </contour>
    <contour>
      <point x="335" y="522" type="line" smooth="yes"/>
      <point x="322" y="524"/>
      <point x="316" y="496"/>
      <point x="329" y="494" type="curve" smooth="yes"/>
      <point x="346" y="491" type="line"/>
      <point x="351" y="520" type="line"/>
    </contour>
    <contour>
      <point x="72" y="364" type="line" smooth="yes"/>
      <point x="65" y="352"/>
      <point x="94" y="339"/>
      <point x="101" y="349" type="curve" smooth="yes"/>
      <point x="106" y="356" type="line"/>
      <point x="76" y="371" type="line"/>
    </contour>
    <contour>
      <point x="115" y="342" type="line" smooth="yes"/>
      <point x="104" y="330"/>
      <point x="132" y="317"/>
      <point x="139" y="330" type="curve" smooth="yes"/>
      <point x="145" y="341" type="line"/>
      <point x="123" y="351" type="line"/>
    </contour>
    <contour>
      <point x="156" y="318" type="line" smooth="yes"/>
      <point x="154" y="302"/>
      <point x="184" y="303"/>
      <point x="182" y="318" type="curve" smooth="yes"/>
      <point x="180" y="330" type="line"/>
      <point x="157" y="328" type="line"/>
    </contour>
  </outline>
</glyph>
<glyph name="colon" format="2">
  <advance width="266"/>
  <unicode hex="003A"/>
  <outline>
    <contour>
      <point x="134" y="-19" type="curve" smooth="yes"/>
      <point x="179" y="-19"/>
      <point x="216" y="18"/>
      <point x="216" y="65" type="curve" smooth="yes"/>
      <point x="216" y="110"/>
      <point x="179" y="147"/>
      <point x="134" y="147" type="curve" smooth="yes"/>
      <point x="87" y="147"/>
      <point x="50" y="110"/>
      <point x="50" y="65" type="curve" smooth="yes"/>
      <point x="50" y="18"/>
      <point x="87" y="-19"/>
    </contour>
    <contour>
      <point x="134" y="394" type="curve" smooth="yes"/>
      <point x="179" y="394"/>
      <point x="216" y="431"/>
      <point x="216" y="478" type="curve" smooth="yes"/>
      <point x="216" y="523"/>
      <point x="179" y="560"/>
      <point x="134" y="560" type="curve" smooth="yes"/>
      <point x="87" y="560"/>
      <point x="50" y="523"/>
      <point x="50" y="478" type="curve" smooth="yes"/>
      <point x="50" y="431"/>
      <point x="87" y="394"/>
    </contour>
    <contour>
      <point x="136" y="476" type="curve" smooth="yes"/>
      <point x="136" y="476"/>
      <point x="136" y="476"/>
      <point x="136" y="476" type="curve" smooth="yes"/>
      <point x="136" y="476"/>
      <point x="136" y="476"/>
      <point x="136" y="476" type="curve" smooth="yes"/>
      <point x="136" y="476"/>
      <point x="136" y="476"/>
      <point x="136" y="476" type="curve" smooth="yes"/>
      <point x="136" y="476"/>
      <point x="136" y="476"/>
    </contour>
  </outline>
</glyph>
<glyph name="semicolon" format="2">
  <advance width="266"/>
  <unicode hex="003B"/>
  <outline>
    <contour>
      <point x="134" y="396" type="curve" smooth="yes"/>
      <point x="179" y="396"/>
      <point x="216" y="433"/>
      <point x="216" y="480" type="curve" smooth="yes"/>
      <point x="216" y="525"/>
      <point x="179" y="562"/>
      <point x="134" y="562" type="curve" smooth="yes"/>
      <point x="87" y="562"/>
      <point x="50" y="525"/>
      <point x="50" y="480" type="curve" smooth="yes"/>
      <point x="50" y="433"/>
      <point x="87" y="396"/>
    </contour>
    <contour>
      <point x="26" y="-151" type="curve" smooth="yes"/>
      <point x="-4" y="-184"/>
      <point x="44" y="-228"/>
      <point x="79" y="-193" type="curve" smooth="yes"/>
      <point x="143" y="-128"/>
      <point x="216" y="-28"/>
      <point x="216" y="55" type="curve" smooth="yes"/>
      <point x="216" y="110"/>
      <point x="179" y="147"/>
      <point x="134" y="147" type="curve" smooth="yes"/>
      <point x="87" y="147"/>
      <point x="50" y="110"/>
      <point x="50" y="61" type="curve" smooth="yes"/>
      <point x="50" y="33"/>
      <point x="62" y="11"/>
      <point x="86" y="-1" type="curve" smooth="yes"/>
      <point x="102" y="-9"/>
      <point x="110" y="-26"/>
      <point x="101" y="-48" type="curve" smooth="yes"/>
      <point x="88" y="-80"/>
      <point x="58" y="-116"/>
    </contour>
    <contour>
      <point x="132" y="66" type="curve" smooth="yes"/>
      <point x="132" y="66"/>
      <point x="132" y="66"/>
      <point x="132" y="66" type="curve" smooth="yes"/>
      <point x="132" y="66"/>
      <point x="132" y="66"/>
      <point x="132" y="66" type="curve" smooth="yes"/>
      <point x="132" y="66"/>
      <point x="132" y="66"/>
      <point x="132" y="66" type="curve" smooth="yes"/>
      <point x="132" y="66"/>
      <point x="132" y="66"/>
    </contour>
  </outline>
</glyph>
<glyph name="less" format="2">
  <advance width="407"/>
  <unicode hex="003C"/>
  <outline>
    <contour>
      <point x="317" y="76" type="line" smooth="yes"/>
      <point x="366" y="42"/>
      <point x="404" y="112"/>
      <point x="358" y="142" type="curve" smooth="yes"/>
      <point x="127" y="292" type="line" smooth="yes"/>
      <point x="105" y="306"/>
      <point x="105" y="328"/>
      <point x="127" y="342" type="curve" smooth="yes"/>
      <point x="358" y="492" type="line" smooth="yes"/>
      <point x="404" y="522"/>
      <point x="366" y="592"/>
      <point x="317" y="558" type="curve" smooth="yes"/>
      <point x="59" y="380" type="line" smooth="yes"/>
      <point x="13" y="348"/>
      <point x="14" y="285"/>
      <point x="59" y="254" type="curve" smooth="yes"/>
    </contour>
  </outline>
</glyph>
<glyph name="equal" format="2">
  <advance width="383"/>
  <unicode hex="003D"/>
  <outline>
    <contour>
      <point x="53" y="438" type="line" smooth="yes"/>
      <point x="9" y="438"/>
      <point x="9" y="369"/>
      <point x="53" y="369" type="curve" smooth="yes"/>
      <point x="327" y="369" type="line" smooth="yes"/>
      <point x="374" y="369"/>
      <point x="375" y="438"/>
      <point x="327" y="438" type="curve" smooth="yes"/>
    </contour>
    <contour>
      <point x="53" y="287" type="line" smooth="yes"/>
      <point x="9" y="287"/>
      <point x="9" y="218"/>
      <point x="53" y="218" type="curve" smooth="yes"/>
      <point x="327" y="218" type="line" smooth="yes"/>
      <point x="374" y="218"/>
      <point x="375" y="287"/>
      <point x="327" y="287" type="curve" smooth="yes"/>
    </contour>
  </outline>
</glyph>
<glyph name="greater" format="2">
  <advance width="407"/>
  <unicode hex="003E"/>
  <outline>
    <contour>
      <point x="87" y="76" type="curve" smooth="yes"/>
      <point x="345" y="254" type="line" smooth="yes"/>
      <point x="391" y="286"/>
      <point x="390" y="349"/>
      <point x="345" y="380" type="curve" smooth="yes"/>
      <point x="87" y="558" type="line" smooth="yes"/>
      <point x="38" y="592"/>
      <point x="0" y="522"/>
      <point x="46" y="492" type="curve" smooth="yes"/>
      <point x="277" y="342" type="line" smooth="yes"/>
      <point x="299" y="328"/>
      <point x="299" y="306"/>
      <point x="277" y="292" type="curve" smooth="yes"/>
      <point x="46" y="142" type="line" smooth="yes"/>
      <point x="0" y="112"/>
      <point x="38" y="42"/>
    </contour>
  </outline>
</glyph>
<glyph name="question" format="2">
  <advance width="396"/>
  <unicode hex="003F"/>
  <outline>
    <contour>
      <point x="193" y="-19" type="curve" smooth="yes"/>
      <point x="238" y="-19"/>
      <point x="275" y="18"/>
      <point x="275" y="65" type="curve" smooth="yes"/>
      <point x="275" y="110"/>
      <point x="238" y="147"/>
      <point x="193" y="147" type="curve" smooth="yes"/>
      <point x="146" y="147"/>
      <point x="109" y="110"/>
      <point x="109" y="65" type="curve" smooth="yes"/>
      <point x="109" y="18"/>
      <point x="146" y="-19"/>
    </contour>
    <contour>
      <point x="183" y="229" type="curve" smooth="yes"/>
      <point x="338" y="338"/>
      <point x="383" y="421"/>
      <point x="383" y="524" type="curve" smooth="yes"/>
      <point x="383" y="658"/>
      <point x="299" y="712"/>
      <point x="195" y="712" type="curve" smooth="yes"/>
      <point x="92" y="712"/>
      <point x="11" y="675"/>
      <point x="11" y="591" type="curve" smooth="yes"/>
      <point x="11" y="542"/>
      <point x="42" y="507"/>
      <point x="84" y="507" type="curve" smooth="yes"/>
      <point x="118" y="507"/>
      <point x="150" y="523"/>
      <point x="206" y="523" type="curve" smooth="yes"/>
      <point x="259" y="523"/>
      <point x="289" y="510"/>
      <point x="289" y="466" type="curve" smooth="yes"/>
      <point x="289" y="425"/>
      <point x="259" y="361"/>
      <point x="149" y="280" type="curve" smooth="yes"/>
      <point x="138" y="272"/>
      <point x="134" y="263"/>
      <point x="134" y="254" type="curve" smooth="yes"/>
      <point x="134" y="237"/>
      <point x="147" y="222"/>
      <point x="165" y="222" type="curve" smooth="yes"/>
      <point x="171" y="222"/>
      <point x="177" y="225"/>
    </contour>
    <contour>
      <point x="130" y="597" type="line" smooth="yes"/>
      <point x="115" y="627"/>
      <point x="70" y="604"/>
      <point x="79" y="572" type="curve" smooth="yes"/>
      <point x="94" y="520" type="line"/>
      <point x="152" y="552" type="line"/>
    </contour>
    <contour>
      <point x="243" y="663" type="line" smooth="yes"/>
      <point x="260" y="708"/>
      <point x="172" y="718"/>
      <point x="174" y="673" type="curve" smooth="yes"/>
      <point x="176" y="627" type="line"/>
      <point x="227" y="622" type="line"/>
    </contour>
    <contour>
      <point x="354" y="576" type="line" smooth="yes"/>
      <point x="386" y="601"/>
      <point x="337" y="665"/>
      <point x="305" y="619" type="curve" smooth="yes"/>
      <point x="294" y="603" type="line"/>
      <point x="335" y="561" type="line"/>
    </contour>
    <contour>
      <point x="295" y="498" type="line"/>
      <point x="299" y="438" type="line"/>
      <point x="316" y="437" type="line" smooth="yes"/>
      <point x="349" y="435"/>
      <point x="347" y="501"/>
      <point x="315" y="499" type="curve" smooth="yes"/>
    </contour>
    <contour>
      <point x="276" y="409" type="line"/>
      <point x="245" y="357" type="line"/>
      <point x="256" y="347" type="line" smooth="yes"/>
      <point x="281" y="324"/>
      <point x="318" y="369"/>
      <point x="295" y="391" type="curve" smooth="yes"/>
    </contour>
    <contour>
      <point x="182" y="260" type="curve" smooth="yes"/>
      <point x="182" y="260"/>
      <point x="182" y="260"/>
      <point x="182" y="260" type="curve" smooth="yes"/>
      <point x="182" y="260"/>
      <point x="182" y="260"/>
      <point x="182" y="260" type="curve" smooth="yes"/>
      <point x="182" y="260"/>
      <point x="182" y="260"/>
      <point x="182" y="260" type="curve" smooth="yes"/>
      <point x="182" y="260"/>
      <point x="182" y="260"/>
    </contour>
    <contour>
      <point x="240" y="329" type="curve" smooth="yes"/>
      <point x="240" y="329"/>
      <point x="240" y="329"/>
      <point x="240" y="329" type="curve" smooth="yes"/>
      <point x="240" y="329"/>
      <point x="240" y="329"/>
      <point x="240" y="329" type="curve" smooth="yes"/>
      <point x="240" y="329"/>
      <point x="240" y="329"/>
      <point x="240" y="329" type="curve" smooth="yes"/>
      <point x="240" y="329"/>
      <point x="240" y="329"/>
    </contour>
    <contour>
      <point x="164" y="628" type="line" smooth="yes"/>
      <point x="161" y="644"/>
      <point x="120" y="634"/>
      <point x="125" y="616" type="curve" smooth="yes"/>
      <point x="129" y="602" type="line" smooth="yes"/>
      <point x="134" y="584"/>
      <point x="170" y="595"/>
      <point x="167" y="612" type="curve" smooth="yes"/>
    </contour>
    <contour>
      <point x="338" y="511" type="line" smooth="yes"/>
      <point x="356" y="519"/>
      <point x="337" y="560"/>
      <point x="319" y="550" type="curve" smooth="yes"/>
      <point x="308" y="544" type="line" smooth="yes"/>
      <point x="290" y="534"/>
      <point x="308" y="498"/>
      <point x="324" y="505" type="curve" smooth="yes"/>
    </contour>
  </outline>
</glyph>
<glyph name="at" format="2">
  <advance width="746"/>
  <unicode hex="0040"/>
  <outline>
    <contour>
      <point x="377" y="-22" type="curve" smooth="yes"/>
      <point x="439" y="-22"/>
      <point x="523" y="-9"/>
      <point x="561" y="10" type="curve" smooth="yes"/>
      <point x="595" y="27"/>
      <point x="572" y="84"/>
      <point x="540" y="69" type="curve" smooth="yes"/>
      <point x="501" y="51"/>
      <point x="438" y="41"/>
      <point x="377" y="41" type="curve" smooth="yes"/>
      <point x="232" y="41"/>
      <point x="101" y="104"/>
      <point x="101" y="339" type="curve" smooth="yes"/>
      <point x="101" y="569"/>
      <point x="227" y="657"/>
      <point x="377" y="657" type="curve" smooth="yes"/>
      <point x="545" y="657"/>
      <point x="645" y="570"/>
      <point x="645" y="384" type="curve" smooth="yes"/>
      <point x="645" y="253"/>
      <point x="628" y="198"/>
      <point x="586" y="198" type="curve" smooth="yes"/>
      <point x="556" y="198"/>
      <point x="536" y="216"/>
      <point x="536" y="274" type="curve" smooth="yes"/>
      <point x="536" y="449" type="line" smooth="yes"/>
      <point x="536" y="518"/>
      <point x="495" y="564"/>
      <point x="376" y="564" type="curve" smooth="yes"/>
      <point x="272" y="564"/>
      <point x="196" y="503"/>
      <point x="196" y="349" type="curve" smooth="yes"/>
      <point x="196" y="195"/>
      <point x="266" y="134"/>
      <point x="365" y="134" type="curve" smooth="yes"/>
      <point x="413" y="134"/>
      <point x="460" y="148"/>
      <point x="484" y="186" type="curve" smooth="yes"/>
      <point x="487" y="191"/>
      <point x="496" y="191"/>
      <point x="499" y="186" type="curve" smooth="yes"/>
      <point x="517" y="155"/>
      <point x="549" y="139"/>
      <point x="582" y="139" type="curve" smooth="yes"/>
      <point x="664" y="139"/>
      <point x="711" y="200"/>
      <point x="711" y="388" type="curve" smooth="yes"/>
      <point x="711" y="608"/>
      <point x="575" y="720"/>
      <point x="377" y="720" type="curve" smooth="yes"/>
      <point x="196" y="720"/>
      <point x="35" y="613"/>
      <point x="35" y="339" type="curve" smooth="yes"/>
      <point x="35" y="74"/>
      <point x="182" y="-22"/>
    </contour>
    <contour>
      <point x="382" y="349" type="curve" smooth="yes"/>
      <point x="382" y="457"/>
      <point x="402" y="499"/>
      <point x="429" y="499" type="curve" smooth="yes"/>
      <point x="453" y="499"/>
      <point x="468" y="483"/>
      <point x="468" y="441" type="curve" smooth="yes"/>
      <point x="468" y="251" type="line" smooth="yes"/>
      <point x="468" y="213"/>
      <point x="453" y="199"/>
      <point x="429" y="199" type="curve" smooth="yes"/>
      <point x="402" y="199"/>
      <point x="382" y="233"/>
    </contour>
    <contour>
      <point x="506" y="28" type="line" smooth="yes"/>
      <point x="499" y="60"/>
      <point x="442" y="46"/>
      <point x="449" y="13" type="curve" smooth="yes"/>
      <point x="451" y="4" type="line" smooth="yes"/>
      <point x="457" y="-22"/>
      <point x="516" y="-15"/>
      <point x="508" y="19" type="curve" smooth="yes"/>
    </contour>
    <contour>
      <point x="404" y="187" type="line" smooth="yes"/>
      <point x="411" y="217"/>
      <point x="345" y="224"/>
      <point x="342" y="192" type="curve" smooth="yes"/>
      <point x="340" y="170" type="line" smooth="yes"/>
      <point x="337" y="138"/>
      <point x="390" y="127"/>
      <point x="399" y="165" type="curve" smooth="yes"/>
    </contour>
    <contour>
      <point x="363" y="500" type="curve" smooth="yes"/>
      <point x="363" y="500"/>
      <point x="363" y="500"/>
      <point x="363" y="500" type="curve" smooth="yes"/>
      <point x="363" y="500"/>
      <point x="363" y="500"/>
      <point x="363" y="500" type="curve" smooth="yes"/>
      <point x="363" y="500"/>
      <point x="363" y="500"/>
      <point x="363" y="500" type="curve" smooth="yes"/>
      <point x="363" y="500"/>
      <point x="363" y="500"/>
    </contour>
    <contour>
      <point x="323" y="385" type="curve" smooth="yes"/>
      <point x="323" y="385"/>
      <point x="323" y="385"/>
      <point x="323" y="385" type="curve" smooth="yes"/>
      <point x="323" y="385"/>
      <point x="323" y="385"/>
      <point x="323" y="385" type="curve" smooth="yes"/>
      <point x="323" y="385"/>
      <point x="323" y="385"/>
      <point x="323" y="385" type="curve" smooth="yes"/>
      <point x="323" y="385"/>
      <point x="323" y="385"/>
    </contour>
    <contour>
      <point x="543" y="655" type="line" smooth="yes"/>
      <point x="556" y="674"/>
      <point x="514" y="704"/>
      <point x="504" y="682" type="curve" smooth="yes"/>
      <point x="498" y="669" type="line" smooth="yes"/>
      <point x="489" y="649"/>
      <point x="522" y="625"/>
      <point x="534" y="642" type="curve" smooth="yes"/>
    </contour>
    <contour>
      <point x="618" y="600" type="line" smooth="yes"/>
      <point x="639" y="621"/>
      <point x="599" y="659"/>
      <point x="578" y="638" type="curve" smooth="yes"/>
      <point x="569" y="629" type="line" smooth="yes"/>
      <point x="550" y="610"/>
      <point x="592" y="574"/>
      <point x="612" y="594" type="curve" smooth="yes"/>
    </contour>
    <contour>
      <point x="169" y="636" type="line" smooth="yes"/>
      <point x="155" y="649"/>
      <point x="124" y="616"/>
      <point x="137" y="603" type="curve" smooth="yes"/>
      <point x="155" y="584" type="line" smooth="yes"/>
      <point x="167" y="572"/>
      <point x="200" y="607"/>
      <point x="186" y="620" type="curve" smooth="yes"/>
    </contour>
  </outline>
</glyph>
<glyph name="A" format="2">
  <advance width="567"/>
  <unicode hex="0041"/>
  <anchor x="541" y="0" name="ogonek"/>
  <anchor x="275" y="700" name="top"/>
  <outline>
    <contour>
      <point x="486" y="19" type="line" smooth="yes"/>
      <point x="499" y="-31"/>
      <point x="568" y="-14"/>
      <point x="556" y="30" type="curve" smooth="yes"/>
      <point x="396" y="627" type="line" smooth="yes"/>
      <point x="380" y="686"/>
      <point x="324" y="715"/>
      <point x="275" y="716" type="curve" smooth="yes"/>
      <point x="226" y="717"/>
      <point x="177" y="689"/>
      <point x="162" y="635" type="curve" smooth="yes"/>
      <point x="15" y="105" type="line" smooth="yes"/>
      <point x="-23" y="-33"/>
      <point x="176" y="-65"/>
      <point x="205" y="45" type="curve" smooth="yes"/>
      <point x="308" y="439" type="line" smooth="yes"/>
      <point x="313" y="459"/>
      <point x="326" y="469"/>
      <point x="342" y="469" type="curve" smooth="yes"/>
      <point x="358" y="469"/>
      <point x="370" y="456"/>
      <point x="376" y="432" type="curve" smooth="yes"/>
    </contour>
    <contour>
      <point x="164" y="239" type="line"/>
      <point x="213" y="240" type="line" smooth="yes"/>
      <point x="253" y="241"/>
      <point x="246" y="296"/>
      <point x="207" y="294" type="curve" smooth="yes"/>
      <point x="183" y="293" type="line"/>
    </contour>
    <contour>
      <point x="479" y="242" type="line"/>
      <point x="473" y="277" type="line"/>
      <point x="451" y="277" type="line" smooth="yes"/>
      <point x="429" y="277"/>
      <point x="431" y="239"/>
      <point x="451" y="240" type="curve" smooth="yes"/>
    </contour>
    <contour>
      <point x="153" y="159" type="line"/>
      <point x="477" y="159" type="line"/>
      <point x="457" y="226" type="line"/>
      <point x="169" y="225" type="line"/>
    </contour>
    <contour>
      <point x="165" y="98" type="line"/>
      <point x="193" y="98" type="line" smooth="yes"/>
      <point x="220" y="98"/>
      <point x="220" y="135"/>
      <point x="192" y="134" type="curve" smooth="yes"/>
      <point x="167" y="133" type="line"/>
    </contour>
    <contour>
      <point x="186" y="500" type="line"/>
      <point x="208" y="577" type="line"/>
      <point x="188" y="581" type="line" smooth="yes"/>
      <point x="140" y="591"/>
      <point x="132" y="505"/>
      <point x="166" y="502" type="curve" smooth="yes"/>
    </contour>
    <contour>
      <point x="160" y="435" type="line"/>
      <point x="171" y="467" type="line"/>
      <point x="157" y="472" type="line" smooth="yes"/>
      <point x="137" y="479"/>
      <point x="127" y="444"/>
      <point x="149" y="438" type="curve" smooth="yes"/>
    </contour>
    <contour>
      <point x="118" y="264" type="line"/>
      <point x="137" y="332" type="line"/>
      <point x="121" y="336" type="line" smooth="yes"/>
      <point x="78" y="347"/>
      <point x="62" y="271"/>
      <point x="102" y="266" type="curve" smooth="yes"/>
    </contour>
    <contour>
      <point x="443" y="454" type="line"/>
      <point x="443" y="454"/>
      <point x="432" y="494"/>
      <point x="432" y="494" type="curve"/>
      <point x="432" y="494" type="line"/>
      <point x="443" y="454" type="line"/>
    </contour>
    <contour>
      <point x="424" y="525" type="line"/>
      <point x="424" y="525"/>
      <point x="409" y="581"/>
      <point x="409" y="581" type="curve"/>
      <point x="409" y="581" type="line"/>
      <point x="424" y="525" type="line"/>
    </contour>
  </outline>
</glyph>
<glyph name="B" format="2">
  <advance width="559"/>
  <unicode hex="0042"/>
  <anchor x="278" y="0" name="bottom"/>
  <anchor x="265" y="700" name="top"/>
  <outline>
    <contour>
      <point x="60" y="97" type="line" smooth="yes"/>
      <point x="60" y="32"/>
      <point x="82" y="0"/>
      <point x="144" y="0" type="curve" smooth="yes"/>
      <point x="305" y="0" type="line" smooth="yes"/>
      <point x="449" y="0"/>
      <point x="531" y="72"/>
      <point x="531" y="206" type="curve" smooth="yes"/>
      <point x="531" y="317"/>
      <point x="463" y="372"/>
      <point x="404" y="379" type="curve" smooth="yes"/>
      <point x="390" y="381"/>
      <point x="388" y="394"/>
      <point x="404" y="401" type="curve" smooth="yes"/>
      <point x="445" y="419"/>
      <point x="488" y="465"/>
      <point x="488" y="546" type="curve" smooth="yes"/>
      <point x="488" y="661"/>
      <point x="401" y="705"/>
      <point x="315" y="705" type="curve" smooth="yes"/>
      <point x="144" y="705" type="line" smooth="yes"/>
      <point x="91" y="705"/>
      <point x="60" y="679"/>
      <point x="60" y="613" type="curve" smooth="yes"/>
    </contour>
    <contour>
      <point x="319" y="638" type="line" smooth="yes"/>
      <point x="382" y="638"/>
      <point x="415" y="607"/>
      <point x="415" y="546" type="curve" smooth="yes"/>
      <point x="415" y="473"/>
      <point x="361" y="409"/>
      <point x="301" y="409" type="curve" smooth="yes"/>
      <point x="290" y="409" type="line" smooth="yes"/>
      <point x="266" y="409"/>
      <point x="257" y="423"/>
      <point x="257" y="444" type="curve" smooth="yes"/>
      <point x="257" y="600" type="line" smooth="yes"/>
      <point x="257" y="629"/>
      <point x="274" y="638"/>
      <point x="305" y="638" type="curve" smooth="yes"/>
    </contour>
    <contour>
      <point x="257" y="126" type="curve" smooth="yes"/>
      <point x="257" y="312" type="line" smooth="yes"/>
      <point x="257" y="332"/>
      <point x="266" y="345"/>
      <point x="290" y="345" type="curve" smooth="yes"/>
      <point x="301" y="345" type="line" smooth="yes"/>
      <point x="412" y="345"/>
      <point x="458" y="297"/>
      <point x="458" y="206" type="curve" smooth="yes"/>
      <point x="458" y="100"/>
      <point x="397" y="67"/>
      <point x="319" y="67" type="curve" smooth="yes"/>
      <point x="310" y="67" type="line" smooth="yes"/>
      <point x="273" y="67"/>
      <point x="257" y="79"/>
    </contour>
    <contour>
      <point x="491" y="249" type="curve" smooth="yes"/>
      <point x="491" y="249"/>
      <point x="491" y="249"/>
      <point x="491" y="249" type="curve" smooth="yes"/>
      <point x="491" y="249"/>
      <point x="491" y="249"/>
      <point x="491" y="249" type="curve" smooth="yes"/>
      <point x="491" y="249"/>
      <point x="491" y="249"/>
      <point x="491" y="249" type="curve" smooth="yes"/>
      <point x="491" y="249"/>
      <point x="491" y="249"/>
    </contour>
    <contour>
      <point x="499" y="153" type="curve" smooth="yes"/>
      <point x="499" y="153"/>
      <point x="499" y="153"/>
      <point x="499" y="153" type="curve" smooth="yes"/>
      <point x="499" y="153"/>
      <point x="499" y="153"/>
      <point x="499" y="153" type="curve" smooth="yes"/>
      <point x="499" y="153"/>
      <point x="499" y="153"/>
      <point x="499" y="153" type="curve" smooth="yes"/>
      <point x="499" y="153"/>
      <point x="499" y="153"/>
    </contour>
    <contour>
      <point x="474" y="131" type="curve" smooth="yes"/>
      <point x="474" y="131"/>
      <point x="474" y="131"/>
      <point x="474" y="131" type="curve" smooth="yes"/>
      <point x="474" y="131"/>
      <point x="474" y="131"/>
      <point x="474" y="131" type="curve" smooth="yes"/>
      <point x="474" y="131"/>
      <point x="474" y="131"/>
      <point x="474" y="131" type="curve" smooth="yes"/>
      <point x="474" y="131"/>
      <point x="474" y="131"/>
    </contour>
    <contour>
      <point x="220" y="671" type="line" smooth="yes"/>
      <point x="226" y="711"/>
      <point x="144" y="697"/>
      <point x="154" y="660" type="curve" smooth="yes"/>
      <point x="162" y="629" type="line"/>
      <point x="215" y="640" type="line"/>
    </contour>
    <contour>
      <point x="279" y="679" type="line" smooth="yes"/>
      <point x="279" y="702"/>
      <point x="230" y="702"/>
      <point x="231" y="683" type="curve" smooth="yes"/>
      <point x="232" y="666" type="line" smooth="yes"/>
      <point x="233" y="642"/>
      <point x="279" y="640"/>
      <point x="279" y="664" type="curve" smooth="yes"/>
    </contour>
    <contour>
      <point x="357" y="664" type="line" smooth="yes"/>
      <point x="368" y="701"/>
      <point x="293" y="708"/>
      <point x="297" y="672" type="curve" smooth="yes"/>
      <point x="299" y="655" type="line"/>
      <point x="353" y="651" type="line"/>
    </contour>
    <contour>
      <point x="409" y="651" type="line" smooth="yes"/>
      <point x="423" y="677"/>
      <point x="370" y="693"/>
      <point x="367" y="666" type="curve" smooth="yes"/>
      <point x="365" y="649" type="line"/>
      <point x="402" y="638" type="line"/>
    </contour>
    <contour>
      <point x="450" y="592" type="line" smooth="yes"/>
      <point x="485" y="609"/>
      <point x="441" y="671"/>
      <point x="415" y="638" type="curve" smooth="yes"/>
      <point x="407" y="628" type="line"/>
      <point x="438" y="586" type="line"/>
    </contour>
    <contour>
      <point x="466" y="544" type="line" smooth="yes"/>
      <point x="487" y="545"/>
      <point x="481" y="588"/>
      <point x="458" y="584" type="curve" smooth="yes"/>
      <point x="432" y="579" type="line" smooth="yes"/>
      <point x="412" y="575"/>
      <point x="418" y="541"/>
      <point x="436" y="542" type="curve" smooth="yes"/>
    </contour>
    <contour>
      <point x="436" y="464" type="line" smooth="yes"/>
      <point x="466" y="462"/>
      <point x="484" y="528"/>
      <point x="438" y="524" type="curve" smooth="yes"/>
      <point x="427" y="523" type="line"/>
      <point x="424" y="465" type="line"/>
    </contour>
    <contour>
      <point x="197" y="73" type="line" smooth="yes"/>
      <point x="213" y="81"/>
      <point x="199" y="113"/>
      <point x="182" y="106" type="curve" smooth="yes"/>
      <point x="133" y="86" type="line" smooth="yes"/>
      <point x="113" y="78"/>
      <point x="127" y="39"/>
      <point x="146" y="48" type="curve" smooth="yes"/>
    </contour>
    <contour>
      <point x="329" y="38" type="line" smooth="yes"/>
      <point x="339" y="59"/>
      <point x="296" y="72"/>
      <point x="289" y="51" type="curve" smooth="yes"/>
      <point x="280" y="29" type="line" smooth="yes"/>
      <point x="274" y="9"/>
      <point x="308" y="-4"/>
      <point x="316" y="14" type="curve" smooth="yes"/>
    </contour>
    <contour>
      <point x="214" y="12" type="curve" smooth="yes"/>
      <point x="227" y="12"/>
      <point x="237" y="22"/>
      <point x="237" y="35" type="curve" smooth="yes"/>
      <point x="237" y="48"/>
      <point x="227" y="59"/>
      <point x="214" y="59" type="curve" smooth="yes"/>
      <point x="201" y="59"/>
      <point x="190" y="48"/>
      <point x="190" y="35" type="curve" smooth="yes"/>
      <point x="190" y="22"/>
      <point x="201" y="12"/>
    </contour>
  </outline>
</glyph>
<glyph name="C" format="2">
  <advance width="512"/>
  <unicode hex="0043"/>
  <anchor x="249" y="0" name="cedilla"/>
  <anchor x="292" y="700" name="top"/>
  <outline>
    <contour>
      <point x="35" y="350" type="curve" smooth="yes"/>
      <point x="35" y="107"/>
      <point x="141" y="-12"/>
      <point x="300" y="-12" type="curve" smooth="yes"/>
      <point x="360" y="-12"/>
      <point x="407" y="7"/>
      <point x="452" y="48" type="curve" smooth="yes"/>
      <point x="511" y="102"/>
      <point x="504" y="241"/>
      <point x="396" y="241" type="curve" smooth="yes"/>
      <point x="359" y="241"/>
      <point x="305" y="191"/>
      <point x="230" y="191" type="curve" smooth="yes"/>
      <point x="147" y="191"/>
      <point x="99" y="228"/>
      <point x="99" y="350" type="curve" smooth="yes"/>
      <point x="99" y="471"/>
      <point x="147" y="507"/>
      <point x="230" y="507" type="curve" smooth="yes"/>
      <point x="305" y="507"/>
      <point x="359" y="457"/>
      <point x="396" y="457" type="curve" smooth="yes"/>
      <point x="504" y="457"/>
      <point x="511" y="598"/>
      <point x="452" y="652" type="curve" smooth="yes"/>
      <point x="407" y="693"/>
      <point x="360" y="712"/>
      <point x="300" y="712" type="curve" smooth="yes"/>
      <point x="141" y="712"/>
      <point x="35" y="593"/>
    </contour>
    <contour>
      <point x="91" y="191" type="curve" smooth="yes"/>
      <point x="105" y="191"/>
      <point x="116" y="202"/>
      <point x="116" y="218" type="curve" smooth="yes"/>
      <point x="116" y="232"/>
      <point x="105" y="243"/>
      <point x="91" y="243" type="curve" smooth="yes"/>
      <point x="75" y="243"/>
      <point x="64" y="232"/>
      <point x="64" y="218" type="curve" smooth="yes"/>
      <point x="64" y="202"/>
      <point x="75" y="191"/>
    </contour>
    <contour>
      <point x="79" y="206" type="curve" smooth="yes"/>
      <point x="79" y="206"/>
      <point x="79" y="206"/>
      <point x="79" y="206" type="curve" smooth="yes"/>
      <point x="79" y="206"/>
      <point x="79" y="206"/>
      <point x="79" y="206" type="curve" smooth="yes"/>
      <point x="79" y="206"/>
      <point x="79" y="206"/>
      <point x="79" y="206" type="curve" smooth="yes"/>
      <point x="79" y="206"/>
      <point x="79" y="206"/>
    </contour>
    <contour>
      <point x="222" y="191" type="line"/>
      <point x="205" y="191"/>
      <point x="196" y="193"/>
      <point x="181" y="197" type="curve"/>
      <point x="181" y="197" type="line"/>
      <point x="196" y="193"/>
      <point x="205" y="191"/>
      <point x="222" y="191" type="curve"/>
    </contour>
    <contour>
      <point x="257" y="193" type="line"/>
      <point x="248" y="192"/>
      <point x="238" y="191"/>
      <point x="232" y="191" type="curve"/>
      <point x="232" y="191" type="line"/>
      <point x="238" y="191"/>
      <point x="248" y="192"/>
      <point x="257" y="193" type="curve"/>
    </contour>
    <contour>
      <point x="315" y="211" type="line"/>
      <point x="298" y="203"/>
      <point x="281" y="197"/>
      <point x="264" y="194" type="curve"/>
      <point x="264" y="194" type="line"/>
      <point x="281" y="197"/>
      <point x="298" y="203"/>
      <point x="315" y="211" type="curve"/>
    </contour>
    <contour>
      <point x="389" y="213" type="line" smooth="yes"/>
      <point x="371" y="240"/>
      <point x="327" y="206"/>
      <point x="351" y="180" type="curve" smooth="yes"/>
      <point x="368" y="161" type="line" smooth="yes"/>
      <point x="384" y="144"/>
      <point x="421" y="165"/>
      <point x="407" y="186" type="curve" smooth="yes"/>
    </contour>
    <contour>
      <point x="198" y="629" type="line"/>
      <point x="234" y="649" type="line"/>
      <point x="226" y="668" type="line" smooth="yes"/>
      <point x="218" y="687"/>
      <point x="174" y="664"/>
      <point x="185" y="648" type="curve" smooth="yes"/>
    </contour>
    <contour>
      <point x="415" y="78" type="line" smooth="yes"/>
      <point x="410" y="105"/>
      <point x="385" y="99"/>
      <point x="390" y="73" type="curve" smooth="yes"/>
      <point x="393" y="58" type="line" smooth="yes"/>
      <point x="396" y="43"/>
      <point x="421" y="50"/>
      <point x="417" y="68" type="curve" smooth="yes"/>
    </contour>
  </outline>
</glyph>
<glyph name="D" format="2">
  <advance width="587"/>
  <unicode hex="0044"/>
  <anchor x="278" y="0" name="bottom"/>
  <anchor x="270" y="700" name="top"/>
  <outline>
    <contour>
      <point x="60" y="75" type="line" smooth="yes"/>
      <point x="60" y="31"/>
      <point x="82" y="0"/>
      <point x="131" y="0" type="curve" smooth="yes"/>
      <point x="236" y="0" type="line" smooth="yes"/>
      <point x="416" y="0"/>
      <point x="552" y="85"/>
      <point x="552" y="358" type="curve" smooth="yes"/>
      <point x="552" y="636"/>
      <point x="416" y="705"/>
      <point x="246" y="705" type="curve" smooth="yes"/>
      <point x="140" y="705" type="line" smooth="yes"/>
      <point x="93" y="705"/>
      <point x="64" y="681"/>
      <point x="64" y="630" type="curve" smooth="yes"/>
    </contour>
    <contour>
      <point x="131" y="93" type="curve" smooth="yes"/>
      <point x="133" y="608" type="line" smooth="yes"/>
      <point x="133" y="629"/>
      <point x="139" y="638"/>
      <point x="161" y="638" type="curve" smooth="yes"/>
      <point x="206" y="638" type="line" smooth="yes"/>
      <point x="308" y="638"/>
      <point x="332" y="612"/>
      <point x="332" y="358" type="curve" smooth="yes"/>
      <point x="332" y="108"/>
      <point x="303" y="67"/>
      <point x="196" y="67" type="curve" smooth="yes"/>
      <point x="154" y="67" type="line" smooth="yes"/>
      <point x="137" y="67"/>
      <point x="131" y="75"/>
    </contour>
    <contour>
      <point x="401" y="251" type="curve" smooth="yes"/>
      <point x="401" y="251"/>
      <point x="401" y="251"/>
      <point x="401" y="251" type="curve" smooth="yes"/>
      <point x="401" y="251"/>
      <point x="401" y="251"/>
      <point x="401" y="251" type="curve" smooth="yes"/>
      <point x="401" y="251"/>
      <point x="401" y="251"/>
      <point x="401" y="251" type="curve" smooth="yes"/>
      <point x="401" y="251"/>
      <point x="401" y="251"/>
    </contour>
    <contour>
      <point x="478" y="141" type="curve" smooth="yes"/>
      <point x="478" y="141"/>
      <point x="478" y="141"/>
      <point x="478" y="141" type="curve" smooth="yes"/>
      <point x="478" y="141"/>
      <point x="478" y="141"/>
      <point x="478" y="141" type="curve" smooth="yes"/>
      <point x="478" y="141"/>
      <point x="478" y="141"/>
      <point x="478" y="141" type="curve" smooth="yes"/>
      <point x="478" y="141"/>
      <point x="478" y="141"/>
    </contour>
    <contour>
      <point x="487" y="387" type="curve" smooth="yes"/>
      <point x="487" y="387"/>
      <point x="487" y="387"/>
      <point x="487" y="387" type="curve" smooth="yes"/>
      <point x="487" y="387"/>
      <point x="487" y="387"/>
      <point x="487" y="387" type="curve" smooth="yes"/>
      <point x="487" y="387"/>
      <point x="487" y="387"/>
      <point x="487" y="387" type="curve" smooth="yes"/>
      <point x="487" y="387"/>
      <point x="487" y="387"/>
    </contour>
    <contour>
      <point x="469" y="520" type="line" smooth="yes"/>
      <point x="443" y="520"/>
      <point x="443" y="465"/>
      <point x="469" y="465" type="curve" smooth="yes"/>
      <point x="482" y="465" type="line" smooth="yes"/>
      <point x="505" y="465"/>
      <point x="505" y="520"/>
      <point x="482" y="520" type="curve" smooth="yes"/>
    </contour>
    <contour>
      <point x="429" y="446" type="line" smooth="yes"/>
      <point x="403" y="446"/>
      <point x="403" y="391"/>
      <point x="429" y="391" type="curve" smooth="yes"/>
      <point x="442" y="391" type="line" smooth="yes"/>
      <point x="465" y="391"/>
      <point x="465" y="446"/>
      <point x="442" y="446" type="curve" smooth="yes"/>
    </contour>
    <contour>
      <point x="105" y="227" type="line" smooth="yes"/>
      <point x="136" y="227"/>
      <point x="136" y="279"/>
      <point x="105" y="279" type="curve" smooth="yes"/>
      <point x="88" y="279" type="line" smooth="yes"/>
      <point x="61" y="279"/>
      <point x="58" y="227"/>
      <point x="88" y="227" type="curve" smooth="yes"/>
    </contour>
    <contour>
      <point x="381" y="564" type="line" smooth="yes"/>
      <point x="356" y="550"/>
      <point x="380" y="507"/>
      <point x="400" y="517" type="curve" smooth="yes"/>
      <point x="449" y="541" type="line" smooth="yes"/>
      <point x="468" y="550"/>
      <point x="449" y="601"/>
      <point x="427" y="589" type="curve" smooth="yes"/>
    </contour>
    <contour>
      <point x="378" y="617" type="line"/>
      <point x="416" y="595" type="line"/>
      <point x="432" y="617" type="line" smooth="yes"/>
      <point x="447" y="637"/>
      <point x="421" y="660"/>
      <point x="403" y="642" type="curve" smooth="yes"/>
    </contour>
  </outline>
</glyph>
<glyph name="E" format="2">
  <advance width="470"/>
  <unicode hex="0045"/>
  <anchor x="241" y="0" name="cedilla"/>
  <anchor x="418" y="0" name="ogonek"/>
  <anchor x="253" y="700" name="top"/>
  <outline>
    <contour>
      <point x="60" y="64" type="line" smooth="yes"/>
      <point x="60" y="30"/>
      <point x="87" y="0"/>
      <point x="123" y="0" type="curve" smooth="yes"/>
      <point x="351" y="-1" type="line" smooth="yes"/>
      <point x="476" y="-2"/>
      <point x="476" y="189"/>
      <point x="351" y="189" type="curve" smooth="yes"/>
      <point x="168" y="189" type="line" smooth="yes"/>
      <point x="143" y="189"/>
      <point x="131" y="198"/>
      <point x="131" y="226" type="curve" smooth="yes"/>
      <point x="131" y="287" type="line" smooth="yes"/>
      <point x="131" y="303"/>
      <point x="138" y="311"/>
      <point x="152" y="311" type="curve" smooth="yes"/>
      <point x="347" y="312" type="line" smooth="yes"/>
      <point x="385" y="312"/>
      <point x="389" y="379"/>
      <point x="347" y="379" type="curve" smooth="yes"/>
      <point x="153" y="379" type="line" smooth="yes"/>
      <point x="139" y="379"/>
      <point x="132" y="386"/>
      <point x="132" y="402" type="curve" smooth="yes"/>
      <point x="132" y="474" type="line" smooth="yes"/>
      <point x="132" y="497"/>
      <point x="144" y="511"/>
      <point x="170" y="511" type="curve" smooth="yes"/>
      <point x="342" y="511" type="line" smooth="yes"/>
      <point x="467" y="511"/>
      <point x="467" y="701"/>
      <point x="342" y="701" type="curve" smooth="yes"/>
      <point x="123" y="701" type="line" smooth="yes"/>
      <point x="90" y="701"/>
      <point x="63" y="670"/>
      <point x="63" y="637" type="curve" smooth="yes"/>
    </contour>
    <contour>
      <point x="288" y="5" type="curve" smooth="yes"/>
      <point x="303" y="5"/>
      <point x="315" y="17"/>
      <point x="315" y="33" type="curve" smooth="yes"/>
      <point x="315" y="48"/>
      <point x="303" y="60"/>
      <point x="288" y="60" type="curve" smooth="yes"/>
      <point x="272" y="60"/>
      <point x="260" y="48"/>
      <point x="260" y="33" type="curve" smooth="yes"/>
      <point x="260" y="17"/>
      <point x="272" y="5"/>
    </contour>
    <contour>
      <point x="280" y="511" type="line"/>
      <point x="280" y="511" type="line"/>
      <point x="295" y="511"/>
      <point x="311" y="511"/>
      <point x="326" y="511" type="curve"/>
      <point x="326" y="511" type="line"/>
    </contour>
    <contour>
      <point x="193" y="511" type="line"/>
      <point x="193" y="511" type="line"/>
      <point x="209" y="511"/>
      <point x="225" y="511"/>
      <point x="241" y="511" type="curve"/>
      <point x="241" y="511" type="line"/>
    </contour>
    <contour>
      <point x="330" y="86" type="line" smooth="yes"/>
      <point x="326" y="65"/>
      <point x="363" y="58"/>
      <point x="367" y="79" type="curve" smooth="yes"/>
      <point x="379" y="142" type="line" smooth="yes"/>
      <point x="383" y="162"/>
      <point x="344" y="168"/>
      <point x="341" y="150" type="curve" smooth="yes"/>
    </contour>
    <contour>
      <point x="220" y="38" type="line" smooth="yes"/>
      <point x="224" y="10"/>
      <point x="271" y="20"/>
      <point x="265" y="48" type="curve" smooth="yes"/>
      <point x="251" y="109" type="line" smooth="yes"/>
      <point x="246" y="132"/>
      <point x="208" y="123"/>
      <point x="211" y="103" type="curve" smooth="yes"/>
    </contour>
    <contour>
      <point x="90" y="493" type="line" smooth="yes"/>
      <point x="71" y="500"/>
      <point x="56" y="466"/>
      <point x="78" y="454" type="curve" smooth="yes"/>
      <point x="100" y="442" type="line" smooth="yes"/>
      <point x="122" y="430"/>
      <point x="138" y="476"/>
      <point x="113" y="485" type="curve" smooth="yes"/>
    </contour>
    <contour>
      <point x="97" y="426" type="line" smooth="yes"/>
      <point x="78" y="434"/>
      <point x="65" y="390"/>
      <point x="86" y="384" type="curve" smooth="yes"/>
      <point x="101" y="380" type="line" smooth="yes"/>
      <point x="118" y="376"/>
      <point x="131" y="411"/>
      <point x="111" y="420" type="curve" smooth="yes"/>
    </contour>
    <contour>
      <point x="244" y="364" type="line"/>
      <point x="202" y="352" type="line"/>
      <point x="207" y="342" type="line" smooth="yes"/>
      <point x="215" y="326"/>
      <point x="253" y="333"/>
      <point x="247" y="354" type="curve" smooth="yes"/>
    </contour>
    <contour>
      <point x="324" y="360" type="line" smooth="yes"/>
      <point x="318" y="382"/>
      <point x="282" y="373"/>
      <point x="286" y="353" type="curve" smooth="yes"/>
      <point x="289" y="338" type="line" smooth="yes"/>
      <point x="293" y="320"/>
      <point x="333" y="327"/>
      <point x="327" y="349" type="curve" smooth="yes"/>
    </contour>
  </outline>
</glyph>
<glyph name="F" format="2">
  <advance width="436"/>
  <unicode hex="0046"/>
  <anchor x="258" y="0" name="bottom"/>
  <anchor x="250" y="700" name="top"/>
  <outline>
    <contour>
      <point x="60" y="23" type="line" smooth="yes"/>
      <point x="60" y="-18"/>
      <point x="131" y="-20"/>
      <point x="131" y="22" type="curve" smooth="yes"/>
      <point x="131" y="189" type="line" smooth="yes"/>
      <point x="131" y="214"/>
      <point x="145" y="221"/>
      <point x="167" y="221" type="curve" smooth="yes"/>
      <point x="303" y="221" type="line" smooth="yes"/>
      <point x="367" y="221"/>
      <point x="400" y="274"/>
      <point x="400" y="326" type="curve"/>
      <point x="400" y="326" type="line"/>
      <point x="400" y="326"/>
      <point x="400" y="326"/>
      <point x="400" y="326" type="curve"/>
      <point x="400" y="326" type="line"/>
      <point x="400" y="378"/>
      <point x="367" y="431"/>
      <point x="303" y="431" type="curve" smooth="yes"/>
      <point x="167" y="431" type="line" smooth="yes"/>
      <point x="145" y="431"/>
      <point x="130" y="438"/>
      <point x="130" y="463" type="curve" smooth="yes"/>
      <point x="130" y="597" type="line" smooth="yes"/>
      <point x="130" y="620"/>
      <point x="145" y="635"/>
      <point x="171" y="635" type="curve" smooth="yes"/>
      <point x="390" y="634" type="line" smooth="yes"/>
      <point x="434" y="634"/>
      <point x="434" y="702"/>
      <point x="390" y="702" type="curve" smooth="yes"/>
      <point x="134" y="702" type="line" smooth="yes"/>
      <point x="93" y="702"/>
      <point x="60" y="676"/>
      <point x="60" y="634" type="curve" smooth="yes"/>
    </contour>
    <contour>
      <point x="60" y="254" type="line"/>
      <point x="60" y="254" type="line"/>
      <point x="60" y="254"/>
      <point x="60" y="185"/>
      <point x="60" y="185" type="curve"/>
      <point x="60" y="185" type="line"/>
    </contour>
    <contour>
      <point x="60" y="154" type="line"/>
      <point x="60" y="154" type="line"/>
      <point x="60" y="154"/>
      <point x="60" y="99"/>
      <point x="60" y="99" type="curve"/>
      <point x="60" y="99" type="line"/>
    </contour>
    <contour>
      <point x="60" y="354" type="line"/>
      <point x="60" y="354" type="line" smooth="yes"/>
      <point x="60" y="354"/>
      <point x="60" y="282"/>
      <point x="60" y="282" type="curve" smooth="yes"/>
      <point x="60" y="282" type="line"/>
    </contour>
    <contour>
      <point x="263" y="679" type="curve" smooth="yes"/>
      <point x="259" y="657" type="line"/>
      <point x="298" y="653" type="line"/>
      <point x="301" y="676" type="line" smooth="yes"/>
      <point x="303" y="695"/>
      <point x="266" y="698"/>
    </contour>
    <contour>
      <point x="105" y="581" type="line" smooth="yes"/>
      <point x="133" y="579"/>
      <point x="135" y="624"/>
      <point x="108" y="624" type="curve" smooth="yes"/>
      <point x="93" y="624" type="line" smooth="yes"/>
      <point x="68" y="624"/>
      <point x="64" y="584"/>
      <point x="91" y="582" type="curve" smooth="yes"/>
    </contour>
    <contour>
      <point x="199" y="676" type="curve" smooth="yes"/>
      <point x="202" y="659" type="line" smooth="yes"/>
      <point x="206" y="638"/>
      <point x="240" y="643"/>
      <point x="237" y="663" type="curve" smooth="yes"/>
      <point x="234" y="681" type="line" smooth="yes"/>
      <point x="231" y="696"/>
      <point x="196" y="694"/>
    </contour>
  </outline>
</glyph>
<glyph name="G" format="2">
  <advance width="577"/>
  <unicode hex="0047"/>
  <anchor x="303" y="0" name="bottom"/>
  <anchor x="317" y="700" name="top"/>
  <outline>
    <contour>
      <point x="35" y="311" type="curve" smooth="yes"/>
      <point x="35" y="78"/>
      <point x="139" y="-11"/>
      <point x="255" y="-11" type="curve" smooth="yes"/>
      <point x="337" y="-11"/>
      <point x="381" y="23"/>
      <point x="411" y="75" type="curve" smooth="yes"/>
      <point x="420" y="90"/>
      <point x="434" y="85"/>
      <point x="434" y="68" type="curve" smooth="yes"/>
      <point x="434" y="33" type="line" smooth="yes"/>
      <point x="434" y="-43"/>
      <point x="549" y="-45"/>
      <point x="549" y="33" type="curve" smooth="yes"/>
      <point x="548" y="273" type="line" smooth="yes"/>
      <point x="548" y="317"/>
      <point x="529" y="334"/>
      <point x="482" y="336" type="curve" smooth="yes"/>
      <point x="291" y="344" type="line" smooth="yes"/>
      <point x="243" y="346"/>
      <point x="242" y="277"/>
      <point x="287" y="276" type="curve" smooth="yes"/>
      <point x="334" y="275" type="line" smooth="yes"/>
      <point x="364" y="274"/>
      <point x="380" y="249"/>
      <point x="380" y="215" type="curve" smooth="yes"/>
      <point x="380" y="126"/>
      <point x="334" y="59"/>
      <point x="264" y="59" type="curve" smooth="yes"/>
      <point x="171" y="59"/>
      <point x="108" y="137"/>
      <point x="108" y="311" type="curve" smooth="yes"/>
      <point x="108" y="479"/>
      <point x="214" y="505"/>
      <point x="287" y="505" type="curve" smooth="yes"/>
      <point x="353" y="505"/>
      <point x="397" y="469"/>
      <point x="445" y="469" type="curve" smooth="yes"/>
      <point x="502" y="469"/>
      <point x="535" y="502"/>
      <point x="535" y="569" type="curve" smooth="yes"/>
      <point x="535" y="644"/>
      <point x="469" y="712"/>
      <point x="335" y="712" type="curve" smooth="yes"/>
      <point x="226" y="712"/>
      <point x="35" y="664"/>
    </contour>
    <contour>
      <point x="194" y="630" type="curve" smooth="yes"/>
      <point x="194" y="630"/>
      <point x="194" y="630"/>
      <point x="194" y="630" type="curve" smooth="yes"/>
      <point x="194" y="630"/>
      <point x="194" y="630"/>
      <point x="194" y="630" type="curve" smooth="yes"/>
      <point x="194" y="630"/>
      <point x="194" y="630"/>
      <point x="194" y="630" type="curve" smooth="yes"/>
      <point x="194" y="630"/>
      <point x="194" y="630"/>
    </contour>
    <contour>
      <point x="266" y="537" type="curve" smooth="yes"/>
      <point x="266" y="537"/>
      <point x="266" y="537"/>
      <point x="266" y="537" type="curve" smooth="yes"/>
      <point x="266" y="537"/>
      <point x="266" y="537"/>
      <point x="266" y="537" type="curve" smooth="yes"/>
      <point x="266" y="537"/>
      <point x="266" y="537"/>
      <point x="266" y="537" type="curve" smooth="yes"/>
      <point x="266" y="537"/>
      <point x="266" y="537"/>
    </contour>
    <contour>
      <point x="85" y="389" type="curve" smooth="yes"/>
      <point x="85" y="389"/>
      <point x="85" y="389"/>
      <point x="85" y="389" type="curve" smooth="yes"/>
      <point x="85" y="389"/>
      <point x="85" y="389"/>
      <point x="85" y="389" type="curve" smooth="yes"/>
      <point x="85" y="389"/>
      <point x="85" y="389"/>
      <point x="85" y="389" type="curve" smooth="yes"/>
      <point x="85" y="389"/>
      <point x="85" y="389"/>
    </contour>
    <contour>
      <point x="483" y="252" type="line" smooth="yes"/>
      <point x="513" y="256"/>
      <point x="514" y="305"/>
      <point x="479" y="303" type="curve" smooth="yes"/>
      <point x="461" y="302" type="line" smooth="yes"/>
      <point x="427" y="300"/>
      <point x="432" y="246"/>
      <point x="467" y="250" type="curve" smooth="yes"/>
    </contour>
    <contour>
      <point x="335" y="287" type="line" smooth="yes"/>
      <point x="363" y="287"/>
      <point x="365" y="329"/>
      <point x="338" y="331" type="curve" smooth="yes"/>
      <point x="290" y="335" type="line" smooth="yes"/>
      <point x="260" y="338"/>
      <point x="258" y="287"/>
      <point x="292" y="287" type="curve" smooth="yes"/>
    </contour>
    <contour>
      <point x="467" y="255" type="curve" smooth="yes"/>
      <point x="479" y="255"/>
      <point x="488" y="264"/>
      <point x="488" y="277" type="curve" smooth="yes"/>
      <point x="488" y="288"/>
      <point x="479" y="297"/>
      <point x="467" y="297" type="curve" smooth="yes"/>
      <point x="454" y="297"/>
      <point x="446" y="288"/>
      <point x="446" y="277" type="curve" smooth="yes"/>
      <point x="446" y="264"/>
      <point x="454" y="255"/>
    </contour>
    <contour>
      <point x="156" y="86" type="line" smooth="yes"/>
      <point x="170" y="107"/>
      <point x="123" y="144"/>
      <point x="109" y="120" type="curve" smooth="yes"/>
      <point x="97" y="100" type="line" smooth="yes"/>
      <point x="82" y="75"/>
      <point x="128" y="45"/>
      <point x="145" y="70" type="curve" smooth="yes"/>
    </contour>
    <contour>
      <point x="237" y="27" type="line" smooth="yes"/>
      <point x="245" y="55"/>
      <point x="205" y="75"/>
      <point x="194" y="48" type="curve" smooth="yes"/>
      <point x="189" y="36" type="line" smooth="yes"/>
      <point x="176" y="4"/>
      <point x="225" y="-13"/>
      <point x="234" y="17" type="curve" smooth="yes"/>
    </contour>
  </outline>
</glyph>
<glyph name="H" format="2">
  <advance width="562"/>
  <unicode hex="0048"/>
  <anchor x="281" y="0" name="bottom"/>
  <anchor x="281" y="700" name="top"/>
  <outline>
    <contour>
      <point x="407" y="237" type="line" smooth="yes"/>
      <point x="424" y="237"/>
      <point x="432" y="230"/>
      <point x="432" y="213" type="curve" smooth="yes"/>
      <point x="432" y="20" type="line" smooth="yes"/>
      <point x="432" y="-20"/>
      <point x="502" y="-23"/>
      <point x="502" y="19" type="curve" smooth="yes"/>
      <point x="502" y="677" type="line" smooth="yes"/>
      <point x="502" y="721"/>
      <point x="432" y="719"/>
      <point x="432" y="677" type="curve" smooth="yes"/>
      <point x="432" y="475" type="line" smooth="yes"/>
      <point x="432" y="459"/>
      <point x="424" y="447"/>
      <point x="407" y="447" type="curve" smooth="yes"/>
      <point x="155" y="447" type="line" smooth="yes"/>
      <point x="138" y="447"/>
      <point x="130" y="459"/>
      <point x="130" y="475" type="curve" smooth="yes"/>
      <point x="130" y="677" type="line" smooth="yes"/>
      <point x="130" y="719"/>
      <point x="60" y="721"/>
      <point x="60" y="677" type="curve" smooth="yes"/>
      <point x="60" y="19" type="line" smooth="yes"/>
      <point x="60" y="-23"/>
      <point x="130" y="-20"/>
      <point x="130" y="20" type="curve" smooth="yes"/>
      <point x="130" y="213" type="line" smooth="yes"/>
      <point x="130" y="230"/>
      <point x="138" y="237"/>
      <point x="155" y="237" type="curve" smooth="yes"/>
    </contour>
    <contour>
      <point x="306" y="237" type="line"/>
      <point x="306" y="237" type="line"/>
      <point x="328" y="237"/>
      <point x="349" y="237"/>
      <point x="371" y="237" type="curve"/>
      <point x="371" y="237" type="line"/>
    </contour>
    <contour>
      <point x="190" y="237" type="line"/>
      <point x="190" y="237" type="line"/>
      <point x="210" y="237"/>
      <point x="230" y="237"/>
      <point x="250" y="237" type="curve"/>
      <point x="250" y="237" type="line"/>
    </contour>
    <contour>
      <point x="239" y="304" type="curve" smooth="yes"/>
      <point x="264" y="304"/>
      <point x="285" y="325"/>
      <point x="285" y="349" type="curve" smooth="yes"/>
      <point x="285" y="374"/>
      <point x="264" y="395"/>
      <point x="239" y="395" type="curve" smooth="yes"/>
      <point x="215" y="395"/>
      <point x="194" y="374"/>
      <point x="194" y="349" type="curve" smooth="yes"/>
      <point x="194" y="325"/>
      <point x="215" y="304"/>
    </contour>
    <contour>
      <point x="241" y="326" type="curve" smooth="yes"/>
      <point x="257" y="326"/>
      <point x="272" y="341"/>
      <point x="272" y="356" type="curve" smooth="yes"/>
      <point x="272" y="373"/>
      <point x="257" y="388"/>
      <point x="241" y="388" type="curve" smooth="yes"/>
      <point x="225" y="388"/>
      <point x="210" y="373"/>
      <point x="210" y="356" type="curve" smooth="yes"/>
      <point x="210" y="341"/>
      <point x="225" y="326"/>
    </contour>
    <contour>
      <point x="242" y="340" type="curve" smooth="yes"/>
      <point x="250" y="340"/>
      <point x="258" y="348"/>
      <point x="258" y="356" type="curve" smooth="yes"/>
      <point x="258" y="365"/>
      <point x="250" y="373"/>
      <point x="242" y="373" type="curve" smooth="yes"/>
      <point x="233" y="373"/>
      <point x="225" y="365"/>
      <point x="225" y="356" type="curve" smooth="yes"/>
      <point x="225" y="348"/>
      <point x="233" y="340"/>
    </contour>
    <contour>
      <point x="454" y="183" type="line" smooth="yes"/>
      <point x="429" y="184"/>
      <point x="431" y="148"/>
      <point x="452" y="147" type="curve" smooth="yes"/>
      <point x="482" y="145" type="line" smooth="yes"/>
      <point x="500" y="144"/>
      <point x="505" y="181"/>
      <point x="480" y="182" type="curve" smooth="yes"/>
    </contour>
    <contour>
      <point x="454" y="93" type="line" smooth="yes"/>
      <point x="431" y="91"/>
      <point x="437" y="51"/>
      <point x="456" y="54" type="curve" smooth="yes"/>
      <point x="484" y="59" type="line" smooth="yes"/>
      <point x="501" y="62"/>
      <point x="502" y="97"/>
      <point x="478" y="95" type="curve" smooth="yes"/>
    </contour>
    <contour>
      <point x="84" y="158" type="line" smooth="yes"/>
      <point x="62" y="159"/>
      <point x="65" y="118"/>
      <point x="82" y="118" type="curve" smooth="yes"/>
      <point x="103" y="118" type="line" smooth="yes"/>
      <point x="122" y="118"/>
      <point x="126" y="156"/>
      <point x="102" y="157" type="curve" smooth="yes"/>
    </contour>
  </outline>
</glyph>
<glyph name="I" format="2">
  <advance width="409"/>
  <unicode hex="0049"/>
  <anchor x="275" y="0" name="ogonek"/>
  <anchor x="205" y="700" name="top"/>
  <outline>
    <contour>
      <point x="108" y="1" type="curve" smooth="yes"/>
      <point x="308" y="0" type="line" smooth="yes"/>
      <point x="423" y="-1"/>
      <point x="422" y="196"/>
      <point x="308" y="196" type="curve" smooth="yes"/>
      <point x="262" y="196" type="line" smooth="yes"/>
      <point x="245" y="196"/>
      <point x="240" y="205"/>
      <point x="240" y="221" type="curve" smooth="yes"/>
      <point x="240" y="484" type="line" smooth="yes"/>
      <point x="240" y="499"/>
      <point x="246" y="504"/>
      <point x="261" y="504" type="curve" smooth="yes"/>
      <point x="299" y="504" type="line" smooth="yes"/>
      <point x="423" y="504"/>
      <point x="420" y="700"/>
      <point x="299" y="700" type="curve" smooth="yes"/>
      <point x="108" y="700" type="line" smooth="yes"/>
      <point x="-12" y="700"/>
      <point x="-10" y="505"/>
      <point x="107" y="505" type="curve" smooth="yes"/>
      <point x="148" y="505" type="line" smooth="yes"/>
      <point x="164" y="505"/>
      <point x="170" y="500"/>
      <point x="170" y="484" type="curve" smooth="yes"/>
      <point x="170" y="219" type="line" smooth="yes"/>
      <point x="170" y="203"/>
      <point x="164" y="196"/>
      <point x="148" y="196" type="curve" smooth="yes"/>
      <point x="109" y="196" type="line" smooth="yes"/>
      <point x="-18" y="196"/>
      <point x="-13" y="2"/>
    </contour>
    <contour>
      <point x="185" y="453" type="line"/>
      <point x="188" y="406" type="line"/>
      <point x="209" y="409" type="line" smooth="yes"/>
      <point x="231" y="412"/>
      <point x="229" y="457"/>
      <point x="205" y="455" type="curve" smooth="yes"/>
    </contour>
    <contour>
      <point x="181" y="150" type="line" smooth="yes"/>
      <point x="148" y="150"/>
      <point x="148" y="96"/>
      <point x="178" y="95" type="curve" smooth="yes"/>
      <point x="249" y="93" type="line" smooth="yes"/>
      <point x="281" y="92"/>
      <point x="281" y="149"/>
      <point x="251" y="149" type="curve" smooth="yes"/>
    </contour>
    <contour>
      <point x="209" y="330" type="line" smooth="yes"/>
      <point x="175" y="330"/>
      <point x="180" y="277"/>
      <point x="212" y="283" type="curve" smooth="yes"/>
      <point x="229" y="286" type="line"/>
      <point x="225" y="330" type="line"/>
    </contour>
    <contour>
      <point x="199" y="199" type="line" smooth="yes"/>
      <point x="167" y="199"/>
      <point x="170" y="133"/>
      <point x="205" y="137" type="curve" smooth="yes"/>
      <point x="214" y="138" type="line" smooth="yes"/>
      <point x="245" y="141"/>
      <point x="246" y="199"/>
      <point x="214" y="199" type="curve" smooth="yes"/>
    </contour>
    <contour>
      <point x="128" y="700" type="line"/>
      <point x="164" y="700" type="line"/>
      <point x="164" y="700" type="line"/>
      <point x="164" y="700"/>
      <point x="128" y="700"/>
      <point x="128" y="700" type="curve"/>
    </contour>
    <contour>
      <point x="194" y="700" type="line"/>
      <point x="240" y="700" type="line"/>
      <point x="240" y="700" type="line"/>
      <point x="240" y="700"/>
      <point x="194" y="700"/>
      <point x="194" y="700" type="curve"/>
    </contour>
    <contour>
      <point x="259" y="700" type="line"/>
      <point x="291" y="700" type="line"/>
      <point x="291" y="700" type="line"/>
      <point x="291" y="700"/>
      <point x="259" y="700"/>
      <point x="259" y="700" type="curve"/>
    </contour>
    <contour>
      <point x="185" y="0" type="line"/>
      <point x="185" y="0" type="line"/>
      <point x="185" y="0"/>
      <point x="225" y="0"/>
      <point x="225" y="0" type="curve"/>
      <point x="225" y="0" type="line"/>
    </contour>
    <contour>
      <point x="251" y="0" type="line"/>
      <point x="251" y="0" type="line"/>
      <point x="251" y="0"/>
      <point x="292" y="0"/>
      <point x="292" y="0" type="curve"/>
      <point x="292" y="0" type="line"/>
    </contour>
  </outline>
</glyph>
<glyph name="J" format="2">
  <advance width="521"/>
  <unicode hex="004A"/>
  <anchor x="289" y="0" name="bottom"/>
  <anchor x="293" y="700" name="top"/>
  <outline>
    <contour>
      <point x="249" y="-18" type="curve" smooth="yes"/>
      <point x="379" y="-18"/>
      <point x="466" y="34"/>
      <point x="466" y="197" type="curve" smooth="yes"/>
      <point x="466" y="613" type="line" smooth="yes"/>
      <point x="466" y="669"/>
      <point x="448" y="700"/>
      <point x="390" y="700" type="curve" smooth="yes"/>
      <point x="183" y="700" type="line" smooth="yes"/>
      <point x="56" y="700"/>
      <point x="61" y="500"/>
      <point x="184" y="500" type="curve" smooth="yes"/>
      <point x="358" y="500" type="line" smooth="yes"/>
      <point x="390" y="500"/>
      <point x="395" y="484"/>
      <point x="395" y="454" type="curve" smooth="yes"/>
      <point x="396" y="210" type="line" smooth="yes"/>
      <point x="396" y="97"/>
      <point x="357" y="53"/>
      <point x="311" y="53" type="curve" smooth="yes"/>
      <point x="261" y="53"/>
      <point x="240" y="93"/>
      <point x="240" y="213" type="curve" smooth="yes"/>
      <point x="240" y="373"/>
      <point x="30" y="379"/>
      <point x="30" y="211" type="curve" smooth="yes"/>
      <point x="30" y="51"/>
      <point x="127" y="-18"/>
    </contour>
    <contour>
      <point x="332" y="514" type="line" smooth="yes"/>
      <point x="353" y="517"/>
      <point x="347" y="570"/>
      <point x="327" y="570" type="curve" smooth="yes"/>
      <point x="317" y="570" type="line" smooth="yes"/>
      <point x="295" y="570"/>
      <point x="295" y="508"/>
      <point x="320" y="512" type="curve" smooth="yes"/>
    </contour>
    <contour>
      <point x="436" y="542" type="line"/>
      <point x="433" y="578" type="line"/>
      <point x="410" y="576" type="line" smooth="yes"/>
      <point x="383" y="574"/>
      <point x="385" y="534"/>
      <point x="410" y="538" type="curve" smooth="yes"/>
    </contour>
    <contour>
      <point x="441" y="488" type="line" smooth="yes"/>
      <point x="460" y="492"/>
      <point x="456" y="532"/>
      <point x="436" y="528" type="curve" smooth="yes"/>
      <point x="409" y="523" type="line" smooth="yes"/>
      <point x="386" y="519"/>
      <point x="395" y="477"/>
      <point x="415" y="482" type="curve" smooth="yes"/>
    </contour>
    <contour>
      <point x="430" y="491" type="line"/>
      <point x="430" y="436" type="line"/>
      <point x="441" y="436" type="line" smooth="yes"/>
      <point x="464" y="436"/>
      <point x="464" y="491"/>
      <point x="441" y="491" type="curve" smooth="yes"/>
    </contour>
    <contour>
      <point x="135" y="196" type="curve" smooth="yes"/>
      <point x="148" y="196"/>
      <point x="159" y="207"/>
      <point x="159" y="221" type="curve" smooth="yes"/>
      <point x="159" y="234"/>
      <point x="148" y="245"/>
      <point x="135" y="245" type="curve" smooth="yes"/>
      <point x="121" y="245"/>
      <point x="110" y="234"/>
      <point x="110" y="221" type="curve" smooth="yes"/>
      <point x="110" y="207"/>
      <point x="121" y="196"/>
    </contour>
    <contour>
      <point x="134" y="221" type="curve" smooth="yes"/>
      <point x="134" y="221"/>
      <point x="134" y="221"/>
      <point x="134" y="221" type="curve" smooth="yes"/>
      <point x="134" y="221"/>
      <point x="134" y="221"/>
      <point x="134" y="221" type="curve" smooth="yes"/>
      <point x="134" y="221"/>
      <point x="134" y="221"/>
      <point x="134" y="221" type="curve" smooth="yes"/>
      <point x="134" y="221"/>
      <point x="134" y="221"/>
    </contour>
    <contour>
      <point x="201" y="155" type="curve" smooth="yes"/>
      <point x="201" y="155"/>
      <point x="201" y="155"/>
      <point x="201" y="155" type="curve" smooth="yes"/>
      <point x="201" y="155"/>
      <point x="201" y="155"/>
      <point x="201" y="155" type="curve" smooth="yes"/>
      <point x="201" y="155"/>
      <point x="201" y="155"/>
      <point x="201" y="155" type="curve" smooth="yes"/>
      <point x="201" y="155"/>
      <point x="201" y="155"/>
    </contour>
    <contour>
      <point x="107" y="82" type="curve" smooth="yes"/>
      <point x="107" y="82"/>
      <point x="107" y="82"/>
      <point x="107" y="82" type="curve" smooth="yes"/>
      <point x="107" y="82"/>
      <point x="107" y="82"/>
      <point x="107" y="82" type="curve" smooth="yes"/>
      <point x="107" y="82"/>
      <point x="107" y="82"/>
      <point x="107" y="82" type="curve" smooth="yes"/>
      <point x="107" y="82"/>
      <point x="107" y="82"/>
    </contour>
    <contour>
      <point x="222" y="53" type="curve" smooth="yes"/>
      <point x="222" y="53"/>
      <point x="222" y="53"/>
      <point x="222" y="53" type="curve" smooth="yes"/>
      <point x="222" y="53"/>
      <point x="222" y="53"/>
      <point x="222" y="53" type="curve" smooth="yes"/>
      <point x="222" y="53"/>
      <point x="222" y="53"/>
      <point x="222" y="53" type="curve" smooth="yes"/>
      <point x="222" y="53"/>
      <point x="222" y="53"/>
    </contour>
  </outline>
</glyph>
<glyph name="K" format="2">
  <advance width="567"/>
  <unicode hex="004B"/>
  <anchor x="263" y="0" name="bottom"/>
  <anchor x="271" y="700" name="top"/>
  <outline>
    <contour>
      <point x="60" y="23" type="line" smooth="yes"/>
      <point x="60" y="-18"/>
      <point x="130" y="-18"/>
      <point x="130" y="22" type="curve" smooth="yes"/>
      <point x="130" y="189" type="line" smooth="yes"/>
      <point x="130" y="215"/>
      <point x="144" y="216"/>
      <point x="164" y="199" type="curve" smooth="yes"/>
      <point x="394" y="7" type="line" smooth="yes"/>
      <point x="474" y="-60"/>
      <point x="557" y="12"/>
      <point x="557" y="86" type="curve" smooth="yes"/>
      <point x="557" y="117"/>
      <point x="541" y="146"/>
      <point x="507" y="171" type="curve" smooth="yes"/>
      <point x="492" y="182" type="line"/>
      <point x="492" y="182" type="line"/>
      <point x="492" y="182"/>
      <point x="446" y="216"/>
      <point x="446" y="216" type="curve"/>
      <point x="446" y="216" type="line"/>
      <point x="413" y="241" type="line"/>
      <point x="413" y="241" type="line"/>
      <point x="413" y="241"/>
      <point x="371" y="272"/>
      <point x="371" y="272" type="curve"/>
      <point x="371" y="272" type="line"/>
      <point x="281" y="338" type="line" smooth="yes"/>
      <point x="264" y="351"/>
      <point x="258" y="364"/>
      <point x="276" y="385" type="curve" smooth="yes"/>
      <point x="496" y="642" type="line" smooth="yes"/>
      <point x="527" y="678"/>
      <point x="467" y="732"/>
      <point x="436" y="694" type="curve" smooth="yes"/>
      <point x="164" y="353" type="line" smooth="yes"/>
      <point x="148" y="332"/>
      <point x="130" y="337"/>
      <point x="130" y="358" type="curve" smooth="yes"/>
      <point x="130" y="675" type="line" smooth="yes"/>
      <point x="130" y="720"/>
      <point x="60" y="721"/>
      <point x="60" y="677" type="curve" smooth="yes"/>
    </contour>
    <contour>
      <point x="221" y="305" type="curve" smooth="yes"/>
      <point x="236" y="305"/>
      <point x="248" y="317"/>
      <point x="248" y="333" type="curve" smooth="yes"/>
      <point x="248" y="348"/>
      <point x="236" y="360"/>
      <point x="221" y="360" type="curve" smooth="yes"/>
      <point x="205" y="360"/>
      <point x="193" y="348"/>
      <point x="193" y="333" type="curve" smooth="yes"/>
      <point x="193" y="317"/>
      <point x="205" y="305"/>
    </contour>
    <contour>
      <point x="401" y="615" type="line" smooth="yes"/>
      <point x="379" y="629"/>
      <point x="344" y="577"/>
      <point x="370" y="561" type="curve" smooth="yes"/>
      <point x="388" y="550" type="line" smooth="yes"/>
      <point x="409" y="537"/>
      <point x="449" y="585"/>
      <point x="417" y="605" type="curve" smooth="yes"/>
    </contour>
    <contour>
      <point x="337" y="538" type="line" smooth="yes"/>
      <point x="316" y="553"/>
      <point x="280" y="502"/>
      <point x="306" y="484" type="curve" smooth="yes"/>
      <point x="325" y="471" type="line" smooth="yes"/>
      <point x="345" y="457"/>
      <point x="383" y="505"/>
      <point x="354" y="526" type="curve" smooth="yes"/>
    </contour>
    <contour>
      <point x="81" y="176" type="line" smooth="yes"/>
      <point x="64" y="175"/>
      <point x="67" y="135"/>
      <point x="85" y="137" type="curve" smooth="yes"/>
      <point x="114" y="140" type="line" smooth="yes"/>
      <point x="130" y="142"/>
      <point x="128" y="178"/>
      <point x="109" y="177" type="curve" smooth="yes"/>
    </contour>
    <contour>
      <point x="84" y="82" type="line" smooth="yes"/>
      <point x="67" y="82"/>
      <point x="65" y="45"/>
      <point x="84" y="45" type="curve" smooth="yes"/>
      <point x="106" y="45" type="line" smooth="yes"/>
      <point x="127" y="45"/>
      <point x="128" y="82"/>
      <point x="109" y="82" type="curve" smooth="yes"/>
    </contour>
    <contour>
      <point x="98" y="465" type="curve" smooth="yes"/>
      <point x="109" y="465"/>
      <point x="118" y="475"/>
      <point x="118" y="485" type="curve" smooth="yes"/>
      <point x="118" y="496"/>
      <point x="109" y="505"/>
      <point x="98" y="505" type="curve" smooth="yes"/>
      <point x="88" y="505"/>
      <point x="78" y="496"/>
      <point x="78" y="485" type="curve" smooth="yes"/>
      <point x="78" y="475"/>
      <point x="88" y="465"/>
    </contour>
    <contour>
      <point x="97" y="556" type="curve" smooth="yes"/>
      <point x="107" y="556"/>
      <point x="116" y="565"/>
      <point x="116" y="576" type="curve" smooth="yes"/>
      <point x="116" y="586"/>
      <point x="107" y="595"/>
      <point x="97" y="595" type="curve" smooth="yes"/>
      <point x="86" y="595"/>
      <point x="77" y="586"/>
      <point x="77" y="576" type="curve" smooth="yes"/>
      <point x="77" y="565"/>
      <point x="86" y="556"/>
    </contour>
  </outline>
</glyph>
<glyph name="L" format="2">
  <advance width="452"/>
  <unicode hex="004C"/>
  <anchor x="237" y="0" name="bottom"/>
  <anchor x="100" y="700" name="top"/>
  <outline>
    <contour>
      <point x="60" y="103" type="line" smooth="yes"/>
      <point x="60" y="35"/>
      <point x="101" y="0"/>
      <point x="161" y="0" type="curve" smooth="yes"/>
      <point x="353" y="0" type="line" smooth="yes"/>
      <point x="475" y="0"/>
      <point x="469" y="210"/>
      <point x="353" y="210" type="curve" smooth="yes"/>
      <point x="169" y="210" type="line" smooth="yes"/>
      <point x="144" y="210"/>
      <point x="131" y="222"/>
      <point x="131" y="254" type="curve" smooth="yes"/>
      <point x="132" y="681" type="line" smooth="yes"/>
      <point x="132" y="724"/>
      <point x="63" y="724"/>
      <point x="63" y="681" type="curve" smooth="yes"/>
    </contour>
    <contour>
      <point x="110" y="182" type="line"/>
      <point x="116" y="248" type="line"/>
      <point x="92" y="251" type="line" smooth="yes"/>
      <point x="69" y="254"/>
      <point x="55" y="188"/>
      <point x="93" y="184" type="curve" smooth="yes"/>
    </contour>
    <contour>
      <point x="86" y="562" type="line" smooth="yes"/>
      <point x="58" y="555"/>
      <point x="66" y="510"/>
      <point x="91" y="516" type="curve" smooth="yes"/>
      <point x="110" y="521" type="line" smooth="yes"/>
      <point x="127" y="526"/>
      <point x="124" y="570"/>
      <point x="97" y="564" type="curve" smooth="yes"/>
    </contour>
    <contour>
      <point x="81" y="446" type="line"/>
      <point x="78" y="388" type="line"/>
      <point x="94" y="388" type="line" smooth="yes"/>
      <point x="118" y="388"/>
      <point x="125" y="442"/>
      <point x="91" y="445" type="curve" smooth="yes"/>
    </contour>
    <contour>
      <point x="74" y="292" type="line"/>
      <point x="104" y="296" type="line" smooth="yes"/>
      <point x="132" y="300"/>
      <point x="127" y="345"/>
      <point x="100" y="343" type="curve" smooth="yes"/>
      <point x="69" y="341" type="line"/>
    </contour>
    <contour>
      <point x="214" y="210" type="line"/>
      <point x="214" y="210" type="line" smooth="yes"/>
      <point x="214" y="210"/>
      <point x="174" y="210"/>
      <point x="174" y="210" type="curve" smooth="yes"/>
      <point x="174" y="210" type="line"/>
    </contour>
    <contour>
      <point x="262" y="210" type="line"/>
      <point x="262" y="210" type="line"/>
      <point x="262" y="210"/>
      <point x="224" y="210"/>
      <point x="224" y="210" type="curve"/>
      <point x="224" y="210" type="line"/>
    </contour>
    <contour>
      <point x="330" y="210" type="line"/>
      <point x="330" y="210" type="line"/>
      <point x="330" y="210"/>
      <point x="293" y="210"/>
      <point x="293" y="210" type="curve"/>
      <point x="293" y="210" type="line"/>
    </contour>
  </outline>
</glyph>
<glyph name="M" format="2">
  <advance width="791"/>
  <unicode hex="004D"/>
  <anchor x="359" y="0" name="bottom"/>
  <anchor x="392" y="700" name="top"/>
  <outline>
    <contour>
      <point x="20" y="20" type="line" smooth="yes"/>
      <point x="15" y="-28"/>
      <point x="89" y="-32"/>
      <point x="93" y="14" type="curve" smooth="yes"/>
      <point x="120" y="302" type="line" smooth="yes"/>
      <point x="124" y="342"/>
      <point x="152" y="346"/>
      <point x="171" y="308" type="curve" smooth="yes"/>
      <point x="295" y="62" type="line" smooth="yes"/>
      <point x="323" y="7"/>
      <point x="400" y="3"/>
      <point x="420" y="64" type="curve" smooth="yes"/>
      <point x="494" y="287" type="line" smooth="yes"/>
      <point x="506" y="322"/>
      <point x="544" y="320"/>
      <point x="551" y="282" type="curve" smooth="yes"/>
      <point x="592" y="53" type="line" smooth="yes"/>
      <point x="611" y="-55"/>
      <point x="790" y="-34"/>
      <point x="769" y="77" type="curve" smooth="yes"/>
      <point x="659" y="665" type="line" smooth="yes"/>
      <point x="648" y="724"/>
      <point x="571" y="726"/>
      <point x="552" y="667" type="curve" smooth="yes"/>
      <point x="430" y="279" type="line" smooth="yes"/>
      <point x="419" y="245"/>
      <point x="381" y="241"/>
      <point x="367" y="278" type="curve" smooth="yes"/>
      <point x="216" y="669" type="line" smooth="yes"/>
      <point x="189" y="740"/>
      <point x="91" y="728"/>
      <point x="84" y="654" type="curve" smooth="yes"/>
    </contour>
    <contour>
      <point x="231" y="628" type="line"/>
      <point x="252" y="574" type="line"/>
      <point x="252" y="574" type="line"/>
      <point x="245" y="592"/>
      <point x="238" y="610"/>
      <point x="231" y="628" type="curve"/>
    </contour>
    <contour>
      <point x="264" y="544" type="line"/>
      <point x="283" y="495" type="line"/>
      <point x="283" y="495" type="line"/>
      <point x="277" y="511"/>
      <point x="270" y="528"/>
      <point x="264" y="544" type="curve"/>
    </contour>
    <contour>
      <point x="471" y="302" type="curve" smooth="yes"/>
      <point x="471" y="302"/>
      <point x="471" y="302"/>
      <point x="471" y="302" type="curve" smooth="yes"/>
      <point x="471" y="302"/>
      <point x="471" y="302"/>
      <point x="471" y="302" type="curve" smooth="yes"/>
      <point x="471" y="302"/>
      <point x="471" y="302"/>
      <point x="471" y="302" type="curve" smooth="yes"/>
      <point x="471" y="302"/>
      <point x="471" y="302"/>
    </contour>
    <contour>
      <point x="360" y="66" type="curve" smooth="yes"/>
      <point x="375" y="66"/>
      <point x="389" y="79"/>
      <point x="389" y="97" type="curve" smooth="yes"/>
      <point x="389" y="114"/>
      <point x="375" y="128"/>
      <point x="360" y="128" type="curve" smooth="yes"/>
      <point x="340" y="128"/>
      <point x="327" y="114"/>
      <point x="327" y="97" type="curve" smooth="yes"/>
      <point x="327" y="79"/>
      <point x="340" y="66"/>
    </contour>
    <contour>
      <point x="696" y="88" type="line" smooth="yes"/>
      <point x="727" y="89"/>
      <point x="721" y="132"/>
      <point x="695" y="129" type="curve" smooth="yes"/>
      <point x="636" y="122" type="line" smooth="yes"/>
      <point x="610" y="119"/>
      <point x="612" y="87"/>
      <point x="637" y="87" type="curve" smooth="yes"/>
    </contour>
    <contour>
      <point x="616" y="185" type="curve" smooth="yes"/>
      <point x="683" y="189" type="line" smooth="yes"/>
      <point x="708" y="190"/>
      <point x="710" y="219"/>
      <point x="684" y="220" type="curve" smooth="yes"/>
      <point x="617" y="222" type="line" smooth="yes"/>
      <point x="591" y="223"/>
      <point x="585" y="183"/>
    </contour>
    <contour>
      <point x="70" y="103" type="line" smooth="yes"/>
      <point x="101" y="101"/>
      <point x="95" y="140"/>
      <point x="70" y="140" type="curve" smooth="yes"/>
      <point x="51" y="140" type="line" smooth="yes"/>
      <point x="26" y="140"/>
      <point x="28" y="105"/>
      <point x="52" y="104" type="curve" smooth="yes"/>
    </contour>
    <contour>
      <point x="71" y="196" type="curve" smooth="yes"/>
      <point x="86" y="197" type="line" smooth="yes"/>
      <point x="107" y="198"/>
      <point x="109" y="229"/>
      <point x="87" y="228" type="curve" smooth="yes"/>
      <point x="66" y="227" type="line" smooth="yes"/>
      <point x="46" y="226"/>
      <point x="46" y="194"/>
    </contour>
    <contour>
      <point x="469" y="212" type="line"/>
      <point x="469" y="212" type="line"/>
      <point x="469" y="212"/>
      <point x="488" y="269"/>
      <point x="488" y="269" type="curve"/>
      <point x="488" y="269" type="line"/>
    </contour>
  </outline>
</glyph>
<glyph name="N" format="2">
  <advance width="628"/>
  <unicode hex="004E"/>
  <anchor x="344" y="0" name="bottom"/>
  <anchor x="343" y="700" name="top"/>
  <outline>
    <contour>
      <point x="60" y="70" type="line" smooth="yes"/>
      <point x="60" y="-50"/>
      <point x="260" y="-40"/>
      <point x="260" y="69" type="curve" smooth="yes"/>
      <point x="261" y="352" type="line" smooth="yes"/>
      <point x="261" y="406"/>
      <point x="308" y="410"/>
      <point x="324" y="370" type="curve" smooth="yes"/>
      <point x="455" y="37" type="line" smooth="yes"/>
      <point x="483" y="-35"/>
      <point x="568" y="-21"/>
      <point x="568" y="60" type="curve" smooth="yes"/>
      <point x="568" y="677" type="line" smooth="yes"/>
      <point x="568" y="723"/>
      <point x="498" y="726"/>
      <point x="498" y="678" type="curve" smooth="yes"/>
      <point x="498" y="272" type="line" smooth="yes"/>
      <point x="498" y="234"/>
      <point x="456" y="231"/>
      <point x="442" y="269" type="curve" smooth="yes"/>
      <point x="315" y="618" type="line" smooth="yes"/>
      <point x="260" y="769"/>
      <point x="60" y="727"/>
      <point x="60" y="610" type="curve" smooth="yes"/>
    </contour>
    <contour>
      <point x="524" y="626" type="line" smooth="yes"/>
      <point x="495" y="626"/>
      <point x="495" y="565"/>
      <point x="524" y="565" type="curve" smooth="yes"/>
      <point x="541" y="565" type="line" smooth="yes"/>
      <point x="571" y="565"/>
      <point x="571" y="626"/>
      <point x="541" y="626" type="curve" smooth="yes"/>
    </contour>
    <contour>
      <point x="524" y="509" type="line" smooth="yes"/>
      <point x="498" y="509"/>
      <point x="498" y="448"/>
      <point x="524" y="448" type="curve" smooth="yes"/>
      <point x="541" y="448" type="line" smooth="yes"/>
      <point x="571" y="448"/>
      <point x="571" y="509"/>
      <point x="541" y="509" type="curve" smooth="yes"/>
    </contour>
    <contour>
      <point x="519" y="392" type="line" smooth="yes"/>
      <point x="498" y="392"/>
      <point x="498" y="349"/>
      <point x="519" y="349" type="curve" smooth="yes"/>
      <point x="545" y="349" type="line" smooth="yes"/>
      <point x="569" y="349"/>
      <point x="569" y="392"/>
      <point x="545" y="392" type="curve" smooth="yes"/>
    </contour>
    <contour>
      <point x="60" y="321" type="line"/>
      <point x="60" y="321" type="line"/>
      <point x="60" y="321"/>
      <point x="60" y="261"/>
      <point x="60" y="261" type="curve"/>
      <point x="60" y="261" type="line"/>
    </contour>
    <contour>
      <point x="60" y="249" type="line"/>
      <point x="60" y="249" type="line"/>
      <point x="60" y="249"/>
      <point x="60" y="209"/>
      <point x="60" y="209" type="curve"/>
      <point x="60" y="209" type="line"/>
    </contour>
    <contour>
      <point x="60" y="194" type="line"/>
      <point x="60" y="194" type="line"/>
      <point x="60" y="194"/>
      <point x="60" y="124"/>
      <point x="60" y="124" type="curve"/>
      <point x="60" y="124" type="line"/>
    </contour>
    <contour>
      <point x="498" y="150" type="curve" smooth="yes"/>
      <point x="505" y="150"/>
      <point x="511" y="156"/>
      <point x="511" y="164" type="curve" smooth="yes"/>
      <point x="511" y="171"/>
      <point x="505" y="177"/>
      <point x="498" y="177" type="curve" smooth="yes"/>
      <point x="490" y="177"/>
      <point x="484" y="171"/>
      <point x="484" y="164" type="curve" smooth="yes"/>
      <point x="484" y="156"/>
      <point x="490" y="150"/>
    </contour>
    <contour>
      <point x="257" y="509" type="curve" smooth="yes"/>
      <point x="265" y="509"/>
      <point x="272" y="516"/>
      <point x="272" y="525" type="curve" smooth="yes"/>
      <point x="272" y="533"/>
      <point x="265" y="540"/>
      <point x="257" y="540" type="curve" smooth="yes"/>
      <point x="248" y="540"/>
      <point x="241" y="533"/>
      <point x="241" y="525" type="curve" smooth="yes"/>
      <point x="241" y="516"/>
      <point x="248" y="509"/>
    </contour>
    <contour>
      <point x="367" y="348" type="line" smooth="yes"/>
      <point x="352" y="339"/>
      <point x="371" y="307"/>
      <point x="385" y="314" type="curve" smooth="yes"/>
      <point x="409" y="327" type="line"/>
      <point x="391" y="363" type="line"/>
    </contour>
    <contour>
      <point x="385" y="283" type="line" smooth="yes"/>
      <point x="369" y="272"/>
      <point x="396" y="230"/>
      <point x="411" y="241" type="curve" smooth="yes"/>
      <point x="427" y="252" type="line" smooth="yes"/>
      <point x="439" y="260"/>
      <point x="416" y="304"/>
      <point x="401" y="294" type="curve" smooth="yes"/>
    </contour>
  </outline>
</glyph>
<glyph name="O" format="2">
  <advance width="611"/>
  <unicode hex="004F"/>
  <anchor x="316" y="0" name="bottom"/>
  <anchor x="314" y="700" name="top"/>
  <outline>
    <contour>
      <point x="317" y="-14" type="curve" smooth="yes"/>
      <point x="474" y="-14"/>
      <point x="576" y="88"/>
      <point x="576" y="347" type="curve" smooth="yes"/>
      <point x="576" y="610"/>
      <point x="474" y="714"/>
      <point x="314" y="714" type="curve" smooth="yes"/>
      <point x="135" y="714"/>
      <point x="35" y="597"/>
      <point x="35" y="347" type="curve" smooth="yes"/>
      <point x="35" y="101"/>
      <point x="135" y="-14"/>
    </contour>
    <contour>
      <point x="369" y="69" type="curve" smooth="yes"/>
      <point x="293" y="69"/>
      <point x="255" y="163"/>
      <point x="255" y="347" type="curve" smooth="yes"/>
      <point x="255" y="535"/>
      <point x="293" y="631"/>
      <point x="369" y="631" type="curve" smooth="yes"/>
      <point x="436" y="631"/>
      <point x="503" y="552"/>
      <point x="503" y="347" type="curve" smooth="yes"/>
      <point x="503" y="146"/>
      <point x="436" y="69"/>
    </contour>
    <contour>
      <point x="445" y="54" type="curve" smooth="yes"/>
      <point x="445" y="54"/>
      <point x="445" y="54"/>
      <point x="445" y="54" type="curve" smooth="yes"/>
      <point x="445" y="54"/>
      <point x="445" y="54"/>
      <point x="445" y="54" type="curve" smooth="yes"/>
      <point x="445" y="54"/>
      <point x="445" y="54"/>
      <point x="445" y="54" type="curve" smooth="yes"/>
      <point x="445" y="54"/>
      <point x="445" y="54"/>
    </contour>
    <contour>
      <point x="422" y="47" type="curve" smooth="yes"/>
      <point x="422" y="47"/>
      <point x="422" y="47"/>
      <point x="422" y="47" type="curve" smooth="yes"/>
      <point x="422" y="47"/>
      <point x="422" y="47"/>
      <point x="422" y="47" type="curve" smooth="yes"/>
      <point x="422" y="47"/>
      <point x="422" y="47"/>
      <point x="422" y="47" type="curve" smooth="yes"/>
      <point x="422" y="47"/>
      <point x="422" y="47"/>
    </contour>
    <contour>
      <point x="359" y="9" type="curve" smooth="yes"/>
      <point x="359" y="9"/>
      <point x="359" y="9"/>
      <point x="359" y="9" type="curve" smooth="yes"/>
      <point x="359" y="9"/>
      <point x="359" y="9"/>
      <point x="359" y="9" type="curve" smooth="yes"/>
      <point x="359" y="9"/>
      <point x="359" y="9"/>
      <point x="359" y="9" type="curve" smooth="yes"/>
      <point x="359" y="9"/>
      <point x="359" y="9"/>
    </contour>
    <contour>
      <point x="278" y="78" type="line" smooth="yes"/>
      <point x="283" y="108"/>
      <point x="241" y="114"/>
      <point x="235" y="85" type="curve" smooth="yes"/>
      <point x="234" y="80" type="line" smooth="yes"/>
      <point x="229" y="55"/>
      <point x="273" y="47"/>
      <point x="277" y="72" type="curve" smooth="yes"/>
    </contour>
    <contour>
      <point x="534" y="189" type="line" smooth="yes"/>
      <point x="510" y="213"/>
      <point x="479" y="165"/>
      <point x="502" y="146" type="curve" smooth="yes"/>
      <point x="507" y="142" type="line" smooth="yes"/>
      <point x="526" y="127"/>
      <point x="555" y="168"/>
      <point x="538" y="185" type="curve" smooth="yes"/>
    </contour>
    <contour>
      <point x="549" y="417" type="line" smooth="yes"/>
      <point x="515" y="422"/>
      <point x="504" y="370"/>
      <point x="538" y="365" type="curve" smooth="yes"/>
      <point x="545" y="364" type="line" smooth="yes"/>
      <point x="570" y="360"/>
      <point x="582" y="412"/>
      <point x="556" y="416" type="curve" smooth="yes"/>
    </contour>
    <contour>
      <point x="514" y="531" type="line" smooth="yes"/>
      <point x="488" y="522"/>
      <point x="499" y="473"/>
      <point x="524" y="483" type="curve" smooth="yes"/>
      <point x="534" y="487" type="line" smooth="yes"/>
      <point x="557" y="496"/>
      <point x="549" y="543"/>
      <point x="523" y="534" type="curve" smooth="yes"/>
    </contour>
    <contour>
      <point x="302" y="51" type="line" smooth="yes"/>
      <point x="293" y="28"/>
      <point x="338" y="18"/>
      <point x="343" y="39" type="curve" smooth="yes"/>
      <point x="346" y="51" type="line" smooth="yes"/>
      <point x="351" y="71"/>
      <point x="316" y="87"/>
      <point x="307" y="64" type="curve" smooth="yes"/>
    </contour>
    <contour>
      <point x="499" y="116" type="line" smooth="yes"/>
      <point x="482" y="135"/>
      <point x="450" y="110"/>
      <point x="464" y="91" type="curve" smooth="yes"/>
      <point x="469" y="84" type="line" smooth="yes"/>
      <point x="485" y="62"/>
      <point x="523" y="89"/>
      <point x="506" y="108" type="curve" smooth="yes"/>
    </contour>
    <contour>
      <point x="531" y="306" type="line" smooth="yes"/>
      <point x="507" y="314"/>
      <point x="496" y="278"/>
      <point x="518" y="268" type="curve" smooth="yes"/>
      <point x="540" y="258" type="line" smooth="yes"/>
      <point x="567" y="246"/>
      <point x="580" y="290"/>
      <point x="553" y="299" type="curve" smooth="yes"/>
    </contour>
    <contour>
      <point x="461" y="631" type="line" smooth="yes"/>
      <point x="435" y="621"/>
      <point x="445" y="586"/>
      <point x="468" y="592" type="curve" smooth="yes"/>
      <point x="488" y="597" type="line" smooth="yes"/>
      <point x="506" y="601"/>
      <point x="497" y="645"/>
      <point x="474" y="636" type="curve" smooth="yes"/>
    </contour>
    <contour>
      <point x="530" y="254" type="curve" smooth="yes"/>
      <point x="516" y="254"/>
      <point x="505" y="242"/>
      <point x="505" y="228" type="curve" smooth="yes"/>
      <point x="505" y="214"/>
      <point x="516" y="204"/>
      <point x="530" y="204" type="curve" smooth="yes"/>
      <point x="544" y="204"/>
      <point x="555" y="214"/>
      <point x="555" y="228" type="curve" smooth="yes"/>
      <point x="555" y="242"/>
      <point x="544" y="254"/>
    </contour>
  </outline>
</glyph>
<glyph name="P" format="2">
  <advance width="516"/>
  <unicode hex="0050"/>
  <anchor x="96" y="0" name="bottom"/>
  <anchor x="266" y="700" name="top"/>
  <outline>
    <contour>
      <point x="261" y="618"/>
      <point x="279" y="636"/>
      <point x="311" y="636" type="curve" smooth="yes"/>
      <point x="318" y="636" type="line" smooth="yes"/>
      <point x="386" y="636"/>
      <point x="430" y="577"/>
      <point x="430" y="481" type="curve" smooth="yes"/>
      <point x="430" y="375"/>
      <point x="376" y="327"/>
      <point x="314" y="327" type="curve" smooth="yes"/>
      <point x="302" y="327" type="line" smooth="yes"/>
      <point x="275" y="327"/>
      <point x="261" y="348"/>
      <point x="261" y="381" type="curve" smooth="yes"/>
      <point x="261" y="582" type="line" smooth="yes"/>
    </contour>
    <contour>
      <point x="60" y="24" type="line" smooth="yes"/>
      <point x="60" y="-18"/>
      <point x="131" y="-19"/>
      <point x="131" y="24" type="curve" smooth="yes"/>
      <point x="130" y="214" type="line" smooth="yes"/>
      <point x="130" y="241"/>
      <point x="139" y="256"/>
      <point x="165" y="256" type="curve" smooth="yes"/>
      <point x="289" y="256" type="line" smooth="yes"/>
      <point x="412" y="256"/>
      <point x="503" y="320"/>
      <point x="503" y="480" type="curve" smooth="yes"/>
      <point x="503" y="648"/>
      <point x="408" y="705"/>
      <point x="289" y="705" type="curve" smooth="yes"/>
      <point x="136" y="705" type="line" smooth="yes"/>
      <point x="93" y="705"/>
      <point x="61" y="676"/>
      <point x="61" y="623" type="curve" smooth="yes"/>
    </contour>
    <contour>
      <point x="164" y="590" type="curve" smooth="yes"/>
      <point x="153" y="601" type="line" smooth="yes"/>
      <point x="131" y="623"/>
      <point x="94" y="585"/>
      <point x="117" y="562" type="curve" smooth="yes"/>
      <point x="129" y="550" type="line" smooth="yes"/>
      <point x="150" y="529"/>
      <point x="185" y="569"/>
    </contour>
    <contour>
      <point x="161" y="485" type="curve" smooth="yes"/>
      <point x="146" y="488" type="line" smooth="yes"/>
      <point x="116" y="494"/>
      <point x="107" y="441"/>
      <point x="139" y="435" type="curve" smooth="yes"/>
      <point x="155" y="432" type="line" smooth="yes"/>
      <point x="185" y="426"/>
      <point x="191" y="479"/>
    </contour>
    <contour>
      <point x="95" y="183" type="curve" smooth="yes"/>
      <point x="95" y="183"/>
      <point x="95" y="183"/>
      <point x="95" y="183" type="curve" smooth="yes"/>
      <point x="95" y="183"/>
      <point x="95" y="183"/>
      <point x="95" y="183" type="curve" smooth="yes"/>
      <point x="95" y="183"/>
      <point x="95" y="183"/>
      <point x="95" y="183" type="curve" smooth="yes"/>
      <point x="95" y="183"/>
      <point x="95" y="183"/>
    </contour>
    <contour>
      <point x="98" y="238" type="curve" smooth="yes"/>
      <point x="98" y="238"/>
      <point x="98" y="238"/>
      <point x="98" y="238" type="curve" smooth="yes"/>
      <point x="98" y="238"/>
      <point x="98" y="238"/>
      <point x="98" y="238" type="curve" smooth="yes"/>
      <point x="98" y="238"/>
      <point x="98" y="238"/>
      <point x="98" y="238" type="curve" smooth="yes"/>
      <point x="98" y="238"/>
      <point x="98" y="238"/>
    </contour>
    <contour>
      <point x="143" y="553" type="curve" smooth="yes"/>
      <point x="89" y="557" type="line" smooth="yes"/>
      <point x="66" y="559"/>
      <point x="65" y="511"/>
      <point x="88" y="511" type="curve" smooth="yes"/>
      <point x="139" y="511" type="line" smooth="yes"/>
      <point x="162" y="511"/>
      <point x="171" y="551"/>
    </contour>
    <contour>
      <point x="137" y="428" type="curve" smooth="yes"/>
      <point x="112" y="423" type="line" smooth="yes"/>
      <point x="89" y="418"/>
      <point x="99" y="358"/>
      <point x="121" y="365" type="curve" smooth="yes"/>
      <point x="147" y="373" type="line" smooth="yes"/>
      <point x="169" y="380"/>
      <point x="162" y="433"/>
    </contour>
    <contour>
      <point x="418" y="644" type="curve" smooth="yes"/>
      <point x="399" y="632" type="line" smooth="yes"/>
      <point x="380" y="620"/>
      <point x="406" y="586"/>
      <point x="428" y="594" type="curve" smooth="yes"/>
      <point x="449" y="602" type="line" smooth="yes"/>
      <point x="473" y="611"/>
      <point x="439" y="657"/>
    </contour>
  </outline>
</glyph>
<glyph name="Q" format="2">
  <advance width="611"/>
  <unicode hex="0051"/>
  <anchor x="288" y="0" name="bottom"/>
  <anchor x="294" y="700" name="top"/>
  <outline>
    <contour>
      <point x="221" y="-2" type="curve" smooth="yes"/>
      <point x="514" y="-168" type="line" smooth="yes"/>
      <point x="552" y="-189"/>
      <point x="582" y="-123"/>
      <point x="542" y="-102" type="curve" smooth="yes"/>
      <point x="356" y="-4" type="line" smooth="yes"/>
      <point x="331" y="9"/>
      <point x="337" y="25"/>
      <point x="354" y="29" type="curve" smooth="yes"/>
      <point x="497" y="60"/>
      <point x="576" y="130"/>
      <point x="576" y="347" type="curve" smooth="yes"/>
      <point x="576" y="596"/>
      <point x="476" y="712"/>
      <point x="297" y="712" type="curve" smooth="yes"/>
      <point x="137" y="712"/>
      <point x="35" y="609"/>
      <point x="35" y="347" type="curve" smooth="yes"/>
      <point x="35" y="104"/>
      <point x="131" y="49"/>
    </contour>
    <contour>
      <point x="242" y="71" type="curve" smooth="yes"/>
      <point x="175" y="71"/>
      <point x="108" y="147"/>
      <point x="108" y="347" type="curve" smooth="yes"/>
      <point x="108" y="551"/>
      <point x="175" y="629"/>
      <point x="242" y="629" type="curve" smooth="yes"/>
      <point x="318" y="629"/>
      <point x="356" y="534"/>
      <point x="356" y="347" type="curve" smooth="yes"/>
      <point x="356" y="164"/>
      <point x="318" y="71"/>
    </contour>
    <contour>
      <point x="122" y="555" type="curve" smooth="yes"/>
      <point x="122" y="555"/>
      <point x="122" y="555"/>
      <point x="122" y="555" type="curve" smooth="yes"/>
      <point x="122" y="555"/>
      <point x="122" y="555"/>
      <point x="122" y="555" type="curve" smooth="yes"/>
      <point x="122" y="555"/>
      <point x="122" y="555"/>
      <point x="122" y="555" type="curve" smooth="yes"/>
      <point x="122" y="555"/>
      <point x="122" y="555"/>
    </contour>
    <contour>
      <point x="392" y="659" type="curve" smooth="yes"/>
      <point x="392" y="659"/>
      <point x="392" y="659"/>
      <point x="392" y="659" type="curve" smooth="yes"/>
      <point x="392" y="659"/>
      <point x="392" y="659"/>
      <point x="392" y="659" type="curve" smooth="yes"/>
      <point x="392" y="659"/>
      <point x="392" y="659"/>
      <point x="392" y="659" type="curve" smooth="yes"/>
      <point x="392" y="659"/>
      <point x="392" y="659"/>
    </contour>
    <contour>
      <point x="504" y="492" type="curve" smooth="yes"/>
      <point x="504" y="492"/>
      <point x="504" y="492"/>
      <point x="504" y="492" type="curve" smooth="yes"/>
      <point x="504" y="492"/>
      <point x="504" y="492"/>
      <point x="504" y="492" type="curve" smooth="yes"/>
      <point x="504" y="492"/>
      <point x="504" y="492"/>
      <point x="504" y="492" type="curve" smooth="yes"/>
      <point x="504" y="492"/>
      <point x="504" y="492"/>
    </contour>
    <contour>
      <point x="208" y="640" type="curve" smooth="yes"/>
      <point x="201" y="657" type="line" smooth="yes"/>
      <point x="190" y="683"/>
      <point x="147" y="660"/>
      <point x="157" y="638" type="curve" smooth="yes"/>
      <point x="163" y="625" type="line" smooth="yes"/>
      <point x="170" y="609"/>
      <point x="214" y="625"/>
    </contour>
    <contour>
      <point x="118" y="523" type="curve" smooth="yes"/>
      <point x="105" y="532" type="line" smooth="yes"/>
      <point x="77" y="552"/>
      <point x="51" y="507"/>
      <point x="76" y="488" type="curve" smooth="yes"/>
      <point x="88" y="479" type="line" smooth="yes"/>
      <point x="108" y="464"/>
      <point x="136" y="510"/>
    </contour>
    <contour>
      <point x="462" y="543" type="curve" smooth="yes"/>
      <point x="394" y="513" type="line" smooth="yes"/>
      <point x="360" y="498"/>
      <point x="389" y="451"/>
      <point x="417" y="465" type="curve" smooth="yes"/>
      <point x="483" y="498" type="line" smooth="yes"/>
      <point x="511" y="512"/>
      <point x="492" y="556"/>
    </contour>
    <contour>
      <point x="524" y="373" type="curve" smooth="yes"/>
      <point x="435" y="384" type="line" smooth="yes"/>
      <point x="403" y="388"/>
      <point x="402" y="350"/>
      <point x="433" y="347" type="curve" smooth="yes"/>
      <point x="522" y="337" type="line" smooth="yes"/>
      <point x="546" y="334"/>
      <point x="550" y="370"/>
    </contour>
    <contour>
      <point x="401" y="-79" type="curve" smooth="yes"/>
      <point x="412" y="-59" type="line" smooth="yes"/>
      <point x="422" y="-41"/>
      <point x="387" y="-20"/>
      <point x="375" y="-34" type="curve" smooth="yes"/>
      <point x="359" y="-52" type="line" smooth="yes"/>
      <point x="342" y="-71"/>
      <point x="391" y="-98"/>
    </contour>
    <contour>
      <point x="501" y="-135" type="curve" smooth="yes"/>
      <point x="514" y="-112" type="line" smooth="yes"/>
      <point x="525" y="-93"/>
      <point x="486" y="-75"/>
      <point x="478" y="-93" type="curve" smooth="yes"/>
      <point x="467" y="-117" type="line" smooth="yes"/>
      <point x="459" y="-135"/>
      <point x="491" y="-152"/>
    </contour>
  </outline>
</glyph>
<glyph name="R" format="2">
  <advance width="533"/>
  <unicode hex="0052"/>
  <anchor x="229" y="0" name="bottom"/>
  <anchor x="268" y="700" name="top"/>
  <outline>
    <contour>
      <point x="60" y="25" type="line" smooth="yes"/>
      <point x="60" y="-24"/>
      <point x="134" y="-20"/>
      <point x="134" y="22" type="curve" smooth="yes"/>
      <point x="134" y="234" type="line" smooth="yes"/>
      <point x="134" y="256"/>
      <point x="144" y="268"/>
      <point x="169" y="268" type="curve" smooth="yes"/>
      <point x="174" y="268" type="line" smooth="yes"/>
      <point x="198" y="268"/>
      <point x="213" y="259"/>
      <point x="226" y="236" type="curve" smooth="yes"/>
      <point x="343" y="25" type="line" smooth="yes"/>
      <point x="383" y="-48"/>
      <point x="506" y="-11"/>
      <point x="506" y="64" type="curve" smooth="yes"/>
      <point x="506" y="82"/>
      <point x="502" y="96"/>
      <point x="493" y="111" type="curve" smooth="yes"/>
      <point x="411" y="249" type="line" smooth="yes"/>
      <point x="405" y="258"/>
      <point x="403" y="265"/>
      <point x="403" y="273" type="curve" smooth="yes"/>
      <point x="403" y="282"/>
      <point x="410" y="289"/>
      <point x="420" y="295" type="curve" smooth="yes"/>
      <point x="464" y="321"/>
      <point x="489" y="350"/>
      <point x="490" y="471" type="curve" smooth="yes"/>
      <point x="491" y="607"/>
      <point x="428" y="699"/>
      <point x="310" y="699" type="curve" smooth="yes"/>
      <point x="144" y="699" type="line" smooth="yes"/>
      <point x="89" y="699"/>
      <point x="63" y="664"/>
      <point x="63" y="611" type="curve" smooth="yes"/>
    </contour>
    <contour>
      <point x="133" y="372" type="curve" smooth="yes"/>
      <point x="133" y="463" type="line" smooth="yes"/>
      <point x="133" y="490"/>
      <point x="142" y="505"/>
      <point x="167" y="505" type="curve" smooth="yes"/>
      <point x="317" y="505" type="line" smooth="yes"/>
      <point x="380" y="505"/>
      <point x="420" y="471"/>
      <point x="420" y="418" type="curve" smooth="yes"/>
      <point x="420" y="365"/>
      <point x="380" y="330"/>
      <point x="317" y="330" type="curve" smooth="yes"/>
      <point x="167" y="330" type="line" smooth="yes"/>
      <point x="142" y="330"/>
      <point x="133" y="345"/>
    </contour>
    <contour>
      <point x="481" y="131" type="line"/>
      <point x="481" y="131" type="line"/>
      <point x="481" y="131"/>
      <point x="468" y="153"/>
      <point x="468" y="153" type="curve"/>
      <point x="468" y="153" type="line"/>
    </contour>
    <contour>
      <point x="456" y="173" type="line"/>
      <point x="456" y="173" type="line"/>
      <point x="456" y="173"/>
      <point x="443" y="195"/>
      <point x="443" y="195" type="curve"/>
      <point x="443" y="195" type="line"/>
    </contour>
    <contour>
      <point x="455" y="47" type="curve" smooth="yes"/>
      <point x="471" y="47"/>
      <point x="484" y="60"/>
      <point x="484" y="76" type="curve" smooth="yes"/>
      <point x="484" y="92"/>
      <point x="471" y="105"/>
      <point x="455" y="105" type="curve" smooth="yes"/>
      <point x="439" y="105"/>
      <point x="426" y="92"/>
      <point x="426" y="76" type="curve" smooth="yes"/>
      <point x="426" y="60"/>
      <point x="439" y="47"/>
    </contour>
    <contour>
      <point x="104" y="5" type="line" smooth="yes"/>
      <point x="134" y="3"/>
      <point x="128" y="52"/>
      <point x="103" y="54" type="curve" smooth="yes"/>
      <point x="92" y="55" type="line" smooth="yes"/>
      <point x="66" y="57"/>
      <point x="67" y="8"/>
      <point x="91" y="6" type="curve" smooth="yes"/>
    </contour>
    <contour>
      <point x="106" y="73" type="line" smooth="yes"/>
      <point x="135" y="75"/>
      <point x="133" y="128"/>
      <point x="107" y="128" type="curve" smooth="yes"/>
      <point x="93" y="128" type="line" smooth="yes"/>
      <point x="62" y="128"/>
      <point x="62" y="70"/>
      <point x="90" y="72" type="curve" smooth="yes"/>
    </contour>
  </outline>
</glyph>
<glyph name="S" format="2">
  <advance width="489"/>
  <unicode hex="0053"/>
  <anchor x="230" y="0" name="bottom"/>
  <anchor x="223" y="0" name="cedilla"/>
  <anchor x="253" y="700" name="top"/>
  <outline>
    <contour>
      <point x="231" y="-12" type="curve" smooth="yes"/>
      <point x="382" y="-12"/>
      <point x="460" y="58"/>
      <point x="460" y="199" type="curve" smooth="yes"/>
      <point x="460" y="304"/>
      <point x="411" y="342"/>
      <point x="301" y="371" type="curve" smooth="yes"/>
      <point x="225" y="391" type="line" smooth="yes"/>
      <point x="140" y="413"/>
      <point x="118" y="432"/>
      <point x="118" y="466" type="curve" smooth="yes"/>
      <point x="118" y="501"/>
      <point x="139" y="519"/>
      <point x="182" y="519" type="curve" smooth="yes"/>
      <point x="261" y="519"/>
      <point x="288" y="475"/>
      <point x="355" y="475" type="curve" smooth="yes"/>
      <point x="419" y="475"/>
      <point x="450" y="509"/>
      <point x="450" y="566" type="curve" smooth="yes"/>
      <point x="450" y="662"/>
      <point x="357" y="712"/>
      <point x="264" y="712" type="curve" smooth="yes"/>
      <point x="120" y="712"/>
      <point x="37" y="625"/>
      <point x="37" y="502" type="curve" smooth="yes"/>
      <point x="37" y="392"/>
      <point x="97" y="359"/>
      <point x="195" y="333" type="curve" smooth="yes"/>
      <point x="277" y="311" type="line" smooth="yes"/>
      <point x="353" y="291"/>
      <point x="383" y="270"/>
      <point x="383" y="240" type="curve" smooth="yes"/>
      <point x="383" y="193"/>
      <point x="350" y="172"/>
      <point x="287" y="172" type="curve" smooth="yes"/>
      <point x="201" y="172"/>
      <point x="162" y="217"/>
      <point x="101" y="217" type="curve" smooth="yes"/>
      <point x="56" y="217"/>
      <point x="24" y="184"/>
      <point x="24" y="130" type="curve" smooth="yes"/>
      <point x="24" y="45"/>
      <point x="125" y="-12"/>
    </contour>
    <contour>
      <point x="320" y="103" type="curve" smooth="yes"/>
      <point x="320" y="103"/>
      <point x="320" y="103"/>
      <point x="320" y="103" type="curve" smooth="yes"/>
      <point x="320" y="103"/>
      <point x="320" y="103"/>
      <point x="320" y="103" type="curve" smooth="yes"/>
      <point x="320" y="103"/>
      <point x="320" y="103"/>
      <point x="320" y="103" type="curve" smooth="yes"/>
      <point x="320" y="103"/>
      <point x="320" y="103"/>
    </contour>
    <contour>
      <point x="372" y="55" type="curve" smooth="yes"/>
      <point x="372" y="55"/>
      <point x="372" y="55"/>
      <point x="372" y="55" type="curve" smooth="yes"/>
      <point x="372" y="55"/>
      <point x="372" y="55"/>
      <point x="372" y="55" type="curve" smooth="yes"/>
      <point x="372" y="55"/>
      <point x="372" y="55"/>
      <point x="372" y="55" type="curve" smooth="yes"/>
      <point x="372" y="55"/>
      <point x="372" y="55"/>
    </contour>
    <contour>
      <point x="414" y="136" type="curve" smooth="yes"/>
      <point x="414" y="136"/>
      <point x="414" y="136"/>
      <point x="414" y="136" type="curve" smooth="yes"/>
      <point x="414" y="136"/>
      <point x="414" y="136"/>
      <point x="414" y="136" type="curve" smooth="yes"/>
      <point x="414" y="136"/>
      <point x="414" y="136"/>
      <point x="414" y="136" type="curve" smooth="yes"/>
      <point x="414" y="136"/>
      <point x="414" y="136"/>
    </contour>
    <contour>
      <point x="348" y="566" type="curve" smooth="yes"/>
      <point x="348" y="566"/>
      <point x="348" y="566"/>
      <point x="348" y="566" type="curve" smooth="yes"/>
      <point x="348" y="566"/>
      <point x="348" y="566"/>
      <point x="348" y="566" type="curve" smooth="yes"/>
      <point x="348" y="566"/>
      <point x="348" y="566"/>
      <point x="348" y="566" type="curve" smooth="yes"/>
      <point x="348" y="566"/>
      <point x="348" y="566"/>
    </contour>
    <contour>
      <point x="146" y="62" type="curve" smooth="yes"/>
      <point x="155" y="87" type="line" smooth="yes"/>
      <point x="163" y="110"/>
      <point x="119" y="128"/>
      <point x="109" y="107" type="curve" smooth="yes"/>
      <point x="97" y="82" type="line" smooth="yes"/>
      <point x="84" y="55"/>
      <point x="136" y="35"/>
    </contour>
    <contour>
      <point x="283" y="130" type="curve" smooth="yes"/>
      <point x="275" y="150" type="line" smooth="yes"/>
      <point x="266" y="172"/>
      <point x="219" y="154"/>
      <point x="225" y="132" type="curve" smooth="yes"/>
      <point x="231" y="110" type="line" smooth="yes"/>
      <point x="239" y="81"/>
      <point x="293" y="105"/>
    </contour>
    <contour>
      <point x="285" y="344" type="curve" smooth="yes"/>
      <point x="292" y="357" type="line"/>
      <point x="248" y="379" type="line"/>
      <point x="238" y="367" type="line" smooth="yes"/>
      <point x="215" y="340"/>
      <point x="268" y="312"/>
    </contour>
    <contour>
      <point x="90" y="578" type="curve" smooth="yes"/>
      <point x="115" y="568" type="line" smooth="yes"/>
      <point x="138" y="559"/>
      <point x="154" y="601"/>
      <point x="134" y="610" type="curve" smooth="yes"/>
      <point x="109" y="622" type="line" smooth="yes"/>
      <point x="78" y="637"/>
      <point x="57" y="591"/>
    </contour>
    <contour>
      <point x="144" y="637" type="curve" smooth="yes"/>
      <point x="161" y="619" type="line"/>
      <point x="194" y="646" type="line"/>
      <point x="179" y="667" type="line" smooth="yes"/>
      <point x="162" y="690"/>
      <point x="123" y="660"/>
    </contour>
  </outline>
</glyph>
<glyph name="T" format="2">
  <advance width="444"/>
  <unicode hex="0054"/>
  <anchor x="221" y="0" name="bottom"/>
  <anchor x="208" y="0" name="cedilla"/>
  <anchor x="222" y="700" name="top"/>
  <outline>
    <contour>
      <point x="187" y="17" type="line" smooth="yes"/>
      <point x="187" y="-23"/>
      <point x="257" y="-24"/>
      <point x="257" y="16" type="curve" smooth="yes"/>
      <point x="257" y="474" type="line" smooth="yes"/>
      <point x="257" y="489"/>
      <point x="264" y="496"/>
      <point x="282" y="496" type="curve" smooth="yes"/>
      <point x="339" y="496" type="line" smooth="yes"/>
      <point x="420" y="496"/>
      <point x="439" y="549"/>
      <point x="439" y="601" type="curve" smooth="yes"/>
      <point x="439" y="656"/>
      <point x="418" y="706"/>
      <point x="338" y="706" type="curve" smooth="yes"/>
      <point x="108" y="706" type="line" smooth="yes"/>
      <point x="26" y="706"/>
      <point x="5" y="657"/>
      <point x="5" y="603" type="curve" smooth="yes"/>
      <point x="5" y="551"/>
      <point x="25" y="496"/>
      <point x="107" y="496" type="curve" smooth="yes"/>
      <point x="168" y="496" type="line" smooth="yes"/>
      <point x="182" y="496"/>
      <point x="187" y="489"/>
      <point x="187" y="474" type="curve" smooth="yes"/>
    </contour>
    <contour>
      <point x="257" y="267" type="line"/>
      <point x="257" y="267" type="line"/>
      <point x="257" y="267"/>
      <point x="257" y="327"/>
      <point x="257" y="327" type="curve"/>
      <point x="257" y="327" type="line"/>
    </contour>
    <contour>
      <point x="187" y="288" type="line"/>
      <point x="187" y="288" type="line"/>
      <point x="187" y="288"/>
      <point x="187" y="210"/>
      <point x="187" y="210" type="curve"/>
      <point x="187" y="210" type="line"/>
    </contour>
    <contour>
      <point x="187" y="147" type="line"/>
      <point x="187" y="147" type="line"/>
      <point x="187" y="147"/>
      <point x="187" y="86"/>
      <point x="187" y="86" type="curve"/>
      <point x="187" y="86" type="line"/>
    </contour>
    <contour>
      <point x="219" y="560" type="curve" smooth="yes"/>
      <point x="236" y="560"/>
      <point x="250" y="574"/>
      <point x="250" y="591" type="curve" smooth="yes"/>
      <point x="250" y="608"/>
      <point x="236" y="622"/>
      <point x="219" y="622" type="curve" smooth="yes"/>
      <point x="202" y="622"/>
      <point x="188" y="608"/>
      <point x="188" y="591" type="curve" smooth="yes"/>
      <point x="188" y="574"/>
      <point x="202" y="560"/>
    </contour>
    <contour>
      <point x="235" y="432" type="line"/>
      <point x="219" y="432" type="line" smooth="yes"/>
      <point x="189" y="432"/>
      <point x="189" y="377"/>
      <point x="219" y="378" type="curve" smooth="yes"/>
      <point x="240" y="379" type="line"/>
    </contour>
    <contour>
      <point x="237" y="348" type="line"/>
      <point x="218" y="352" type="line" smooth="yes"/>
      <point x="188" y="358"/>
      <point x="184" y="307"/>
      <point x="213" y="298" type="curve" smooth="yes"/>
      <point x="240" y="290" type="line"/>
    </contour>
  </outline>
</glyph>
<glyph name="U" format="2">
  <advance width="585"/>
  <unicode hex="0055"/>
  <anchor x="370" y="0" name="ogonek"/>
  <anchor x="251" y="700" name="top"/>
  <outline>
    <contour>
      <point x="265" y="-15" type="curve" smooth="yes"/>
      <point x="457" y="-15"/>
      <point x="530" y="79"/>
      <point x="530" y="215" type="curve" smooth="yes"/>
      <point x="530" y="633" type="line" smooth="yes"/>
      <point x="530" y="738"/>
      <point x="330" y="738"/>
      <point x="330" y="635" type="curve" smooth="yes"/>
      <point x="330" y="255" type="line" smooth="yes"/>
      <point x="330" y="110"/>
      <point x="298" y="52"/>
      <point x="231" y="52" type="curve" smooth="yes"/>
      <point x="161" y="52"/>
      <point x="125" y="105"/>
      <point x="125" y="252" type="curve" smooth="yes"/>
      <point x="126" y="674" type="line" smooth="yes"/>
      <point x="126" y="717"/>
      <point x="55" y="717"/>
      <point x="55" y="674" type="curve" smooth="yes"/>
      <point x="55" y="232" type="line" smooth="yes"/>
      <point x="55" y="68"/>
      <point x="107" y="-15"/>
    </contour>
    <contour>
      <point x="330" y="500" type="line"/>
      <point x="330" y="500" type="line"/>
      <point x="330" y="481"/>
      <point x="330" y="462"/>
      <point x="330" y="443" type="curve"/>
      <point x="330" y="443" type="line"/>
    </contour>
    <contour>
      <point x="330" y="427" type="line"/>
      <point x="330" y="427" type="line"/>
      <point x="330" y="407"/>
      <point x="330" y="386"/>
      <point x="330" y="366" type="curve"/>
      <point x="330" y="366" type="line"/>
    </contour>
    <contour>
      <point x="530" y="484" type="line"/>
      <point x="530" y="428" type="line"/>
      <point x="530" y="428" type="line"/>
      <point x="530" y="428"/>
      <point x="530" y="484"/>
      <point x="530" y="484" type="curve"/>
    </contour>
    <contour>
      <point x="122" y="58" type="curve" smooth="yes"/>
      <point x="137" y="58"/>
      <point x="149" y="70"/>
      <point x="149" y="85" type="curve" smooth="yes"/>
      <point x="149" y="100"/>
      <point x="137" y="112"/>
      <point x="122" y="112" type="curve" smooth="yes"/>
      <point x="107" y="112"/>
      <point x="95" y="100"/>
      <point x="95" y="85" type="curve" smooth="yes"/>
      <point x="95" y="70"/>
      <point x="107" y="58"/>
    </contour>
    <contour>
      <point x="493" y="604" type="curve" smooth="yes"/>
      <point x="466" y="605" type="line" smooth="yes"/>
      <point x="438" y="606"/>
      <point x="433" y="547"/>
      <point x="467" y="548" type="curve" smooth="yes"/>
      <point x="491" y="549" type="line" smooth="yes"/>
      <point x="522" y="550"/>
      <point x="521" y="603"/>
    </contour>
    <contour>
      <point x="94" y="490" type="curve" smooth="yes"/>
      <point x="76" y="490" type="line"/>
      <point x="77" y="429" type="line"/>
      <point x="92" y="427" type="line" smooth="yes"/>
      <point x="123" y="423"/>
      <point x="122" y="490"/>
    </contour>
    <contour>
      <point x="444" y="443" type="curve" smooth="yes"/>
      <point x="415" y="439" type="line" smooth="yes"/>
      <point x="381" y="434"/>
      <point x="385" y="377"/>
      <point x="420" y="382" type="curve" smooth="yes"/>
      <point x="443" y="385" type="line" smooth="yes"/>
      <point x="477" y="389"/>
      <point x="476" y="447"/>
    </contour>
    <contour>
      <point x="392" y="57" type="curve" smooth="yes"/>
      <point x="376" y="89" type="line" smooth="yes"/>
      <point x="361" y="118"/>
      <point x="314" y="93"/>
      <point x="331" y="60" type="curve" smooth="yes"/>
      <point x="345" y="33" type="line" smooth="yes"/>
      <point x="362" y="1"/>
      <point x="406" y="29"/>
    </contour>
  </outline>
</glyph>
<glyph name="V" format="2">
  <advance width="525"/>
  <unicode hex="0056"/>
  <anchor x="295" y="0" name="bottom"/>
  <anchor x="295" y="700" name="top"/>
  <outline>
    <contour>
      <point x="14" y="594" type="curve" smooth="yes"/>
      <point x="134" y="125" type="line" smooth="yes"/>
      <point x="155" y="42"/>
      <point x="199" y="-12"/>
      <point x="271" y="-12" type="curve" smooth="yes"/>
      <point x="350" y="-12"/>
      <point x="387" y="38"/>
      <point x="404" y="121" type="curve" smooth="yes"/>
      <point x="514" y="665" type="line" smooth="yes"/>
      <point x="523" y="710"/>
      <point x="454" y="723"/>
      <point x="446" y="679" type="curve" smooth="yes"/>
      <point x="361" y="238" type="line" smooth="yes"/>
      <point x="356" y="212"/>
      <point x="347" y="196"/>
      <point x="331" y="196" type="curve" smooth="yes"/>
      <point x="317" y="196"/>
      <point x="308" y="212"/>
      <point x="302" y="238" type="curve" smooth="yes"/>
      <point x="215" y="637" type="line" smooth="yes"/>
      <point x="189" y="756"/>
      <point x="-20" y="727"/>
    </contour>
    <contour>
      <point x="31" y="529" type="line"/>
      <point x="31" y="529" type="line"/>
      <point x="31" y="529"/>
      <point x="45" y="472"/>
      <point x="45" y="472" type="curve"/>
      <point x="45" y="472" type="line"/>
    </contour>
    <contour>
      <point x="59" y="421" type="line"/>
      <point x="59" y="421" type="line"/>
      <point x="59" y="421"/>
      <point x="74" y="361"/>
      <point x="74" y="361" type="curve"/>
      <point x="74" y="361" type="line"/>
    </contour>
    <contour>
      <point x="83" y="325" type="line"/>
      <point x="83" y="325" type="line" smooth="yes"/>
      <point x="83" y="325"/>
      <point x="102" y="250"/>
      <point x="102" y="250" type="curve" smooth="yes"/>
      <point x="102" y="250" type="line"/>
    </contour>
    <contour>
      <point x="329" y="73" type="curve" smooth="yes"/>
      <point x="349" y="73"/>
      <point x="365" y="89"/>
      <point x="365" y="109" type="curve" smooth="yes"/>
      <point x="365" y="129"/>
      <point x="349" y="145"/>
      <point x="329" y="145" type="curve" smooth="yes"/>
      <point x="309" y="145"/>
      <point x="293" y="129"/>
      <point x="293" y="109" type="curve" smooth="yes"/>
      <point x="293" y="89"/>
      <point x="309" y="73"/>
    </contour>
    <contour>
      <point x="496" y="635" type="line"/>
      <point x="470" y="640" type="line" smooth="yes"/>
      <point x="446" y="645"/>
      <point x="439" y="601"/>
      <point x="461" y="597" type="curve" smooth="yes"/>
      <point x="482" y="593" type="line"/>
    </contour>
    <contour>
      <point x="462" y="542" type="curve" smooth="yes"/>
      <point x="438" y="545" type="line"/>
      <point x="425" y="496" type="line"/>
      <point x="454" y="494" type="line" smooth="yes"/>
      <point x="477" y="492"/>
      <point x="480" y="540"/>
    </contour>
    <contour>
      <point x="440" y="461" type="curve" smooth="yes"/>
      <point x="418" y="465" type="line"/>
      <point x="404" y="418" type="line"/>
      <point x="427" y="411" type="line" smooth="yes"/>
      <point x="449" y="404"/>
      <point x="459" y="458"/>
    </contour>
    <contour>
      <point x="221" y="375" type="curve" smooth="yes"/>
      <point x="138" y="371" type="line" smooth="yes"/>
      <point x="105" y="369"/>
      <point x="113" y="308"/>
      <point x="142" y="311" type="curve" smooth="yes"/>
      <point x="223" y="318" type="line" smooth="yes"/>
      <point x="254" y="321"/>
      <point x="249" y="376"/>
    </contour>
    <contour>
      <point x="400" y="223" type="curve" smooth="yes"/>
      <point x="384" y="225" type="line" smooth="yes"/>
      <point x="361" y="228"/>
      <point x="348" y="176"/>
      <point x="370" y="170" type="curve" smooth="yes"/>
      <point x="389" y="165" type="line" smooth="yes"/>
      <point x="409" y="160"/>
      <point x="419" y="221"/>
    </contour>
    <contour>
      <point x="411" y="330" type="curve" smooth="yes"/>
      <point x="392" y="336" type="line"/>
      <point x="379" y="289" type="line"/>
      <point x="398" y="285" type="line" smooth="yes"/>
      <point x="421" y="280"/>
      <point x="431" y="324"/>
    </contour>
  </outline>
</glyph>
